{"glyphs":{"0":{"ha":761,"x_min":19,"x_max":732,"o":"m 254 -29 q 204 -23 239 -29 q 137 -6 169 -17 q 96 17 104 6 q 50 53 74 29 q 26 106 26 78 q 26 113 26 108 q 28 119 26 117 l 19 138 q 26 169 24 153 q 42 197 29 185 q 69 258 43 226 q 126 319 94 290 q 178 368 158 349 q 161 393 161 378 q 195 457 161 431 q 278 500 229 483 q 376 524 328 517 q 453 532 425 532 q 568 517 508 532 q 672 467 628 503 q 726 367 717 431 l 719 339 l 704 368 l 700 368 l 692 353 q 717 331 707 343 q 732 301 728 318 l 721 281 l 728 279 q 722 254 726 267 q 714 231 718 242 l 706 226 q 702 210 704 218 q 693 194 700 201 l 678 188 l 679 178 q 667 165 679 168 q 647 154 654 161 l 628 149 l 621 143 q 618 132 621 138 q 608 126 615 126 q 576 106 590 124 q 549 72 563 88 q 515 60 535 57 q 461 27 494 39 q 393 6 428 15 q 331 -17 358 -4 l 289 -18 q 273 -27 282 -25 q 254 -29 264 -29 m 199 38 q 244 44 215 38 q 304 58 274 50 q 359 72 335 67 q 392 74 383 76 q 438 114 408 96 q 500 151 467 132 q 564 197 533 171 q 614 261 594 224 q 633 354 633 299 q 608 435 633 404 q 542 479 582 465 q 457 493 501 493 q 395 488 436 493 q 310 469 354 482 q 236 438 267 457 q 206 392 206 419 l 207 385 q 338 444 269 421 q 479 468 407 468 q 526 465 503 468 q 566 449 550 461 q 582 406 582 436 l 571 382 l 567 385 q 539 438 561 424 q 481 453 517 453 q 345 424 406 453 q 225 353 285 396 l 244 339 l 244 336 q 235 332 240 332 q 223 335 229 332 q 210 338 217 338 q 200 331 208 338 q 190 324 192 325 l 188 317 q 145 278 163 303 q 111 231 128 253 l 97 197 l 88 193 q 79 155 86 174 q 72 115 72 136 q 92 63 72 79 q 142 42 113 46 q 199 38 171 38 z "},"1":{"ha":322,"x_min":56,"x_max":378,"o":"m 117 -18 q 75 -2 94 -18 q 56 38 56 14 q 85 151 56 92 q 144 254 114 211 l 143 269 l 156 279 l 161 289 l 158 297 l 165 300 l 183 338 q 134 302 164 321 q 76 283 104 283 l 68 290 q 189 386 139 326 q 256 526 239 446 q 301 518 272 525 q 354 498 331 511 q 378 463 378 485 q 365 431 378 446 q 342 404 351 415 l 332 399 l 324 401 q 311 371 314 389 l 296 369 l 296 357 q 294 344 296 349 l 283 349 l 272 342 q 278 362 272 353 q 290 379 285 371 l 290 381 l 288 381 l 274 369 l 275 367 q 266 358 271 361 q 256 350 261 354 l 254 357 l 257 367 l 254 369 l 247 363 l 250 357 l 233 353 l 229 347 l 229 343 l 232 342 l 238 347 l 243 344 l 246 351 l 250 353 l 251 346 l 267 343 q 244 325 258 333 l 246 321 l 239 319 l 225 308 l 222 303 l 235 308 l 243 306 l 244 297 l 238 297 l 231 292 l 231 289 l 224 281 l 226 274 l 226 271 q 215 245 221 260 q 193 231 208 231 l 185 225 l 194 215 l 196 208 l 193 204 l 188 206 l 183 208 l 179 192 l 169 186 l 165 181 q 150 151 163 163 q 136 122 138 139 l 124 126 l 117 118 l 118 117 l 125 118 l 125 111 l 124 86 l 118 88 l 114 82 l 117 69 l 104 51 l 103 38 q 104 21 103 29 q 110 6 106 13 l 115 4 l 125 7 l 136 7 l 138 10 l 149 17 l 154 11 l 143 -7 q 130 -13 142 -8 q 117 -18 118 -18 m 206 267 q 210 274 206 272 l 218 268 l 219 272 l 219 288 q 217 301 219 292 q 214 315 215 310 l 200 299 l 208 297 l 210 296 l 206 290 l 200 292 l 192 281 l 203 281 l 200 268 l 206 267 m 246 293 q 251 304 246 296 l 254 296 l 246 293 m 193 236 l 201 244 l 201 256 l 193 240 l 193 236 m 203 219 q 204 226 203 222 q 207 231 206 229 l 210 224 l 203 219 m 150 188 l 160 196 l 156 204 l 146 193 l 150 188 z "},"2":{"ha":658,"x_min":-36,"x_max":624,"o":"m 14 -29 q -24 -2 -12 -29 q -36 47 -36 25 q -20 79 -36 67 q 19 99 -4 92 q 63 114 42 107 q 96 131 85 121 l 99 131 q 144 156 122 143 q 192 175 167 168 l 206 169 l 213 176 l 211 186 l 218 183 l 217 190 l 210 192 l 206 197 l 221 201 l 231 194 l 238 197 l 243 196 q 304 228 268 215 q 358 265 340 240 l 356 268 l 338 258 l 326 268 l 338 278 l 374 274 l 379 269 q 407 293 393 281 q 439 311 421 306 q 474 335 454 329 l 482 344 l 468 351 l 483 367 l 493 356 l 493 349 q 503 362 499 354 q 510 376 507 369 l 510 381 l 524 390 l 538 383 l 535 374 q 528 365 532 369 q 522 354 525 360 l 522 349 l 531 363 l 549 364 l 544 372 q 551 386 544 383 q 567 390 558 389 l 568 393 l 557 394 l 556 400 q 568 403 561 400 q 575 411 575 406 l 574 424 q 564 416 568 419 q 553 418 560 413 q 538 409 546 413 q 522 404 531 406 l 521 410 l 531 421 q 545 433 544 421 q 546 454 546 444 q 545 469 546 461 q 540 483 544 478 l 540 481 l 531 468 l 521 471 l 519 488 l 501 493 q 488 483 499 485 q 471 482 478 482 q 461 483 465 482 l 461 490 l 465 496 l 463 513 l 457 510 l 449 519 l 467 522 l 513 511 l 519 514 q 570 491 547 507 q 611 456 593 475 l 607 446 l 614 453 q 620 430 617 442 q 624 406 624 418 l 614 392 l 601 396 q 595 388 599 392 q 589 381 592 383 l 583 381 l 572 367 q 556 352 571 353 q 533 344 542 351 l 538 338 l 538 331 q 526 315 538 321 q 508 306 515 310 q 400 236 450 278 q 297 158 350 194 l 290 163 q 258 142 274 153 q 226 124 243 131 q 277 106 249 119 q 333 80 306 92 q 381 68 361 68 q 442 83 410 68 q 497 124 474 99 q 519 181 519 150 q 513 197 519 190 q 499 207 506 204 l 497 214 l 506 221 q 524 201 510 218 q 553 165 538 185 q 581 128 569 144 q 593 107 593 111 q 582 81 593 94 l 575 79 l 568 72 l 556 81 l 547 75 l 549 68 l 564 57 l 561 50 l 550 54 l 543 51 l 538 43 l 531 50 l 518 38 l 521 22 l 514 19 l 515 14 q 485 1 501 7 q 454 -6 469 -6 q 399 10 429 -6 q 333 46 368 25 q 261 82 299 67 q 183 97 224 97 q 174 95 181 97 q 163 93 167 93 l 156 86 l 156 81 q 110 42 129 68 q 70 -7 92 15 q 14 -29 49 -29 m 174 306 q 133 333 151 306 q 114 381 114 360 q 138 433 114 411 q 198 470 161 454 q 276 496 235 486 q 353 511 317 506 q 413 519 390 517 l 419 507 l 424 513 l 422 517 l 425 521 l 439 521 l 440 513 l 453 493 l 432 485 l 418 489 l 417 481 l 411 485 l 401 475 l 399 478 q 377 467 389 472 q 356 456 365 463 l 340 472 l 329 465 l 328 461 l 332 456 l 324 446 l 321 453 l 317 446 l 306 444 l 307 440 l 306 435 l 293 443 l 294 447 l 290 451 l 275 443 l 285 443 l 292 438 l 288 431 q 268 438 278 431 q 229 414 256 431 q 180 378 203 397 q 157 343 157 358 q 172 328 157 328 q 183 329 178 328 q 193 332 189 331 l 200 328 q 188 314 196 322 q 174 306 181 306 m 575 460 l 582 460 l 585 467 l 578 467 l 572 464 l 575 460 m 588 422 l 594 426 l 593 433 l 586 435 l 575 431 l 588 422 m 546 392 l 538 396 l 542 403 l 546 392 m 447 332 l 446 335 l 451 344 l 456 344 l 458 343 l 457 336 l 447 332 m 478 310 q 493 322 485 317 q 507 332 501 326 l 500 338 l 485 332 l 486 329 l 468 318 l 478 310 m 411 297 l 399 306 l 404 310 l 418 306 l 411 297 m 426 278 q 442 290 435 283 q 457 301 449 296 q 418 283 436 297 l 426 278 m 401 269 l 410 278 l 399 276 l 399 274 l 401 269 z "},"3":{"ha":646,"x_min":3,"x_max":619,"o":"m 125 -35 q 66 -15 94 -35 q 20 34 38 4 q 3 93 3 64 q 24 150 3 128 q 74 186 44 172 q 131 207 104 200 l 147 200 q 80 151 113 176 q 47 76 47 125 q 69 41 47 50 q 114 32 92 32 q 209 38 161 32 q 300 65 257 43 l 311 63 q 340 79 319 71 q 381 97 360 88 q 414 111 403 106 l 415 104 l 429 114 l 422 118 q 454 147 436 131 q 486 183 472 164 q 500 222 500 203 q 481 259 500 246 q 433 279 461 272 q 378 287 406 286 q 335 286 351 288 l 314 293 q 279 284 297 288 q 243 281 261 281 q 224 283 235 281 q 214 296 214 286 q 232 317 219 308 q 269 317 247 317 q 303 325 292 317 q 346 307 324 308 q 354 313 347 314 l 346 317 l 364 321 q 336 335 346 324 l 368 350 l 375 349 l 393 357 l 399 356 l 400 361 l 419 363 l 418 354 l 418 350 l 429 343 l 435 349 l 439 360 l 432 358 l 425 361 l 439 368 l 447 368 l 456 372 l 468 369 l 472 374 l 474 381 l 469 394 l 476 399 l 483 397 l 493 403 q 511 419 499 414 q 524 439 524 425 q 513 458 524 451 q 490 468 501 465 l 493 476 l 497 478 l 482 475 l 481 468 l 468 463 l 458 472 l 458 475 l 451 486 q 429 474 438 482 l 424 474 q 404 476 414 474 q 383 478 394 478 q 322 473 360 478 q 254 453 285 468 q 219 406 224 438 l 224 401 l 224 394 l 213 381 l 206 381 q 187 395 196 390 q 178 417 178 400 q 194 458 178 438 q 226 489 210 478 l 218 492 q 303 511 257 508 q 392 514 350 514 q 453 513 415 514 q 530 502 492 511 q 594 474 568 493 q 619 419 619 456 q 619 406 619 413 q 617 392 618 399 q 593 369 607 379 q 564 361 579 360 l 557 357 q 553 359 556 360 q 550 356 550 358 l 550 344 l 538 339 l 511 343 l 497 331 l 489 331 q 478 331 483 331 q 468 333 474 332 l 471 325 l 467 324 l 456 331 q 444 326 450 329 q 431 321 438 324 l 417 329 q 409 321 413 325 q 403 314 406 317 l 394 318 l 394 313 q 490 291 440 307 q 572 243 539 275 q 606 154 606 211 q 585 114 606 126 q 542 93 564 101 l 531 97 l 543 122 q 508 101 533 115 q 460 72 482 88 q 439 43 439 56 q 381 6 414 18 q 311 -7 347 -7 l 300 -1 q 324 16 308 11 q 353 28 340 21 l 344 28 q 318 17 331 22 q 290 13 306 13 l 288 14 l 281 8 q 247 5 263 7 q 214 3 231 3 l 206 -7 l 199 -7 l 193 -11 l 185 -4 l 186 -12 l 178 -7 l 168 -7 l 161 -28 q 125 -35 143 -35 m 349 331 l 351 331 l 385 342 l 394 338 l 400 338 l 392 349 l 371 340 l 367 342 l 349 331 m 375 329 l 386 329 l 393 331 l 381 335 l 375 329 m 319 324 l 318 326 l 324 331 l 331 329 l 329 328 l 319 324 m 447 317 l 443 318 l 458 325 l 450 317 l 447 317 m 375 308 l 379 310 l 376 315 l 368 313 l 375 308 m 535 211 l 535 215 l 528 218 q 535 211 531 211 m 446 121 l 450 122 l 456 131 l 453 133 l 443 124 l 446 121 m 531 125 l 540 133 l 536 133 l 526 132 l 531 125 m 389 79 l 397 79 l 411 92 l 407 93 l 400 88 l 393 93 l 389 89 l 389 79 m 443 72 q 460 85 458 75 l 457 88 l 443 72 m 354 33 l 364 43 l 357 49 l 354 49 l 354 33 m 256 -12 l 247 -8 l 269 0 l 293 0 l 278 -7 l 272 -7 l 256 -12 m 224 -19 l 222 -7 l 233 -8 l 224 -19 z "},"4":{"ha":619,"x_min":3,"x_max":674,"o":"m 426 -35 q 399 -26 406 -32 q 372 -19 392 -19 q 365 -19 369 -19 q 356 -21 361 -19 q 333 -11 347 -14 q 306 -3 318 -8 q 294 17 294 3 q 309 86 294 50 q 340 151 324 122 q 264 165 301 156 q 188 175 226 175 q 147 156 163 175 q 112 123 132 140 q 68 106 92 106 q 27 121 51 106 q 3 154 3 136 q 19 181 3 165 q 56 208 36 196 q 86 219 76 219 l 93 214 q 155 262 122 236 q 219 304 188 288 l 222 308 q 339 399 286 347 q 436 510 392 451 l 432 506 q 460 544 447 525 q 485 581 472 563 l 489 581 l 493 578 q 476 538 493 560 q 446 504 458 515 l 456 494 l 468 499 q 346 353 407 426 q 214 215 285 279 q 360 193 282 193 q 395 266 378 224 q 431 348 413 308 q 469 408 450 388 q 465 425 468 417 q 460 440 463 433 l 490 486 l 497 492 q 513 511 503 503 q 536 518 522 519 l 560 518 q 571 493 571 511 q 553 470 560 483 q 540 443 546 457 q 526 421 533 436 q 514 392 519 406 q 504 375 508 378 q 492 347 499 361 q 476 318 486 332 l 479 311 l 471 310 l 476 299 l 468 290 q 450 238 463 264 q 433 185 438 213 q 450 183 442 183 q 468 182 458 182 q 499 188 483 182 q 531 196 515 193 l 536 194 q 559 199 547 197 q 579 208 571 201 l 585 207 q 613 222 599 215 q 640 236 626 228 l 643 246 l 649 244 q 658 267 653 251 q 672 283 663 283 l 669 278 l 674 268 l 668 269 l 663 258 q 664 253 663 258 l 664 253 l 665 251 l 665 250 q 664 253 664 250 l 661 257 q 660 247 660 254 q 660 239 660 243 q 663 231 661 235 l 653 232 l 644 226 l 646 218 l 643 207 l 632 215 l 626 211 l 622 193 q 593 179 611 179 l 582 168 l 586 160 l 578 153 l 572 156 l 563 154 q 532 136 550 144 l 532 133 l 525 131 q 510 133 514 131 q 488 131 499 132 q 465 125 476 129 l 436 131 l 429 128 l 418 129 l 413 125 l 417 114 l 408 93 l 411 88 q 412 73 411 81 q 414 57 413 65 q 403 19 403 39 q 412 -10 403 3 q 433 -32 421 -22 l 426 -35 m 419 269 l 429 281 l 422 281 l 418 278 l 418 276 l 419 269 m 406 238 l 415 254 l 413 257 q 407 250 408 256 q 403 240 406 244 l 406 238 m 397 215 l 400 231 l 399 233 l 393 231 l 397 215 m 633 193 l 632 201 l 639 206 l 643 206 l 633 193 m 589 192 l 597 194 l 597 197 l 593 203 l 581 194 l 589 192 m 356 139 l 363 146 l 357 147 l 356 144 l 356 139 m 422 107 l 421 113 l 421 114 l 424 117 l 429 115 l 422 107 z "},"5":{"ha":714,"x_min":6,"x_max":776,"o":"m 181 204 q 142 219 168 206 q 93 252 115 233 q 68 283 71 271 q 90 317 71 296 q 137 362 110 338 q 188 407 164 386 q 222 440 211 428 q 211 442 217 442 q 200 443 206 443 q 173 435 186 443 q 150 417 160 428 q 133 438 133 419 q 148 465 133 454 q 176 479 163 475 q 208 494 186 489 q 254 503 231 500 q 292 506 278 506 q 310 524 303 515 q 317 526 314 525 q 325 528 321 528 q 357 516 340 528 q 390 500 374 504 q 531 483 458 486 q 671 481 603 481 q 703 482 681 481 q 743 491 725 483 q 756 515 761 499 l 764 522 q 776 501 776 515 q 744 465 767 483 q 699 446 722 446 l 686 438 l 678 440 q 662 431 671 433 q 643 429 653 429 l 524 429 q 438 431 481 429 q 351 436 394 432 l 353 444 q 342 446 347 447 q 331 444 336 444 q 312 449 321 444 q 293 453 303 453 q 282 450 290 453 q 271 446 274 447 l 268 439 l 272 431 l 281 436 l 288 438 l 299 431 q 285 423 297 425 q 259 418 272 421 q 244 410 246 415 l 254 406 l 272 406 l 276 401 l 267 394 q 256 397 261 396 q 243 401 250 399 l 240 393 l 240 390 l 244 393 l 249 385 q 231 372 239 379 q 214 357 222 364 l 222 353 q 240 361 233 353 q 251 375 246 369 l 264 378 l 269 374 l 267 368 l 258 371 q 231 335 246 350 q 214 293 217 321 l 204 282 l 208 279 l 222 283 l 232 306 q 282 326 256 317 q 335 335 308 336 l 364 333 l 374 324 q 352 308 372 314 q 325 299 332 301 q 245 266 283 286 q 174 218 207 246 l 189 208 l 181 204 m 263 431 l 263 433 l 261 436 l 258 436 l 254 433 l 263 431 m 283 406 l 281 407 l 288 414 l 293 411 l 283 406 m 192 353 q 208 375 208 353 l 218 382 q 236 403 236 382 q 233 413 236 407 q 218 400 224 407 q 207 382 213 393 l 204 389 l 186 376 l 179 381 l 179 379 l 174 374 l 169 364 q 192 353 176 353 m 163 329 l 168 343 l 161 350 l 154 347 l 147 350 l 142 339 l 142 336 l 157 335 l 163 329 m 192 321 l 194 321 q 203 332 199 326 q 208 343 207 338 q 197 335 203 340 q 186 326 192 331 l 192 321 m 221 -31 q 155 -21 192 -31 q 84 8 118 -11 q 28 54 50 26 q 6 117 6 82 q 23 160 6 143 q 65 186 40 176 q 110 200 89 196 l 111 196 q 95 174 104 185 q 79 153 86 164 l 81 143 q 72 97 72 122 q 101 33 72 53 q 171 13 131 13 l 181 8 l 188 14 q 197 13 192 13 q 207 13 201 13 q 290 27 243 13 q 386 67 338 42 q 476 126 435 93 q 543 195 518 158 q 568 268 568 232 q 556 300 568 288 q 524 308 544 313 l 517 314 l 514 310 q 494 335 494 314 l 488 336 l 474 331 l 483 314 l 451 310 l 443 314 l 461 332 l 450 339 q 459 342 453 340 q 468 343 465 343 q 524 336 493 343 l 529 338 q 567 327 542 338 q 619 300 592 317 q 666 266 647 283 q 685 236 685 249 q 674 201 685 215 q 656 168 663 186 l 650 171 l 646 168 l 646 178 q 636 168 640 174 q 629 156 632 163 l 618 167 l 618 157 l 606 163 l 613 171 l 606 172 l 596 167 l 603 160 l 590 156 l 583 157 l 607 186 l 604 189 l 597 183 l 590 189 l 572 175 l 581 169 l 568 158 l 567 158 l 572 169 l 572 172 l 556 164 l 543 146 l 528 143 l 483 106 l 494 90 l 489 88 l 478 104 l 467 92 l 474 89 l 469 78 q 501 90 488 82 l 506 88 l 510 94 l 529 106 q 526 114 528 108 q 524 121 524 119 q 545 138 524 133 q 591 142 567 142 q 624 143 615 142 q 560 75 599 107 q 475 43 522 43 q 444 51 460 53 q 462 42 453 46 q 481 33 471 38 l 471 25 l 467 26 l 467 24 l 463 17 l 463 18 l 458 25 l 443 8 l 443 11 l 444 18 l 440 18 l 431 14 q 400 -1 415 -1 l 390 3 l 381 -12 q 301 -26 342 -22 q 221 -31 261 -31 m 386 315 l 381 321 l 381 328 l 393 340 l 410 336 l 426 342 l 435 338 l 431 333 l 439 329 l 440 324 l 438 321 l 413 329 q 399 323 406 328 q 386 315 393 318 m 485 322 q 479 329 479 322 l 479 331 l 485 331 l 488 322 l 485 322 m 406 311 l 407 322 l 417 319 q 406 311 414 311 m 183 308 l 192 313 l 181 318 l 183 308 m 144 292 l 160 306 l 156 313 l 142 296 l 144 292 m 131 286 l 135 297 l 121 290 l 131 286 m 628 268 l 632 272 l 624 275 l 622 269 l 628 268 m 614 211 l 619 215 l 618 218 l 610 214 l 614 211 m 596 190 l 611 190 q 628 207 618 201 l 615 206 l 610 199 l 607 203 l 596 190 m 585 175 l 581 181 l 589 181 l 588 176 l 585 175 m 592 146 l 590 149 q 592 149 592 149 q 594 150 593 150 l 596 149 l 596 146 l 592 146 m 549 126 l 558 128 l 550 131 l 549 126 m 557 114 l 544 122 l 539 121 l 532 117 l 539 115 l 543 118 l 557 114 m 422 63 l 429 65 l 444 82 q 418 65 428 78 l 422 63 m 482 31 l 500 40 l 501 39 l 501 36 l 482 31 z "},"6":{"ha":674,"x_min":-3,"x_max":676,"o":"m 206 -19 q 113 2 161 -19 q 31 62 64 24 q -3 150 -3 100 q 3 190 -3 168 q 32 213 10 211 l 26 225 q 65 270 39 246 q 119 317 90 294 q 167 354 147 340 l 169 361 q 321 444 242 410 q 483 499 400 479 l 492 493 l 501 500 q 552 508 526 504 q 604 511 578 511 q 626 510 615 511 q 649 507 638 508 l 676 482 l 676 478 l 669 463 q 642 479 667 476 q 607 482 618 482 q 459 455 528 482 q 322 389 390 428 l 318 390 l 310 381 l 310 378 l 292 364 l 279 368 l 285 361 l 265 356 l 267 349 l 254 346 l 257 354 l 250 356 l 239 340 l 218 331 l 233 322 q 208 292 226 308 q 176 269 190 276 l 172 261 l 165 256 l 154 260 l 147 250 l 154 240 q 137 228 147 238 q 119 213 126 218 q 109 176 119 193 q 88 144 99 160 q 78 107 78 128 q 95 65 78 81 q 138 42 113 49 q 185 35 163 35 q 273 49 219 35 q 380 90 326 64 q 469 151 433 115 q 506 229 506 188 q 495 257 506 246 q 467 268 485 268 q 408 253 442 268 q 340 215 374 239 q 285 164 307 192 q 263 108 263 136 q 269 92 263 99 q 283 81 275 85 l 286 74 l 278 69 q 227 99 251 81 q 203 147 203 117 q 219 196 203 179 q 257 222 235 213 q 301 239 279 232 q 333 258 322 246 q 388 289 357 285 q 449 293 418 293 q 512 281 474 293 q 581 247 550 269 q 611 194 611 225 q 610 166 611 181 q 597 140 608 151 l 596 154 l 594 156 l 593 154 l 590 144 q 558 115 572 136 q 528 93 544 93 l 514 88 l 503 97 l 481 79 l 479 81 l 481 93 l 478 99 l 469 94 l 467 101 q 478 111 472 106 q 490 119 483 117 l 486 121 q 436 93 453 117 l 415 89 l 401 79 l 394 83 l 388 76 l 393 67 l 375 60 l 379 53 l 371 47 l 363 49 l 360 31 l 367 29 l 379 40 l 389 36 l 394 46 l 414 54 l 417 54 q 427 49 426 54 q 431 38 428 43 q 446 32 433 32 q 410 22 431 22 q 401 23 406 22 q 390 25 396 24 l 385 19 q 339 10 360 17 l 339 7 l 333 1 q 290 -6 311 0 q 244 -19 268 -12 l 242 -10 q 226 -18 239 -17 q 206 -19 214 -19 m 268 367 l 285 381 l 276 381 l 264 372 l 268 367 m 513 104 l 519 106 q 533 122 526 114 q 550 133 540 129 l 550 135 q 553 133 550 133 l 561 139 l 557 149 l 547 149 q 540 140 543 144 q 533 129 536 135 q 508 107 518 125 l 513 104 m 449 57 l 436 58 l 433 64 l 444 69 l 442 75 q 454 92 443 83 l 463 89 q 451 78 451 88 q 451 61 450 69 l 449 57 m 426 58 l 417 65 l 418 69 l 428 69 l 426 58 m 451 42 l 438 50 l 464 56 l 467 54 l 451 42 m 325 15 l 329 24 l 325 24 l 313 18 l 325 15 m 289 -1 l 294 0 l 306 7 l 314 6 l 300 14 l 283 6 l 289 -1 z "},"7":{"ha":590,"x_min":56,"x_max":689,"o":"m 231 -19 q 194 -4 211 -19 q 165 32 176 11 q 154 71 154 53 q 171 129 154 93 q 211 198 188 165 q 254 240 235 231 l 258 239 q 286 256 272 247 q 310 279 300 265 l 299 283 l 300 283 l 297 290 l 301 290 l 307 289 l 307 288 l 300 283 l 310 279 q 313 287 311 282 q 314 294 314 292 l 328 290 q 362 319 343 306 q 401 340 381 332 q 413 349 407 344 q 424 356 418 353 l 428 351 l 431 363 l 442 360 l 449 363 l 440 369 l 432 374 l 424 371 l 424 372 l 440 381 l 447 376 l 447 369 l 450 368 l 461 379 l 457 381 l 449 381 l 436 390 q 456 404 438 396 q 497 421 475 413 q 524 432 518 429 l 513 436 l 524 444 q 406 449 464 447 q 288 450 347 450 q 237 449 269 450 q 172 441 204 447 q 116 419 139 435 q 93 376 93 404 q 104 348 93 354 q 125 326 115 342 l 117 322 q 72 358 89 336 q 56 411 56 379 q 76 466 56 451 q 125 499 96 481 q 175 505 151 501 q 224 506 199 508 l 236 511 l 250 506 l 261 514 l 272 506 l 274 515 l 279 517 l 286 507 q 297 510 292 508 q 308 511 303 513 l 311 511 l 307 506 q 291 503 299 504 q 274 500 283 503 l 294 499 l 299 493 l 303 493 l 301 501 l 318 496 l 324 500 l 315 507 l 324 511 l 339 511 l 347 506 l 353 510 l 407 506 l 408 500 l 418 506 l 436 500 q 476 500 456 501 q 517 493 497 499 l 518 499 q 541 497 529 497 q 564 496 553 496 q 617 501 592 496 q 667 518 643 506 l 675 506 q 661 488 671 497 q 676 469 668 478 q 689 449 683 460 q 679 435 689 442 q 665 422 669 429 q 644 410 654 417 q 622 397 633 404 l 603 400 q 546 381 576 381 q 529 372 538 372 q 511 368 521 372 q 488 343 501 364 q 469 340 478 343 q 451 332 460 336 q 433 315 443 324 q 411 306 424 307 l 400 307 q 378 290 390 299 q 356 272 367 282 q 335 250 338 268 l 311 235 q 299 210 311 221 l 289 217 l 274 199 l 283 200 l 278 183 l 271 183 l 265 193 l 269 178 q 251 157 257 169 l 244 158 l 238 156 l 243 149 q 234 134 238 142 q 228 118 231 126 l 222 118 l 218 114 l 235 107 q 219 85 232 97 l 213 92 l 207 83 l 207 81 l 221 78 l 221 74 l 211 57 l 218 51 l 219 51 l 243 93 l 249 96 q 267 120 257 108 q 289 139 276 132 l 294 133 q 274 102 282 114 q 261 77 265 90 q 257 38 257 64 q 260 12 257 24 q 274 -8 264 0 l 274 -12 l 264 -19 l 240 -11 l 242 -18 q 231 -19 238 -19 m 233 492 l 236 494 l 232 501 l 224 506 l 213 506 l 208 499 l 213 494 l 226 497 l 233 492 m 261 493 l 267 503 l 236 503 l 250 501 l 261 496 l 261 493 m 522 404 l 532 406 l 526 413 l 522 407 l 522 404 m 471 383 l 479 389 l 476 393 l 471 386 l 471 383 m 388 342 l 382 343 l 404 364 l 403 360 l 408 357 l 417 361 l 421 356 q 393 346 408 356 l 388 342 m 350 318 l 365 339 l 374 342 l 379 333 q 364 329 371 333 q 350 318 357 325 m 336 304 l 336 306 l 339 313 l 344 314 l 336 304 m 314 301 l 319 310 l 325 306 l 318 301 l 314 301 m 261 249 q 276 268 268 260 l 279 267 l 276 260 l 261 249 m 257 168 l 263 174 l 258 179 l 257 168 z "},"8":{"ha":618,"x_min":6,"x_max":640,"o":"m 196 -54 q 105 -35 149 -54 q 33 22 61 -15 q 6 110 6 58 q 12 141 6 125 q 25 171 18 157 l 36 178 q 72 216 47 196 q 129 255 97 236 q 192 288 161 274 q 243 306 222 301 l 254 317 l 257 315 l 274 326 l 272 331 q 228 353 253 342 q 185 381 203 364 q 167 426 167 399 q 189 465 167 449 q 244 492 211 481 q 308 510 276 504 q 356 518 339 517 l 365 514 l 388 521 l 406 515 l 406 521 q 532 517 471 517 l 533 511 l 521 504 l 514 506 q 508 505 511 506 q 501 504 504 504 q 489 505 496 504 q 475 506 482 506 q 450 499 463 501 q 426 490 438 497 q 396 487 411 490 q 367 478 381 483 l 347 485 l 344 485 l 340 479 l 340 474 l 332 479 l 313 467 l 308 457 l 299 453 l 289 458 l 278 443 l 268 443 l 256 432 l 244 438 l 238 424 q 258 376 238 396 q 303 346 279 357 l 325 357 l 331 356 l 331 357 l 336 361 l 346 358 l 358 371 l 356 376 q 367 383 361 379 q 379 390 372 388 l 389 388 l 394 392 l 406 389 l 400 393 l 418 407 l 422 406 l 442 415 l 435 421 l 454 425 l 464 432 l 464 436 l 475 446 l 479 443 q 515 475 492 461 q 556 505 538 489 q 575 546 575 521 q 565 563 575 558 q 544 572 554 568 q 533 581 535 575 l 542 586 q 584 558 561 578 q 624 516 607 539 q 640 469 640 493 q 626 447 640 458 q 596 426 613 435 q 568 414 579 417 q 558 405 565 408 q 543 399 550 401 l 539 401 l 531 394 q 499 385 515 389 q 465 382 482 382 l 463 385 l 456 386 q 428 360 446 364 q 393 344 411 357 l 406 343 l 404 342 q 354 322 379 336 q 419 285 381 310 q 488 231 457 261 q 518 167 518 200 q 515 142 518 160 q 506 109 511 125 q 496 88 501 93 l 494 92 l 497 114 q 480 99 485 113 q 474 70 475 86 q 472 44 474 54 l 457 33 l 450 42 l 443 31 l 438 33 l 431 29 l 422 32 l 413 26 q 402 33 407 29 q 392 38 397 36 l 383 31 l 397 21 l 401 22 l 403 15 q 393 10 394 13 l 369 17 l 353 13 l 354 4 l 344 -6 q 318 -18 328 -6 q 288 -31 308 -31 l 272 -39 l 264 -36 l 251 -37 q 228 -47 246 -46 q 199 -54 210 -47 l 196 -54 m 442 426 l 442 429 l 447 431 l 449 428 l 442 426 m 543 410 l 546 415 l 546 418 l 543 419 l 532 414 l 539 413 l 543 410 m 421 394 l 425 399 l 422 400 l 418 396 l 421 394 m 346 328 l 360 333 l 361 338 q 353 333 357 336 q 346 328 349 331 m 131 13 q 149 14 140 13 q 168 17 158 15 l 171 14 l 175 18 l 181 18 l 219 26 l 226 22 l 232 26 l 243 24 l 260 33 l 264 28 l 272 36 l 281 29 l 290 39 q 296 50 290 49 q 304 58 301 51 l 311 56 l 314 60 l 301 63 l 310 67 l 318 60 q 330 69 324 65 q 343 79 336 74 l 342 86 l 346 83 q 357 89 351 88 q 368 92 363 90 l 381 99 l 381 111 l 385 118 l 390 117 q 418 150 410 136 q 426 192 426 164 q 408 242 426 219 q 365 282 390 265 q 318 307 340 299 q 274 279 296 293 q 231 250 251 265 l 226 239 q 200 224 210 239 q 175 207 190 210 l 168 215 l 156 218 l 149 213 l 150 207 l 160 200 l 149 197 l 156 188 l 144 183 l 142 183 q 93 133 110 167 q 76 65 76 100 q 131 13 76 13 m 358 94 l 354 100 l 368 106 l 376 100 l 371 100 l 363 94 l 358 94 m 329 53 l 331 60 l 324 61 l 324 58 l 329 53 m 292 -7 l 299 0 l 307 -3 l 311 6 l 319 -1 l 324 4 l 329 1 l 339 14 q 315 28 326 26 l 317 24 q 310 22 314 22 q 304 18 306 21 l 306 15 l 317 14 q 285 -4 297 7 l 292 -7 m 418 13 l 408 19 l 429 24 l 431 22 l 418 13 m 329 10 l 322 13 l 331 15 l 329 10 m 256 -7 l 264 -4 l 274 -6 l 268 0 l 261 3 l 256 -7 m 235 -15 l 243 -14 l 249 -10 l 236 -10 l 232 -14 l 235 -15 z "},"9":{"ha":581,"x_min":6,"x_max":588,"o":"m 136 168 q 38 197 71 168 q 6 292 6 225 q 8 313 6 303 q 15 333 11 324 l 26 336 l 24 346 l 29 351 l 31 351 q 68 394 46 376 q 114 431 90 413 l 122 431 l 133 428 l 142 444 l 151 443 l 158 456 q 199 481 179 467 q 243 499 219 496 l 254 510 l 265 507 l 275 515 q 375 544 326 526 q 476 561 424 561 q 515 558 493 561 q 556 547 538 556 q 578 518 574 538 l 568 506 q 531 524 550 517 q 490 531 511 531 q 313 491 397 531 q 160 392 229 451 q 121 354 144 378 q 79 304 97 331 q 61 256 61 278 q 74 230 61 238 q 105 221 88 222 q 135 219 122 219 q 147 223 138 219 q 161 228 157 226 l 168 226 q 224 242 189 226 q 281 268 260 258 l 285 264 l 294 274 q 311 269 304 274 q 318 253 318 264 l 311 243 l 306 246 q 294 234 297 242 q 281 222 290 226 l 268 231 l 258 217 l 258 208 q 217 197 238 203 q 174 190 196 190 q 158 175 169 182 q 136 168 146 168 m 318 -85 q 277 -69 296 -85 q 258 -31 258 -53 q 288 84 258 25 q 347 186 317 143 l 344 203 q 356 210 351 206 q 364 221 360 215 l 361 231 l 368 232 l 389 275 l 379 296 l 385 318 l 400 326 l 392 338 l 399 349 l 406 354 l 403 357 q 429 406 415 382 q 450 457 443 431 q 493 457 472 454 q 526 443 504 451 q 568 424 549 435 q 588 399 588 414 q 572 363 588 381 q 542 335 556 344 l 535 336 q 524 324 526 333 q 521 307 522 315 l 496 304 l 496 285 l 493 279 l 485 283 l 476 274 l 474 275 q 483 294 478 285 q 493 313 488 303 l 489 317 l 472 304 l 475 300 l 460 288 l 454 293 l 460 297 l 456 304 l 447 296 l 450 292 q 438 288 444 290 q 429 282 432 286 l 431 274 l 443 276 l 451 285 l 451 281 q 454 269 451 275 l 443 261 l 444 253 l 440 254 l 425 243 l 425 239 l 431 222 l 426 218 l 440 211 l 426 181 l 410 168 l 407 169 l 399 163 l 408 149 l 406 147 l 399 149 l 394 138 l 397 117 l 383 104 q 376 85 383 96 q 360 85 368 75 l 354 76 l 356 71 l 363 76 q 321 -12 333 38 q 300 -35 310 -19 q 305 -49 303 -42 q 310 -62 307 -56 l 318 -67 l 331 -61 l 335 -62 q 343 -56 338 -60 q 353 -53 349 -53 l 354 -56 l 343 -76 q 331 -81 342 -78 q 318 -85 319 -85 m 464 438 l 472 443 l 468 443 l 460 442 l 464 438 m 56 326 l 72 338 l 68 347 q 53 331 54 343 l 56 326 m 371 308 l 354 314 l 390 340 l 371 308 m 44 297 l 46 301 l 54 308 l 50 315 l 40 306 l 44 297 m 357 281 q 363 306 357 294 l 368 304 l 375 290 l 357 281 m 335 268 l 340 293 l 356 306 q 335 268 356 279 m 325 267 l 322 275 l 326 286 l 333 292 l 325 267 m 308 274 q 310 279 308 276 q 314 285 313 282 l 317 278 l 308 274 m 446 226 q 453 250 449 238 q 465 269 457 263 l 468 261 l 471 267 l 481 261 l 471 256 l 482 246 l 472 240 l 465 243 l 457 243 l 465 233 l 446 226 z "},"\r":{"ha":0,"x_min":0,"x_max":0,"o":""}," ":{"ha":238,"x_min":0,"x_max":0,"o":""}," ":{"ha":238,"x_min":0,"x_max":0,"o":""},"A":{"ha":754,"x_min":-186,"x_max":867,"o":"m -162 -178 q -178 -156 -176 -171 q -186 -129 -179 -140 l -171 -78 l -154 -89 l -151 -89 l -137 -76 l -126 -75 l -118 -68 q 29 -17 -42 -49 l 32 -17 q 7 -43 22 -28 q -22 -65 -8 -58 l -29 -78 l -21 -82 q 30 -61 -4 -82 q 106 -8 64 -40 q 189 59 147 24 q 263 124 231 94 q 311 168 296 153 q 274 158 293 164 q 236 150 256 153 q 221 131 229 143 q 200 118 213 118 q 169 126 186 118 q 151 151 151 133 q 169 185 151 165 q 200 204 186 204 l 203 196 q 236 194 219 194 q 269 193 253 193 l 283 197 l 296 193 q 322 204 307 203 q 350 206 336 206 q 410 265 372 228 q 488 347 447 303 q 558 431 528 390 q 599 497 589 471 l 601 501 l 603 500 q 628 558 621 526 q 646 618 635 590 l 646 617 q 650 626 647 619 q 653 636 653 633 q 640 676 653 658 q 651 697 640 685 q 676 717 663 708 q 699 726 690 726 q 706 724 706 726 l 707 689 q 694 603 710 638 q 658 524 679 568 l 658 526 q 640 493 647 511 q 624 457 633 475 q 547 353 592 401 q 461 257 503 306 l 460 257 q 436 240 449 257 q 418 213 424 222 l 414 213 l 403 206 l 403 204 q 493 212 447 207 q 585 218 539 217 l 607 254 l 606 269 l 618 283 q 640 363 626 324 q 668 442 653 403 l 668 447 q 681 481 672 456 q 697 529 689 507 q 708 551 704 551 q 715 583 711 561 q 727 625 719 606 q 746 644 735 644 q 797 626 771 633 q 846 607 822 618 l 858 588 q 849 560 854 574 q 839 532 844 546 l 831 542 l 824 535 q 793 547 811 546 q 781 537 786 544 q 772 521 775 529 q 790 519 781 519 q 808 519 799 519 l 825 519 q 814 509 824 513 q 797 503 804 506 l 788 511 l 776 497 l 768 501 q 757 481 768 486 l 743 472 l 738 457 l 756 447 l 751 429 l 742 424 l 735 425 q 718 391 729 417 q 697 335 707 365 q 678 278 686 304 q 671 243 671 253 l 671 236 l 690 236 q 774 243 732 236 q 857 254 815 250 l 863 257 l 867 254 q 833 228 858 233 q 774 219 807 222 q 710 204 742 215 q 658 162 679 193 q 638 68 638 131 l 638 61 l 639 63 l 656 69 q 650 20 651 44 q 649 -28 649 -4 l 649 -83 l 640 -94 q 626 -92 633 -93 q 613 -92 619 -92 q 600 -92 607 -92 q 586 -94 593 -93 q 573 -90 581 -92 q 557 -90 565 -87 q 529 -79 544 -86 l 522 -47 q 535 -25 535 -40 l 531 -17 q 546 51 538 18 q 563 118 554 85 q 569 135 567 126 q 572 151 572 143 l 581 163 l 583 174 l 578 192 l 531 193 q 510 181 531 188 q 466 167 489 174 q 436 157 443 161 q 424 149 431 154 q 408 146 417 144 l 393 147 l 388 160 l 381 156 l 356 156 l 342 144 l 343 144 l 329 131 l 326 131 l 294 106 l 296 104 q 199 22 254 65 q 81 -63 143 -22 q -44 -135 18 -104 q -162 -178 -107 -165 m 801 564 l 803 568 l 800 568 l 797 565 l 801 564 m 785 444 l 779 446 l 789 460 l 793 446 l 785 444 m 731 431 l 738 440 l 736 444 l 722 435 l 731 431 m 53 -7 l 56 1 l 60 0 l 61 -6 l 60 -7 l 53 -7 z "},"Æ":{"ha":1249,"x_min":-186,"x_max":1494,"o":"m -162 -178 q -178 -156 -176 -171 q -186 -129 -179 -140 l -171 -78 l -154 -89 l -151 -89 l -137 -76 l -126 -75 l -118 -68 q 29 -17 -42 -49 l 32 -17 q 7 -43 22 -28 q -22 -65 -8 -58 l -29 -78 l -21 -82 q 30 -61 -4 -82 q 106 -8 64 -40 q 189 59 147 24 q 263 124 231 94 q 311 168 296 153 q 274 158 293 164 q 236 150 256 153 q 221 131 229 143 q 200 118 213 118 q 169 126 186 118 q 151 151 151 133 q 169 185 151 165 q 200 204 186 204 l 203 196 q 236 194 219 194 q 269 193 253 193 l 283 197 l 296 193 q 322 204 307 203 q 350 206 336 206 q 410 265 372 228 q 488 347 447 303 q 558 431 528 390 q 599 497 589 471 l 601 501 l 603 500 q 628 558 621 526 q 646 618 635 590 l 646 617 q 650 626 647 619 q 653 636 653 633 q 640 676 653 658 q 651 697 640 685 q 676 717 663 708 q 699 726 690 726 q 706 724 706 726 l 707 689 q 694 603 710 638 q 658 524 679 568 l 658 526 q 640 493 647 511 q 624 457 633 475 q 547 353 592 401 q 461 257 503 306 l 460 257 q 436 240 449 257 q 418 213 424 222 l 414 213 l 403 206 l 403 204 q 493 212 447 207 q 585 218 539 217 l 607 254 l 606 269 l 618 283 q 640 363 626 324 q 668 442 653 403 l 668 447 q 681 481 672 456 q 697 529 689 507 q 708 551 704 551 q 715 583 711 561 q 727 625 719 606 q 746 644 735 644 q 797 626 771 633 q 846 607 822 618 l 858 588 q 849 560 854 574 q 839 532 844 546 l 831 542 l 824 535 q 793 547 811 546 q 781 537 786 544 q 772 521 775 529 q 790 519 781 519 q 808 519 799 519 l 825 519 q 814 509 824 513 q 797 503 804 506 l 788 511 l 776 497 l 768 501 q 757 481 768 486 l 743 472 l 738 457 l 756 447 l 751 429 l 742 424 l 735 425 q 724 406 731 419 q 760 424 746 424 q 773 434 774 424 q 776 454 772 444 q 806 464 781 464 q 824 472 817 464 q 833 490 832 481 l 844 497 l 850 493 q 874 502 864 493 q 890 522 885 511 l 904 517 q 967 548 938 525 q 1031 576 996 571 l 1042 586 q 1092 599 1067 593 q 1143 601 1117 604 q 1173 613 1158 607 q 1204 618 1188 618 q 1263 607 1235 618 q 1322 596 1292 596 q 1338 607 1335 596 q 1340 626 1340 618 q 1340 648 1340 638 q 1332 668 1339 658 l 1339 672 q 1371 667 1347 672 q 1422 652 1394 661 q 1471 634 1450 643 q 1494 618 1492 625 l 1489 593 l 1457 581 l 1444 586 q 1431 570 1432 583 q 1430 546 1431 557 q 1418 535 1429 535 q 1413 535 1417 535 q 1406 538 1410 536 l 1404 535 l 1417 513 l 1414 507 l 1417 500 l 1414 496 l 1401 501 l 1396 499 l 1397 492 q 1392 472 1393 485 q 1385 448 1390 458 q 1368 438 1381 438 q 1327 393 1349 419 q 1275 364 1306 367 l 1275 365 l 1281 400 l 1275 410 q 1290 463 1278 436 q 1304 518 1303 490 l 1318 533 q 1321 545 1318 538 q 1324 556 1324 553 q 1322 569 1324 563 q 1319 581 1321 575 q 1297 593 1311 590 q 1269 596 1283 596 q 1172 578 1228 596 q 1057 529 1117 560 q 942 461 997 499 q 842 384 886 424 q 775 308 799 344 q 830 308 803 310 q 883 307 857 307 q 985 313 935 307 q 1088 318 1036 318 q 1214 314 1150 318 l 1222 307 l 1204 301 q 1193 296 1199 299 q 1182 293 1188 293 q 1163 297 1172 293 q 1143 301 1153 301 q 1119 294 1129 301 q 1094 288 1108 288 q 1069 291 1082 288 q 1043 296 1057 294 l 1032 290 l 1033 282 l 1029 279 l 1006 285 l 988 274 l 981 283 l 972 283 q 917 273 943 283 q 864 251 890 263 q 808 240 838 240 l 804 240 l 786 247 q 772 238 776 247 q 768 219 768 228 l 753 236 l 742 221 l 733 222 q 719 176 725 200 q 713 129 713 153 q 751 50 713 71 q 842 29 790 29 q 951 42 897 29 q 1057 75 1006 56 q 1083 78 1071 75 q 1106 88 1096 82 l 1106 90 q 1132 96 1115 96 l 1139 92 l 1143 96 l 1143 101 l 1163 106 l 1181 119 l 1190 101 l 1182 106 l 1175 92 l 1176 89 q 1090 25 1142 56 q 981 -24 1038 -6 q 875 -40 925 -42 l 876 -44 l 869 -50 l 856 -40 l 843 -39 l 831 -33 l 813 -39 q 776 -18 801 -15 q 703 31 739 1 q 644 97 668 60 l 638 61 l 639 63 l 656 69 q 650 20 651 44 q 649 -28 649 -4 l 649 -83 l 640 -94 q 626 -92 633 -93 q 613 -92 619 -92 q 600 -92 607 -92 q 586 -94 593 -93 q 573 -90 581 -92 q 557 -90 565 -87 q 529 -79 544 -86 l 522 -47 q 535 -25 535 -40 l 531 -17 q 546 51 538 18 q 563 118 554 85 q 569 135 567 126 q 572 151 572 143 l 581 163 l 583 174 l 578 192 l 531 193 q 510 181 531 188 q 466 167 489 174 q 436 157 443 161 q 424 149 431 154 q 408 146 417 144 l 393 147 l 388 160 l 381 156 l 356 156 l 342 144 l 343 144 l 329 131 l 326 131 l 294 106 l 296 104 q 199 22 254 65 q 81 -63 143 -22 q -44 -135 18 -104 q -162 -178 -107 -165 m 801 564 l 803 568 l 800 568 l 797 565 l 801 564 m 785 444 l 793 446 l 789 460 l 779 446 l 785 444 m 731 431 l 738 440 l 736 444 l 722 435 l 731 431 m 1233 304 l 1231 306 l 1232 311 l 1243 306 l 1233 304 m 1258 146 l 1253 151 l 1253 154 q 1278 163 1264 161 q 1258 146 1269 153 m 1200 104 l 1193 110 q 1198 124 1193 118 q 1211 126 1203 129 l 1206 129 q 1233 142 1224 132 l 1247 142 l 1222 114 l 1222 113 l 1217 114 l 1210 106 l 1200 104 m 53 -7 l 56 1 l 60 0 l 61 -6 l 60 -7 l 53 -7 z "},"Ǽ":{"ha":1249,"x_min":-186,"x_max":1494,"o":"m -162 -178 q -178 -156 -176 -171 q -186 -129 -179 -140 l -171 -78 l -154 -89 l -151 -89 l -137 -76 l -126 -75 l -118 -68 q 29 -17 -42 -49 l 32 -17 q 7 -43 22 -28 q -22 -65 -8 -58 l -29 -78 l -21 -82 q 30 -61 -4 -82 q 106 -8 64 -40 q 189 59 147 24 q 263 124 231 94 q 311 168 296 153 q 274 158 293 164 q 236 150 256 153 q 221 131 229 143 q 200 118 213 118 q 169 126 186 118 q 151 151 151 133 q 169 185 151 165 q 200 204 186 204 l 203 196 q 236 194 219 194 q 269 193 253 193 l 283 197 l 296 193 q 322 204 307 203 q 350 206 336 206 q 410 265 372 228 q 488 347 447 303 q 558 431 528 390 q 599 497 589 471 l 601 501 l 603 500 q 628 558 621 526 q 646 618 635 590 l 646 617 q 650 626 647 619 q 653 636 653 633 q 640 676 653 658 q 651 697 640 685 q 676 717 663 708 q 699 726 690 726 q 706 724 706 726 l 707 689 q 694 603 710 638 q 658 524 679 568 l 658 526 q 640 493 647 511 q 624 457 633 475 q 547 353 592 401 q 461 257 503 306 l 460 257 q 436 240 449 257 q 418 213 424 222 l 414 213 l 403 206 l 403 204 q 493 212 447 207 q 585 218 539 217 l 607 254 l 606 269 l 618 283 q 640 363 626 324 q 668 442 653 403 l 668 447 q 681 481 672 456 q 697 529 689 507 q 708 551 704 551 q 715 583 711 561 q 727 625 719 606 q 746 644 735 644 q 797 626 771 633 q 846 607 822 618 l 858 588 q 849 560 854 574 q 839 532 844 546 l 831 542 l 824 535 q 793 547 811 546 q 781 537 786 544 q 772 521 775 529 q 790 519 781 519 q 808 519 799 519 l 825 519 q 814 509 824 513 q 797 503 804 506 l 788 511 l 776 497 l 768 501 q 757 481 768 486 l 743 472 l 738 457 l 756 447 l 751 429 l 742 424 l 735 425 q 724 406 731 419 q 760 424 746 424 q 773 434 774 424 q 776 454 772 444 q 806 464 781 464 q 824 472 817 464 q 833 490 832 481 l 844 497 l 850 493 q 874 502 864 493 q 890 522 885 511 l 904 517 q 967 548 938 525 q 1031 576 996 571 l 1042 586 q 1092 599 1067 593 q 1143 601 1117 604 q 1173 613 1158 607 q 1204 618 1188 618 q 1263 607 1235 618 q 1322 596 1292 596 q 1338 607 1335 596 q 1340 626 1340 618 q 1340 648 1340 638 q 1332 668 1339 658 l 1339 672 q 1371 667 1347 672 q 1422 652 1394 661 q 1471 634 1450 643 q 1494 618 1492 625 l 1489 593 l 1457 581 l 1444 586 q 1431 570 1432 583 q 1430 546 1431 557 q 1418 535 1429 535 q 1413 535 1417 535 q 1406 538 1410 536 l 1404 535 l 1417 513 l 1414 507 l 1417 500 l 1414 496 l 1401 501 l 1396 499 l 1397 492 q 1392 472 1393 485 q 1385 448 1390 458 q 1368 438 1381 438 q 1327 393 1349 419 q 1275 364 1306 367 l 1275 365 l 1281 400 l 1275 410 q 1290 463 1278 436 q 1304 518 1303 490 l 1318 533 q 1321 545 1318 538 q 1324 556 1324 553 q 1322 569 1324 563 q 1319 581 1321 575 q 1297 593 1311 590 q 1269 596 1283 596 q 1172 578 1228 596 q 1057 529 1117 560 q 942 461 997 499 q 842 384 886 424 q 775 308 799 344 q 830 308 803 310 q 883 307 857 307 q 985 313 935 307 q 1088 318 1036 318 q 1214 314 1150 318 l 1222 307 l 1204 301 q 1193 296 1199 299 q 1182 293 1188 293 q 1163 297 1172 293 q 1143 301 1153 301 q 1119 294 1129 301 q 1094 288 1108 288 q 1069 291 1082 288 q 1043 296 1057 294 l 1032 290 l 1033 282 l 1029 279 l 1006 285 l 988 274 l 981 283 l 972 283 q 917 273 943 283 q 864 251 890 263 q 808 240 838 240 l 804 240 l 786 247 q 772 238 776 247 q 768 219 768 228 l 753 236 l 742 221 l 733 222 q 719 176 725 200 q 713 129 713 153 q 751 50 713 71 q 842 29 790 29 q 951 42 897 29 q 1057 75 1006 56 q 1083 78 1071 75 q 1106 88 1096 82 l 1106 90 q 1132 96 1115 96 l 1139 92 l 1143 96 l 1143 101 l 1163 106 l 1181 119 l 1190 101 l 1182 106 l 1175 92 l 1176 89 q 1090 25 1142 56 q 981 -24 1038 -6 q 875 -40 925 -42 l 876 -44 l 869 -50 l 856 -40 l 843 -39 l 831 -33 l 813 -39 q 776 -18 801 -15 q 703 31 739 1 q 644 97 668 60 l 638 61 l 639 63 l 656 69 q 650 20 651 44 q 649 -28 649 -4 l 649 -83 l 640 -94 q 626 -92 633 -93 q 613 -92 619 -92 q 600 -92 607 -92 q 586 -94 593 -93 q 573 -90 581 -92 q 557 -90 565 -87 q 529 -79 544 -86 l 522 -47 q 535 -25 535 -40 l 531 -17 q 546 51 538 18 q 563 118 554 85 q 569 135 567 126 q 572 151 572 143 l 581 163 l 583 174 l 578 192 l 531 193 q 510 181 531 188 q 466 167 489 174 q 436 157 443 161 q 424 149 431 154 q 408 146 417 144 l 393 147 l 388 160 l 381 156 l 356 156 l 342 144 l 343 144 l 329 131 l 326 131 l 294 106 l 296 104 q 199 22 254 65 q 81 -63 143 -22 q -44 -135 18 -104 q -162 -178 -107 -165 m 801 564 l 803 568 l 800 568 l 797 565 l 801 564 m 785 444 l 793 446 l 789 460 l 779 446 l 785 444 m 731 431 l 738 440 l 736 444 l 722 435 l 731 431 m 1233 304 l 1231 306 l 1232 311 l 1243 306 l 1233 304 m 1258 146 l 1253 151 l 1253 154 q 1278 163 1264 161 q 1258 146 1269 153 m 1200 104 l 1193 110 q 1198 124 1193 118 q 1211 126 1203 129 l 1206 129 q 1233 142 1224 132 l 1247 142 l 1222 114 l 1222 113 l 1217 114 l 1210 106 l 1200 104 m 53 -7 l 56 1 l 60 0 l 61 -6 l 60 -7 l 53 -7 m 946 736 l 942 736 q 931 741 935 736 q 929 747 926 746 q 947 761 939 754 q 963 775 954 768 l 999 810 l 1013 825 l 1014 824 l 1018 828 q 1024 829 1022 828 l 1067 869 l 1068 868 l 1069 869 q 1074 872 1069 872 l 1082 871 q 1083 876 1085 871 q 1085 883 1082 882 q 1090 885 1086 885 q 1101 881 1096 885 q 1111 874 1106 876 l 1124 864 q 1127 862 1125 863 q 1129 858 1129 861 l 1132 857 l 1135 857 l 1133 853 l 1132 842 l 1117 832 l 1104 826 l 1094 824 q 1087 819 1086 822 q 1082 813 1088 817 l 1071 807 q 1065 808 1069 806 l 1038 781 l 1015 771 q 1007 771 1010 769 q 1001 769 1004 772 q 993 763 996 768 q 986 758 990 757 q 966 749 975 757 q 946 736 957 740 z "},"Á":{"ha":754,"x_min":-186,"x_max":914,"o":"m -162 -178 q -178 -156 -176 -171 q -186 -129 -179 -140 l -171 -78 l -154 -89 l -151 -89 l -137 -76 l -126 -75 l -118 -68 q 29 -17 -42 -49 l 32 -17 q 7 -43 22 -28 q -22 -65 -8 -58 l -29 -78 l -21 -82 q 30 -61 -4 -82 q 106 -8 64 -40 q 189 59 147 24 q 263 124 231 94 q 311 168 296 153 q 274 158 293 164 q 236 150 256 153 q 221 131 229 143 q 200 118 213 118 q 169 126 186 118 q 151 151 151 133 q 169 185 151 165 q 200 204 186 204 l 203 196 q 236 194 219 194 q 269 193 253 193 l 283 197 l 296 193 q 322 204 307 203 q 350 206 336 206 q 410 265 372 228 q 488 347 447 303 q 558 431 528 390 q 599 497 589 471 l 601 501 l 603 500 q 628 558 621 526 q 646 618 635 590 l 646 617 q 650 626 647 619 q 653 636 653 633 q 640 676 653 658 q 651 697 640 685 q 676 717 663 708 q 699 726 690 726 q 706 724 706 726 l 707 689 q 694 603 710 638 q 658 524 679 568 l 658 526 q 640 493 647 511 q 624 457 633 475 q 547 353 592 401 q 461 257 503 306 l 460 257 q 436 240 449 257 q 418 213 424 222 l 414 213 l 403 206 l 403 204 q 493 212 447 207 q 585 218 539 217 l 607 254 l 606 269 l 618 283 q 640 363 626 324 q 668 442 653 403 l 668 447 q 681 481 672 456 q 697 529 689 507 q 708 551 704 551 q 715 583 711 561 q 727 625 719 606 q 746 644 735 644 q 797 626 771 633 q 846 607 822 618 l 858 588 q 849 560 854 574 q 839 532 844 546 l 831 542 l 824 535 q 793 547 811 546 q 781 537 786 544 q 772 521 775 529 q 790 519 781 519 q 808 519 799 519 l 825 519 q 814 509 824 513 q 797 503 804 506 l 788 511 l 776 497 l 768 501 q 757 481 768 486 l 743 472 l 738 457 l 756 447 l 751 429 l 742 424 l 735 425 q 718 391 729 417 q 697 335 707 365 q 678 278 686 304 q 671 243 671 253 l 671 236 l 690 236 q 774 243 732 236 q 857 254 815 250 l 863 257 l 867 254 q 833 228 858 233 q 774 219 807 222 q 710 204 742 215 q 658 162 679 193 q 638 68 638 131 l 638 61 l 639 63 l 656 69 q 650 20 651 44 q 649 -28 649 -4 l 649 -83 l 640 -94 q 626 -92 633 -93 q 613 -92 619 -92 q 600 -92 607 -92 q 586 -94 593 -93 q 573 -90 581 -92 q 557 -90 565 -87 q 529 -79 544 -86 l 522 -47 q 535 -25 535 -40 l 531 -17 q 546 51 538 18 q 563 118 554 85 q 569 135 567 126 q 572 151 572 143 l 581 163 l 583 174 l 578 192 l 531 193 q 510 181 531 188 q 466 167 489 174 q 436 157 443 161 q 424 149 431 154 q 408 146 417 144 l 393 147 l 388 160 l 381 156 l 356 156 l 342 144 l 343 144 l 329 131 l 326 131 l 294 106 l 296 104 q 199 22 254 65 q 81 -63 143 -22 q -44 -135 18 -104 q -162 -178 -107 -165 m 801 564 l 803 568 l 800 568 l 797 565 l 801 564 m 785 444 l 779 446 l 789 460 l 793 446 l 785 444 m 731 431 l 738 440 l 736 444 l 722 435 l 731 431 m 53 -7 l 56 1 l 60 0 l 61 -6 l 60 -7 l 53 -7 m 725 775 l 721 775 q 710 780 714 775 q 708 786 706 785 q 726 800 718 793 q 742 814 733 807 l 778 849 l 792 864 l 793 863 l 797 867 q 803 868 801 867 l 846 908 l 847 907 l 849 908 q 853 911 849 911 l 861 910 q 863 915 864 910 q 864 922 861 921 q 869 924 865 924 q 880 919 875 924 q 890 913 885 915 l 903 903 q 906 901 904 901 q 908 897 908 900 l 911 896 l 914 896 l 913 892 l 911 881 l 896 871 l 883 865 l 874 863 q 866 858 865 861 q 861 851 867 856 l 850 846 q 844 847 849 844 l 817 819 l 794 810 q 786 810 789 808 q 781 808 783 811 q 772 801 775 807 q 765 797 769 796 q 745 788 754 796 q 725 775 736 779 z "},"Ă":{"ha":754,"x_min":-186,"x_max":988,"o":"m -162 -178 q -178 -156 -176 -171 q -186 -129 -179 -140 l -171 -78 l -154 -89 l -151 -89 l -137 -76 l -126 -75 l -118 -68 q 29 -17 -42 -49 l 32 -17 q 7 -43 22 -28 q -22 -65 -8 -58 l -29 -78 l -21 -82 q 30 -61 -4 -82 q 106 -8 64 -40 q 189 59 147 24 q 263 124 231 94 q 311 168 296 153 q 274 158 293 164 q 236 150 256 153 q 221 131 229 143 q 200 118 213 118 q 169 126 186 118 q 151 151 151 133 q 169 185 151 165 q 200 204 186 204 l 203 196 q 236 194 219 194 q 269 193 253 193 l 283 197 l 296 193 q 322 204 307 203 q 350 206 336 206 q 410 265 372 228 q 488 347 447 303 q 558 431 528 390 q 599 497 589 471 l 601 501 l 603 500 q 628 558 621 526 q 646 618 635 590 l 646 617 q 650 626 647 619 q 653 636 653 633 q 640 676 653 658 q 651 697 640 685 q 676 717 663 708 q 699 726 690 726 q 706 724 706 726 l 707 689 q 694 603 710 638 q 658 524 679 568 l 658 526 q 640 493 647 511 q 624 457 633 475 q 547 353 592 401 q 461 257 503 306 l 460 257 q 436 240 449 257 q 418 213 424 222 l 414 213 l 403 206 l 403 204 q 493 212 447 207 q 585 218 539 217 l 607 254 l 606 269 l 618 283 q 640 363 626 324 q 668 442 653 403 l 668 447 q 681 481 672 456 q 697 529 689 507 q 708 551 704 551 q 715 583 711 561 q 727 625 719 606 q 746 644 735 644 q 797 626 771 633 q 846 607 822 618 l 858 588 q 849 560 854 574 q 839 532 844 546 l 831 542 l 824 535 q 793 547 811 546 q 781 537 786 544 q 772 521 775 529 q 790 519 781 519 q 808 519 799 519 l 825 519 q 814 509 824 513 q 797 503 804 506 l 788 511 l 776 497 l 768 501 q 757 481 768 486 l 743 472 l 738 457 l 756 447 l 751 429 l 742 424 l 735 425 q 718 391 729 417 q 697 335 707 365 q 678 278 686 304 q 671 243 671 253 l 671 236 l 690 236 q 774 243 732 236 q 857 254 815 250 l 863 257 l 867 254 q 833 228 858 233 q 774 219 807 222 q 710 204 742 215 q 658 162 679 193 q 638 68 638 131 l 638 61 l 639 63 l 656 69 q 650 20 651 44 q 649 -28 649 -4 l 649 -83 l 640 -94 q 626 -92 633 -93 q 613 -92 619 -92 q 600 -92 607 -92 q 586 -94 593 -93 q 573 -90 581 -92 q 557 -90 565 -87 q 529 -79 544 -86 l 522 -47 q 535 -25 535 -40 l 531 -17 q 546 51 538 18 q 563 118 554 85 q 569 135 567 126 q 572 151 572 143 l 581 163 l 583 174 l 578 192 l 531 193 q 510 181 531 188 q 466 167 489 174 q 436 157 443 161 q 424 149 431 154 q 408 146 417 144 l 393 147 l 388 160 l 381 156 l 356 156 l 342 144 l 343 144 l 329 131 l 326 131 l 294 106 l 296 104 q 199 22 254 65 q 81 -63 143 -22 q -44 -135 18 -104 q -162 -178 -107 -165 m 801 564 l 803 568 l 800 568 l 797 565 l 801 564 m 785 444 l 779 446 l 789 460 l 793 446 l 785 444 m 731 431 l 738 440 l 736 444 l 722 435 l 731 431 m 53 -7 l 56 1 l 60 0 l 61 -6 l 60 -7 l 53 -7 m 758 782 q 756 783 757 783 q 754 783 756 782 q 751 785 753 783 q 749 786 750 786 l 740 790 l 736 794 q 734 794 735 796 q 731 794 733 793 l 726 803 q 715 828 718 811 q 713 841 714 833 q 713 858 713 849 q 714 878 713 868 q 718 894 715 888 q 722 901 718 897 q 749 911 731 911 q 771 908 761 911 q 778 901 781 904 q 776 895 776 899 q 776 885 776 892 q 771 876 776 879 q 765 871 765 874 q 767 867 764 867 q 772 864 771 867 q 773 860 774 863 q 772 854 772 857 q 796 821 772 833 q 833 810 819 808 q 845 811 836 810 q 857 817 854 813 q 861 817 860 819 q 864 815 863 814 q 872 815 872 814 q 876 817 872 815 q 880 816 879 817 q 882 817 881 815 q 883 821 883 818 q 897 828 882 825 q 919 842 908 835 q 940 863 929 850 l 944 865 q 948 872 946 868 q 953 876 950 875 q 977 897 967 892 q 988 900 988 903 q 986 892 986 894 q 985 888 986 889 q 981 879 983 882 q 975 872 978 876 q 965 856 967 863 q 951 839 963 850 l 939 826 q 926 816 935 822 q 917 808 918 810 l 911 804 q 908 803 910 803 q 904 800 906 803 q 900 798 903 797 q 894 796 897 799 q 892 794 893 794 q 888 792 890 794 q 883 790 886 790 q 846 780 865 785 q 806 775 826 775 q 781 777 793 775 q 758 782 769 779 z "},"Ắ":{"ha":754,"x_min":-186,"x_max":988,"o":"m -162 -178 q -178 -156 -176 -171 q -186 -129 -179 -140 l -171 -78 l -154 -89 l -151 -89 l -137 -76 l -126 -75 l -118 -68 q 29 -17 -42 -49 l 32 -17 q 7 -43 22 -28 q -22 -65 -8 -58 l -29 -78 l -21 -82 q 30 -61 -4 -82 q 106 -8 64 -40 q 189 59 147 24 q 263 124 231 94 q 311 168 296 153 q 274 158 293 164 q 236 150 256 153 q 221 131 229 143 q 200 118 213 118 q 169 126 186 118 q 151 151 151 133 q 169 185 151 165 q 200 204 186 204 l 203 196 q 236 194 219 194 q 269 193 253 193 l 283 197 l 296 193 q 322 204 307 203 q 350 206 336 206 q 410 265 372 228 q 488 347 447 303 q 558 431 528 390 q 599 497 589 471 l 601 501 l 603 500 q 628 558 621 526 q 646 618 635 590 l 646 617 q 650 626 647 619 q 653 636 653 633 q 640 676 653 658 q 651 697 640 685 q 676 717 663 708 q 699 726 690 726 q 706 724 706 726 l 707 689 q 694 603 710 638 q 658 524 679 568 l 658 526 q 640 493 647 511 q 624 457 633 475 q 547 353 592 401 q 461 257 503 306 l 460 257 q 436 240 449 257 q 418 213 424 222 l 414 213 l 403 206 l 403 204 q 493 212 447 207 q 585 218 539 217 l 607 254 l 606 269 l 618 283 q 640 363 626 324 q 668 442 653 403 l 668 447 q 681 481 672 456 q 697 529 689 507 q 708 551 704 551 q 715 583 711 561 q 727 625 719 606 q 746 644 735 644 q 797 626 771 633 q 846 607 822 618 l 858 588 q 849 560 854 574 q 839 532 844 546 l 831 542 l 824 535 q 793 547 811 546 q 781 537 786 544 q 772 521 775 529 q 790 519 781 519 q 808 519 799 519 l 825 519 q 814 509 824 513 q 797 503 804 506 l 788 511 l 776 497 l 768 501 q 757 481 768 486 l 743 472 l 738 457 l 756 447 l 751 429 l 742 424 l 735 425 q 718 391 729 417 q 697 335 707 365 q 678 278 686 304 q 671 243 671 253 l 671 236 l 690 236 q 774 243 732 236 q 857 254 815 250 l 863 257 l 867 254 q 833 228 858 233 q 774 219 807 222 q 710 204 742 215 q 658 162 679 193 q 638 68 638 131 l 638 61 l 639 63 l 656 69 q 650 20 651 44 q 649 -28 649 -4 l 649 -83 l 640 -94 q 626 -92 633 -93 q 613 -92 619 -92 q 600 -92 607 -92 q 586 -94 593 -93 q 573 -90 581 -92 q 557 -90 565 -87 q 529 -79 544 -86 l 522 -47 q 535 -25 535 -40 l 531 -17 q 546 51 538 18 q 563 118 554 85 q 569 135 567 126 q 572 151 572 143 l 581 163 l 583 174 l 578 192 l 531 193 q 510 181 531 188 q 466 167 489 174 q 436 157 443 161 q 424 149 431 154 q 408 146 417 144 l 393 147 l 388 160 l 381 156 l 356 156 l 342 144 l 343 144 l 329 131 l 326 131 l 294 106 l 296 104 q 199 22 254 65 q 81 -63 143 -22 q -44 -135 18 -104 q -162 -178 -107 -165 m 801 564 l 803 568 l 800 568 l 797 565 l 801 564 m 785 444 l 779 446 l 789 460 l 793 446 l 785 444 m 731 431 l 738 440 l 736 444 l 722 435 l 731 431 m 53 -7 l 56 1 l 60 0 l 61 -6 l 60 -7 l 53 -7 m 758 782 q 756 783 757 783 q 754 783 756 782 q 751 785 753 783 q 749 786 750 786 l 740 790 l 736 794 q 734 794 735 796 q 731 794 733 793 l 726 803 q 715 828 718 811 q 713 841 714 833 q 713 858 713 849 q 714 878 713 868 q 718 894 715 888 q 722 901 718 897 q 749 911 731 911 q 771 908 761 911 q 778 901 781 904 q 776 895 776 899 q 776 885 776 892 q 771 876 776 879 q 765 871 765 874 q 767 867 764 867 q 772 864 771 867 q 773 860 774 863 q 772 854 772 857 q 796 821 772 833 q 833 810 819 808 q 845 811 836 810 q 857 817 854 813 q 861 817 860 819 q 864 815 863 814 q 872 815 872 814 q 876 817 872 815 q 880 816 879 817 q 882 817 881 815 q 883 821 883 818 q 897 828 882 825 q 919 842 908 835 q 940 863 929 850 l 944 865 q 948 872 946 868 q 953 876 950 875 q 977 897 967 892 q 988 900 988 903 q 986 892 986 894 q 985 888 986 889 q 981 879 983 882 q 975 872 978 876 q 965 856 967 863 q 951 839 963 850 l 939 826 q 926 816 935 822 q 917 808 918 810 l 911 804 q 908 803 910 803 q 904 800 906 803 q 900 798 903 797 q 894 796 897 799 q 892 794 893 794 q 888 792 890 794 q 883 790 886 790 q 846 780 865 785 q 806 775 826 775 q 781 777 793 775 q 758 782 769 779 m 782 932 l 778 932 q 767 937 771 932 q 765 943 763 942 q 783 957 775 950 q 799 971 790 964 l 835 1006 l 849 1021 l 850 1019 l 854 1024 q 860 1025 858 1024 l 903 1065 l 904 1064 l 906 1065 q 910 1068 906 1068 l 918 1067 q 919 1072 921 1067 q 921 1079 918 1078 q 926 1081 922 1081 q 937 1076 932 1081 q 947 1069 942 1072 l 960 1060 q 963 1058 961 1058 q 965 1054 965 1057 l 968 1053 l 971 1053 l 969 1049 l 968 1038 l 953 1028 l 940 1022 l 931 1019 q 923 1015 922 1018 q 918 1008 924 1013 l 907 1003 q 901 1004 906 1001 l 874 976 l 851 967 q 843 967 846 965 q 838 965 840 968 q 829 958 832 964 q 822 954 826 953 q 802 944 811 953 q 782 932 793 936 z "},"Ặ":{"ha":754,"x_min":-186,"x_max":988,"o":"m -162 -178 q -178 -156 -176 -171 q -186 -129 -179 -140 l -171 -78 l -154 -89 l -151 -89 l -137 -76 l -126 -75 l -118 -68 q 29 -17 -42 -49 l 32 -17 q 7 -43 22 -28 q -22 -65 -8 -58 l -29 -78 l -21 -82 q 30 -61 -4 -82 q 106 -8 64 -40 q 189 59 147 24 q 263 124 231 94 q 311 168 296 153 q 274 158 293 164 q 236 150 256 153 q 221 131 229 143 q 200 118 213 118 q 169 126 186 118 q 151 151 151 133 q 169 185 151 165 q 200 204 186 204 l 203 196 q 236 194 219 194 q 269 193 253 193 l 283 197 l 296 193 q 322 204 307 203 q 350 206 336 206 q 410 265 372 228 q 488 347 447 303 q 558 431 528 390 q 599 497 589 471 l 601 501 l 603 500 q 628 558 621 526 q 646 618 635 590 l 646 617 q 650 626 647 619 q 653 636 653 633 q 640 676 653 658 q 651 697 640 685 q 676 717 663 708 q 699 726 690 726 q 706 724 706 726 l 707 689 q 694 603 710 638 q 658 524 679 568 l 658 526 q 640 493 647 511 q 624 457 633 475 q 547 353 592 401 q 461 257 503 306 l 460 257 q 436 240 449 257 q 418 213 424 222 l 414 213 l 403 206 l 403 204 q 493 212 447 207 q 585 218 539 217 l 607 254 l 606 269 l 618 283 q 640 363 626 324 q 668 442 653 403 l 668 447 q 681 481 672 456 q 697 529 689 507 q 708 551 704 551 q 715 583 711 561 q 727 625 719 606 q 746 644 735 644 q 797 626 771 633 q 846 607 822 618 l 858 588 q 849 560 854 574 q 839 532 844 546 l 831 542 l 824 535 q 793 547 811 546 q 781 537 786 544 q 772 521 775 529 q 790 519 781 519 q 808 519 799 519 l 825 519 q 814 509 824 513 q 797 503 804 506 l 788 511 l 776 497 l 768 501 q 757 481 768 486 l 743 472 l 738 457 l 756 447 l 751 429 l 742 424 l 735 425 q 718 391 729 417 q 697 335 707 365 q 678 278 686 304 q 671 243 671 253 l 671 236 l 690 236 q 774 243 732 236 q 857 254 815 250 l 863 257 l 867 254 q 833 228 858 233 q 774 219 807 222 q 710 204 742 215 q 658 162 679 193 q 638 68 638 131 l 638 61 l 639 63 l 656 69 q 650 20 651 44 q 649 -28 649 -4 l 649 -83 l 640 -94 q 626 -92 633 -93 q 613 -92 619 -92 q 600 -92 607 -92 q 586 -94 593 -93 q 573 -90 581 -92 q 557 -90 565 -87 q 529 -79 544 -86 l 522 -47 q 535 -25 535 -40 l 531 -17 q 546 51 538 18 q 563 118 554 85 q 569 135 567 126 q 572 151 572 143 l 581 163 l 583 174 l 578 192 l 531 193 q 510 181 531 188 q 466 167 489 174 q 436 157 443 161 q 424 149 431 154 q 408 146 417 144 l 393 147 l 388 160 l 381 156 l 356 156 l 342 144 l 343 144 l 329 131 l 326 131 l 294 106 l 296 104 q 199 22 254 65 q 81 -63 143 -22 q -44 -135 18 -104 q -162 -178 -107 -165 m 801 564 l 803 568 l 800 568 l 797 565 l 801 564 m 785 444 l 779 446 l 789 460 l 793 446 l 785 444 m 731 431 l 738 440 l 736 444 l 722 435 l 731 431 m 53 -7 l 56 1 l 60 0 l 61 -6 l 60 -7 l 53 -7 m 289 -267 q 266 -258 281 -267 q 240 -236 251 -249 q 228 -217 228 -224 q 251 -201 228 -211 q 299 -181 274 -192 q 332 -167 324 -171 l 332 -169 q 325 -185 332 -175 q 313 -199 318 -194 l 315 -208 l 313 -225 q 305 -249 310 -231 q 289 -267 300 -267 m 758 782 q 756 783 757 783 q 754 783 756 782 q 751 785 753 783 q 749 786 750 786 l 740 790 l 736 794 q 734 794 735 796 q 731 794 733 793 l 726 803 q 715 828 718 811 q 713 841 714 833 q 713 858 713 849 q 714 878 713 868 q 718 894 715 888 q 722 901 718 897 q 749 911 731 911 q 771 908 761 911 q 778 901 781 904 q 776 895 776 899 q 776 885 776 892 q 771 876 776 879 q 765 871 765 874 q 767 867 764 867 q 772 864 771 867 q 773 860 774 863 q 772 854 772 857 q 796 821 772 833 q 833 810 819 808 q 845 811 836 810 q 857 817 854 813 q 861 817 860 819 q 864 815 863 814 q 872 815 872 814 q 876 817 872 815 q 880 816 879 817 q 882 817 881 815 q 883 821 883 818 q 897 828 882 825 q 919 842 908 835 q 940 863 929 850 l 944 865 q 948 872 946 868 q 953 876 950 875 q 977 897 967 892 q 988 900 988 903 q 986 892 986 894 q 985 888 986 889 q 981 879 983 882 q 975 872 978 876 q 965 856 967 863 q 951 839 963 850 l 939 826 q 926 816 935 822 q 917 808 918 810 l 911 804 q 908 803 910 803 q 904 800 906 803 q 900 798 903 797 q 894 796 897 799 q 892 794 893 794 q 888 792 890 794 q 883 790 886 790 q 846 780 865 785 q 806 775 826 775 q 781 777 793 775 q 758 782 769 779 z "},"Ằ":{"ha":754,"x_min":-186,"x_max":988,"o":"m -162 -178 q -178 -156 -176 -171 q -186 -129 -179 -140 l -171 -78 l -154 -89 l -151 -89 l -137 -76 l -126 -75 l -118 -68 q 29 -17 -42 -49 l 32 -17 q 7 -43 22 -28 q -22 -65 -8 -58 l -29 -78 l -21 -82 q 30 -61 -4 -82 q 106 -8 64 -40 q 189 59 147 24 q 263 124 231 94 q 311 168 296 153 q 274 158 293 164 q 236 150 256 153 q 221 131 229 143 q 200 118 213 118 q 169 126 186 118 q 151 151 151 133 q 169 185 151 165 q 200 204 186 204 l 203 196 q 236 194 219 194 q 269 193 253 193 l 283 197 l 296 193 q 322 204 307 203 q 350 206 336 206 q 410 265 372 228 q 488 347 447 303 q 558 431 528 390 q 599 497 589 471 l 601 501 l 603 500 q 628 558 621 526 q 646 618 635 590 l 646 617 q 650 626 647 619 q 653 636 653 633 q 640 676 653 658 q 651 697 640 685 q 676 717 663 708 q 699 726 690 726 q 706 724 706 726 l 707 689 q 694 603 710 638 q 658 524 679 568 l 658 526 q 640 493 647 511 q 624 457 633 475 q 547 353 592 401 q 461 257 503 306 l 460 257 q 436 240 449 257 q 418 213 424 222 l 414 213 l 403 206 l 403 204 q 493 212 447 207 q 585 218 539 217 l 607 254 l 606 269 l 618 283 q 640 363 626 324 q 668 442 653 403 l 668 447 q 681 481 672 456 q 697 529 689 507 q 708 551 704 551 q 715 583 711 561 q 727 625 719 606 q 746 644 735 644 q 797 626 771 633 q 846 607 822 618 l 858 588 q 849 560 854 574 q 839 532 844 546 l 831 542 l 824 535 q 793 547 811 546 q 781 537 786 544 q 772 521 775 529 q 790 519 781 519 q 808 519 799 519 l 825 519 q 814 509 824 513 q 797 503 804 506 l 788 511 l 776 497 l 768 501 q 757 481 768 486 l 743 472 l 738 457 l 756 447 l 751 429 l 742 424 l 735 425 q 718 391 729 417 q 697 335 707 365 q 678 278 686 304 q 671 243 671 253 l 671 236 l 690 236 q 774 243 732 236 q 857 254 815 250 l 863 257 l 867 254 q 833 228 858 233 q 774 219 807 222 q 710 204 742 215 q 658 162 679 193 q 638 68 638 131 l 638 61 l 639 63 l 656 69 q 650 20 651 44 q 649 -28 649 -4 l 649 -83 l 640 -94 q 626 -92 633 -93 q 613 -92 619 -92 q 600 -92 607 -92 q 586 -94 593 -93 q 573 -90 581 -92 q 557 -90 565 -87 q 529 -79 544 -86 l 522 -47 q 535 -25 535 -40 l 531 -17 q 546 51 538 18 q 563 118 554 85 q 569 135 567 126 q 572 151 572 143 l 581 163 l 583 174 l 578 192 l 531 193 q 510 181 531 188 q 466 167 489 174 q 436 157 443 161 q 424 149 431 154 q 408 146 417 144 l 393 147 l 388 160 l 381 156 l 356 156 l 342 144 l 343 144 l 329 131 l 326 131 l 294 106 l 296 104 q 199 22 254 65 q 81 -63 143 -22 q -44 -135 18 -104 q -162 -178 -107 -165 m 801 564 l 803 568 l 800 568 l 797 565 l 801 564 m 785 444 l 779 446 l 789 460 l 793 446 l 785 444 m 731 431 l 738 440 l 736 444 l 722 435 l 731 431 m 53 -7 l 56 1 l 60 0 l 61 -6 l 60 -7 l 53 -7 m 758 782 q 756 783 757 783 q 754 783 756 782 q 751 785 753 783 q 749 786 750 786 l 740 790 l 736 794 q 734 794 735 796 q 731 794 733 793 l 726 803 q 715 828 718 811 q 713 841 714 833 q 713 858 713 849 q 714 878 713 868 q 718 894 715 888 q 722 901 718 897 q 749 911 731 911 q 771 908 761 911 q 778 901 781 904 q 776 895 776 899 q 776 885 776 892 q 771 876 776 879 q 765 871 765 874 q 767 867 764 867 q 772 864 771 867 q 773 860 774 863 q 772 854 772 857 q 796 821 772 833 q 833 810 819 808 q 845 811 836 810 q 857 817 854 813 q 861 817 860 819 q 864 815 863 814 q 872 815 872 814 q 876 817 872 815 q 880 816 879 817 q 882 817 881 815 q 883 821 883 818 q 897 828 882 825 q 919 842 908 835 q 940 863 929 850 l 944 865 q 948 872 946 868 q 953 876 950 875 q 977 897 967 892 q 988 900 988 903 q 986 892 986 894 q 985 888 986 889 q 981 879 983 882 q 975 872 978 876 q 965 856 967 863 q 951 839 963 850 l 939 826 q 926 816 935 822 q 917 808 918 810 l 911 804 q 908 803 910 803 q 904 800 906 803 q 900 798 903 797 q 894 796 897 799 q 892 794 893 794 q 888 792 890 794 q 883 790 886 790 q 846 780 865 785 q 806 775 826 775 q 781 777 793 775 q 758 782 769 779 m 847 947 q 827 960 836 951 q 807 969 818 968 q 800 974 803 968 q 792 981 797 979 q 787 982 790 983 q 778 982 783 981 l 756 992 l 728 1019 q 722 1018 724 1017 l 711 1024 q 706 1031 706 1028 q 699 1035 707 1033 l 689 1038 l 676 1043 l 661 1053 l 660 1064 l 658 1068 l 661 1068 l 664 1069 q 666 1073 664 1072 q 669 1075 668 1074 l 682 1085 q 696 1094 689 1088 q 708 1094 703 1100 q 710 1088 711 1093 q 711 1082 708 1082 l 719 1083 q 724 1081 724 1083 l 725 1079 l 726 1081 l 769 1040 q 775 1039 771 1039 l 779 1035 l 781 1036 l 794 1021 l 831 986 q 847 972 839 979 q 864 958 854 965 q 865 956 865 958 q 860 949 865 953 q 847 947 854 946 z "},"Ẳ":{"ha":754,"x_min":-186,"x_max":988,"o":"m -162 -178 q -178 -156 -176 -171 q -186 -129 -179 -140 l -171 -78 l -154 -89 l -151 -89 l -137 -76 l -126 -75 l -118 -68 q 29 -17 -42 -49 l 32 -17 q 7 -43 22 -28 q -22 -65 -8 -58 l -29 -78 l -21 -82 q 30 -61 -4 -82 q 106 -8 64 -40 q 189 59 147 24 q 263 124 231 94 q 311 168 296 153 q 274 158 293 164 q 236 150 256 153 q 221 131 229 143 q 200 118 213 118 q 169 126 186 118 q 151 151 151 133 q 169 185 151 165 q 200 204 186 204 l 203 196 q 236 194 219 194 q 269 193 253 193 l 283 197 l 296 193 q 322 204 307 203 q 350 206 336 206 q 410 265 372 228 q 488 347 447 303 q 558 431 528 390 q 599 497 589 471 l 601 501 l 603 500 q 628 558 621 526 q 646 618 635 590 l 646 617 q 650 626 647 619 q 653 636 653 633 q 640 676 653 658 q 651 697 640 685 q 676 717 663 708 q 699 726 690 726 q 706 724 706 726 l 707 689 q 694 603 710 638 q 658 524 679 568 l 658 526 q 640 493 647 511 q 624 457 633 475 q 547 353 592 401 q 461 257 503 306 l 460 257 q 436 240 449 257 q 418 213 424 222 l 414 213 l 403 206 l 403 204 q 493 212 447 207 q 585 218 539 217 l 607 254 l 606 269 l 618 283 q 640 363 626 324 q 668 442 653 403 l 668 447 q 681 481 672 456 q 697 529 689 507 q 708 551 704 551 q 715 583 711 561 q 727 625 719 606 q 746 644 735 644 q 797 626 771 633 q 846 607 822 618 l 858 588 q 849 560 854 574 q 839 532 844 546 l 831 542 l 824 535 q 793 547 811 546 q 781 537 786 544 q 772 521 775 529 q 790 519 781 519 q 808 519 799 519 l 825 519 q 814 509 824 513 q 797 503 804 506 l 788 511 l 776 497 l 768 501 q 757 481 768 486 l 743 472 l 738 457 l 756 447 l 751 429 l 742 424 l 735 425 q 718 391 729 417 q 697 335 707 365 q 678 278 686 304 q 671 243 671 253 l 671 236 l 690 236 q 774 243 732 236 q 857 254 815 250 l 863 257 l 867 254 q 833 228 858 233 q 774 219 807 222 q 710 204 742 215 q 658 162 679 193 q 638 68 638 131 l 638 61 l 639 63 l 656 69 q 650 20 651 44 q 649 -28 649 -4 l 649 -83 l 640 -94 q 626 -92 633 -93 q 613 -92 619 -92 q 600 -92 607 -92 q 586 -94 593 -93 q 573 -90 581 -92 q 557 -90 565 -87 q 529 -79 544 -86 l 522 -47 q 535 -25 535 -40 l 531 -17 q 546 51 538 18 q 563 118 554 85 q 569 135 567 126 q 572 151 572 143 l 581 163 l 583 174 l 578 192 l 531 193 q 510 181 531 188 q 466 167 489 174 q 436 157 443 161 q 424 149 431 154 q 408 146 417 144 l 393 147 l 388 160 l 381 156 l 356 156 l 342 144 l 343 144 l 329 131 l 326 131 l 294 106 l 296 104 q 199 22 254 65 q 81 -63 143 -22 q -44 -135 18 -104 q -162 -178 -107 -165 m 801 564 l 803 568 l 800 568 l 797 565 l 801 564 m 785 444 l 779 446 l 789 460 l 793 446 l 785 444 m 731 431 l 738 440 l 736 444 l 722 435 l 731 431 m 53 -7 l 56 1 l 60 0 l 61 -6 l 60 -7 l 53 -7 m 758 782 q 756 783 757 783 q 754 783 756 782 q 751 785 753 783 q 749 786 750 786 l 740 790 l 736 794 q 734 794 735 796 q 731 794 733 793 l 726 803 q 715 828 718 811 q 713 841 714 833 q 713 858 713 849 q 714 878 713 868 q 718 894 715 888 q 722 901 718 897 q 749 911 731 911 q 771 908 761 911 q 778 901 781 904 q 776 895 776 899 q 776 885 776 892 q 771 876 776 879 q 765 871 765 874 q 767 867 764 867 q 772 864 771 867 q 773 860 774 863 q 772 854 772 857 q 796 821 772 833 q 833 810 819 808 q 845 811 836 810 q 857 817 854 813 q 861 817 860 819 q 864 815 863 814 q 872 815 872 814 q 876 817 872 815 q 880 816 879 817 q 882 817 881 815 q 883 821 883 818 q 897 828 882 825 q 919 842 908 835 q 940 863 929 850 l 944 865 q 948 872 946 868 q 953 876 950 875 q 977 897 967 892 q 988 900 988 903 q 986 892 986 894 q 985 888 986 889 q 981 879 983 882 q 975 872 978 876 q 965 856 967 863 q 951 839 963 850 l 939 826 q 926 816 935 822 q 917 808 918 810 l 911 804 q 908 803 910 803 q 904 800 906 803 q 900 798 903 797 q 894 796 897 799 q 892 794 893 794 q 888 792 890 794 q 883 790 886 790 q 846 780 865 785 q 806 775 826 775 q 781 777 793 775 q 758 782 769 779 m 829 889 q 822 888 825 886 q 821 894 819 890 q 827 903 824 900 q 831 911 831 907 q 829 914 828 913 q 840 928 828 915 l 847 935 q 853 942 851 936 q 861 951 856 947 q 881 969 875 960 q 890 986 888 979 q 893 994 893 990 q 893 1001 893 999 q 871 1019 893 1019 q 854 1018 860 1019 q 851 1019 853 1018 q 846 1019 849 1019 q 835 1015 843 1019 q 825 1011 828 1011 l 813 1008 q 810 1015 803 1008 q 820 1027 815 1021 q 835 1036 825 1033 q 839 1036 838 1038 q 843 1036 840 1035 q 851 1039 844 1036 q 860 1043 858 1042 q 889 1051 875 1047 q 908 1054 903 1054 q 923 1052 915 1054 q 936 1050 931 1050 q 948 1043 944 1050 q 954 1032 951 1036 l 950 1022 q 951 1017 947 1014 q 954 1017 956 1021 q 946 996 953 1008 q 939 985 943 990 q 928 972 935 979 l 918 964 q 916 959 917 961 q 913 954 915 957 q 893 942 904 949 q 871 929 882 936 q 844 906 853 915 q 838 897 840 903 q 829 889 835 892 z "},"Ẵ":{"ha":754,"x_min":-186,"x_max":988,"o":"m -162 -178 q -178 -156 -176 -171 q -186 -129 -179 -140 l -171 -78 l -154 -89 l -151 -89 l -137 -76 l -126 -75 l -118 -68 q 29 -17 -42 -49 l 32 -17 q 7 -43 22 -28 q -22 -65 -8 -58 l -29 -78 l -21 -82 q 30 -61 -4 -82 q 106 -8 64 -40 q 189 59 147 24 q 263 124 231 94 q 311 168 296 153 q 274 158 293 164 q 236 150 256 153 q 221 131 229 143 q 200 118 213 118 q 169 126 186 118 q 151 151 151 133 q 169 185 151 165 q 200 204 186 204 l 203 196 q 236 194 219 194 q 269 193 253 193 l 283 197 l 296 193 q 322 204 307 203 q 350 206 336 206 q 410 265 372 228 q 488 347 447 303 q 558 431 528 390 q 599 497 589 471 l 601 501 l 603 500 q 628 558 621 526 q 646 618 635 590 l 646 617 q 650 626 647 619 q 653 636 653 633 q 640 676 653 658 q 651 697 640 685 q 676 717 663 708 q 699 726 690 726 q 706 724 706 726 l 707 689 q 694 603 710 638 q 658 524 679 568 l 658 526 q 640 493 647 511 q 624 457 633 475 q 547 353 592 401 q 461 257 503 306 l 460 257 q 436 240 449 257 q 418 213 424 222 l 414 213 l 403 206 l 403 204 q 493 212 447 207 q 585 218 539 217 l 607 254 l 606 269 l 618 283 q 640 363 626 324 q 668 442 653 403 l 668 447 q 681 481 672 456 q 697 529 689 507 q 708 551 704 551 q 715 583 711 561 q 727 625 719 606 q 746 644 735 644 q 797 626 771 633 q 846 607 822 618 l 858 588 q 849 560 854 574 q 839 532 844 546 l 831 542 l 824 535 q 793 547 811 546 q 781 537 786 544 q 772 521 775 529 q 790 519 781 519 q 808 519 799 519 l 825 519 q 814 509 824 513 q 797 503 804 506 l 788 511 l 776 497 l 768 501 q 757 481 768 486 l 743 472 l 738 457 l 756 447 l 751 429 l 742 424 l 735 425 q 718 391 729 417 q 697 335 707 365 q 678 278 686 304 q 671 243 671 253 l 671 236 l 690 236 q 774 243 732 236 q 857 254 815 250 l 863 257 l 867 254 q 833 228 858 233 q 774 219 807 222 q 710 204 742 215 q 658 162 679 193 q 638 68 638 131 l 638 61 l 639 63 l 656 69 q 650 20 651 44 q 649 -28 649 -4 l 649 -83 l 640 -94 q 626 -92 633 -93 q 613 -92 619 -92 q 600 -92 607 -92 q 586 -94 593 -93 q 573 -90 581 -92 q 557 -90 565 -87 q 529 -79 544 -86 l 522 -47 q 535 -25 535 -40 l 531 -17 q 546 51 538 18 q 563 118 554 85 q 569 135 567 126 q 572 151 572 143 l 581 163 l 583 174 l 578 192 l 531 193 q 510 181 531 188 q 466 167 489 174 q 436 157 443 161 q 424 149 431 154 q 408 146 417 144 l 393 147 l 388 160 l 381 156 l 356 156 l 342 144 l 343 144 l 329 131 l 326 131 l 294 106 l 296 104 q 199 22 254 65 q 81 -63 143 -22 q -44 -135 18 -104 q -162 -178 -107 -165 m 801 564 l 803 568 l 800 568 l 797 565 l 801 564 m 785 444 l 779 446 l 789 460 l 793 446 l 785 444 m 731 431 l 738 440 l 736 444 l 722 435 l 731 431 m 53 -7 l 56 1 l 60 0 l 61 -6 l 60 -7 l 53 -7 m 758 782 q 756 783 757 783 q 754 783 756 782 q 751 785 753 783 q 749 786 750 786 l 740 790 l 736 794 q 734 794 735 796 q 731 794 733 793 l 726 803 q 715 828 718 811 q 713 841 714 833 q 713 858 713 849 q 714 878 713 868 q 718 894 715 888 q 722 901 718 897 q 749 911 731 911 q 771 908 761 911 q 778 901 781 904 q 776 895 776 899 q 776 885 776 892 q 771 876 776 879 q 765 871 765 874 q 767 867 764 867 q 772 864 771 867 q 773 860 774 863 q 772 854 772 857 q 796 821 772 833 q 833 810 819 808 q 845 811 836 810 q 857 817 854 813 q 861 817 860 819 q 864 815 863 814 q 872 815 872 814 q 876 817 872 815 q 880 816 879 817 q 882 817 881 815 q 883 821 883 818 q 897 828 882 825 q 919 842 908 835 q 940 863 929 850 l 944 865 q 948 872 946 868 q 953 876 950 875 q 977 897 967 892 q 988 900 988 903 q 986 892 986 894 q 985 888 986 889 q 981 879 983 882 q 975 872 978 876 q 965 856 967 863 q 951 839 963 850 l 939 826 q 926 816 935 822 q 917 808 918 810 l 911 804 q 908 803 910 803 q 904 800 906 803 q 900 798 903 797 q 894 796 897 799 q 892 794 893 794 q 888 792 890 794 q 883 790 886 790 q 846 780 865 785 q 806 775 826 775 q 781 777 793 775 q 758 782 769 779 m 617 983 q 610 981 614 982 q 604 979 607 979 q 600 988 600 979 q 610 1017 600 1001 q 624 1040 619 1033 q 643 1055 632 1047 q 665 1065 654 1063 q 703 1071 676 1071 q 713 1070 710 1071 q 721 1069 717 1069 q 724 1065 724 1069 q 728 1063 725 1061 l 742 1064 q 758 1060 746 1064 q 771 1054 769 1056 q 792 1044 778 1053 q 813 1040 806 1036 q 821 1043 818 1043 q 833 1038 828 1043 q 844 1032 838 1032 q 871 1039 857 1032 q 882 1050 876 1042 q 893 1068 888 1058 q 900 1072 896 1072 q 906 1069 903 1072 q 907 1060 910 1067 q 901 1042 904 1053 q 896 1028 899 1031 q 882 1011 893 1022 q 873 1005 881 1010 q 858 1000 865 1000 q 854 1001 856 1000 q 847 999 853 1001 q 846 994 846 997 q 838 988 846 990 q 825 983 829 985 q 817 984 821 983 q 801 986 813 985 q 785 997 794 996 l 779 997 q 765 1001 771 997 q 749 1008 760 1006 q 743 1015 746 1013 q 733 1010 740 1017 q 729 1009 733 1010 q 726 1013 725 1008 l 728 1018 q 713 1024 728 1025 q 706 1019 711 1019 q 693 1023 700 1019 q 679 1025 686 1026 l 665 1024 q 658 1023 661 1024 q 651 1028 654 1022 q 651 1029 651 1029 q 650 1029 650 1029 q 647 1026 649 1029 q 642 1019 644 1022 q 632 1011 633 1015 l 625 996 q 623 990 624 993 q 617 983 622 986 z "},"Ǎ":{"ha":754,"x_min":-186,"x_max":1013,"o":"m 997 944 q 1004 946 1000 946 q 1012 942 1011 946 q 1010 936 1013 939 q 987 922 999 931 q 964 907 975 914 q 940 891 958 904 q 911 871 921 878 l 890 854 l 889 856 l 883 851 q 878 850 879 851 l 860 838 l 860 836 l 858 836 l 850 828 l 849 829 l 847 828 q 844 826 847 826 q 840 825 842 825 l 833 821 q 828 818 833 821 q 825 814 828 814 q 813 811 821 811 q 801 806 807 808 q 793 808 796 803 q 792 809 792 808 q 792 810 792 810 q 794 817 792 813 q 794 821 797 821 l 786 819 q 782 822 779 819 l 781 824 l 779 822 l 768 844 q 764 846 768 846 l 761 850 l 760 849 l 750 865 q 738 885 746 872 q 728 901 729 899 q 715 917 721 908 q 703 931 710 925 q 708 939 701 933 q 724 942 715 944 q 744 933 735 938 q 764 925 753 928 q 763 915 764 922 q 768 907 763 908 q 775 904 769 904 q 782 903 781 904 l 801 893 l 801 883 q 805 885 803 885 q 807 885 807 886 l 818 879 q 823 876 821 876 q 826 874 825 875 l 839 867 q 850 871 846 871 q 860 875 854 871 l 875 881 q 878 881 876 882 q 879 879 879 881 l 886 888 l 911 900 q 919 903 914 903 q 929 907 925 904 q 941 917 936 908 q 947 928 946 925 q 974 936 961 931 q 997 944 986 942 m -162 -178 q -178 -156 -176 -171 q -186 -129 -179 -140 l -171 -78 l -154 -89 l -151 -89 l -137 -76 l -126 -75 l -118 -68 q 29 -17 -42 -49 l 32 -17 q 7 -43 22 -28 q -22 -65 -8 -58 l -29 -78 l -21 -82 q 30 -61 -4 -82 q 106 -8 64 -40 q 189 59 147 24 q 263 124 231 94 q 311 168 296 153 q 274 158 293 164 q 236 150 256 153 q 221 131 229 143 q 200 118 213 118 q 169 126 186 118 q 151 151 151 133 q 169 185 151 165 q 200 204 186 204 l 203 196 q 236 194 219 194 q 269 193 253 193 l 283 197 l 296 193 q 322 204 307 203 q 350 206 336 206 q 410 265 372 228 q 488 347 447 303 q 558 431 528 390 q 599 497 589 471 l 601 501 l 603 500 q 628 558 621 526 q 646 618 635 590 l 646 617 q 650 626 647 619 q 653 636 653 633 q 640 676 653 658 q 651 697 640 685 q 676 717 663 708 q 699 726 690 726 q 706 724 706 726 l 707 689 q 694 603 710 638 q 658 524 679 568 l 658 526 q 640 493 647 511 q 624 457 633 475 q 547 353 592 401 q 461 257 503 306 l 460 257 q 436 240 449 257 q 418 213 424 222 l 414 213 l 403 206 l 403 204 q 493 212 447 207 q 585 218 539 217 l 607 254 l 606 269 l 618 283 q 640 363 626 324 q 668 442 653 403 l 668 447 q 681 481 672 456 q 697 529 689 507 q 708 551 704 551 q 715 583 711 561 q 727 625 719 606 q 746 644 735 644 q 797 626 771 633 q 846 607 822 618 l 858 588 q 849 560 854 574 q 839 532 844 546 l 831 542 l 824 535 q 793 547 811 546 q 781 537 786 544 q 772 521 775 529 q 790 519 781 519 q 808 519 799 519 l 825 519 q 814 509 824 513 q 797 503 804 506 l 788 511 l 776 497 l 768 501 q 757 481 768 486 l 743 472 l 738 457 l 756 447 l 751 429 l 742 424 l 735 425 q 718 391 729 417 q 697 335 707 365 q 678 278 686 304 q 671 243 671 253 l 671 236 l 690 236 q 774 243 732 236 q 857 254 815 250 l 863 257 l 867 254 q 833 228 858 233 q 774 219 807 222 q 710 204 742 215 q 658 162 679 193 q 638 68 638 131 l 638 61 l 639 63 l 656 69 q 650 20 651 44 q 649 -28 649 -4 l 649 -83 l 640 -94 q 626 -92 633 -93 q 613 -92 619 -92 q 600 -92 607 -92 q 586 -94 593 -93 q 573 -90 581 -92 q 557 -90 565 -87 q 529 -79 544 -86 l 522 -47 q 535 -25 535 -40 l 531 -17 q 546 51 538 18 q 563 118 554 85 q 569 135 567 126 q 572 151 572 143 l 581 163 l 583 174 l 578 192 l 531 193 q 510 181 531 188 q 466 167 489 174 q 436 157 443 161 q 424 149 431 154 q 408 146 417 144 l 393 147 l 388 160 l 381 156 l 356 156 l 342 144 l 343 144 l 329 131 l 326 131 l 294 106 l 296 104 q 199 22 254 65 q 81 -63 143 -22 q -44 -135 18 -104 q -162 -178 -107 -165 m 801 564 l 803 568 l 800 568 l 797 565 l 801 564 m 785 444 l 779 446 l 789 460 l 793 446 l 785 444 m 731 431 l 738 440 l 736 444 l 722 435 l 731 431 m 53 -7 l 56 1 l 60 0 l 61 -6 l 60 -7 l 53 -7 z "},"Â":{"ha":754,"x_min":-186,"x_max":963,"o":"m -162 -178 q -178 -156 -176 -171 q -186 -129 -179 -140 l -171 -78 l -154 -89 l -151 -89 l -137 -76 l -126 -75 l -118 -68 q 29 -17 -42 -49 l 32 -17 q 7 -43 22 -28 q -22 -65 -8 -58 l -29 -78 l -21 -82 q 30 -61 -4 -82 q 106 -8 64 -40 q 189 59 147 24 q 263 124 231 94 q 311 168 296 153 q 274 158 293 164 q 236 150 256 153 q 221 131 229 143 q 200 118 213 118 q 169 126 186 118 q 151 151 151 133 q 169 185 151 165 q 200 204 186 204 l 203 196 q 236 194 219 194 q 269 193 253 193 l 283 197 l 296 193 q 322 204 307 203 q 350 206 336 206 q 410 265 372 228 q 488 347 447 303 q 558 431 528 390 q 599 497 589 471 l 601 501 l 603 500 q 628 558 621 526 q 646 618 635 590 l 646 617 q 650 626 647 619 q 653 636 653 633 q 640 676 653 658 q 651 697 640 685 q 676 717 663 708 q 699 726 690 726 q 706 724 706 726 l 707 689 q 694 603 710 638 q 658 524 679 568 l 658 526 q 640 493 647 511 q 624 457 633 475 q 547 353 592 401 q 461 257 503 306 l 460 257 q 436 240 449 257 q 418 213 424 222 l 414 213 l 403 206 l 403 204 q 493 212 447 207 q 585 218 539 217 l 607 254 l 606 269 l 618 283 q 640 363 626 324 q 668 442 653 403 l 668 447 q 681 481 672 456 q 697 529 689 507 q 708 551 704 551 q 715 583 711 561 q 727 625 719 606 q 746 644 735 644 q 797 626 771 633 q 846 607 822 618 l 858 588 q 849 560 854 574 q 839 532 844 546 l 831 542 l 824 535 q 793 547 811 546 q 781 537 786 544 q 772 521 775 529 q 790 519 781 519 q 808 519 799 519 l 825 519 q 814 509 824 513 q 797 503 804 506 l 788 511 l 776 497 l 768 501 q 757 481 768 486 l 743 472 l 738 457 l 756 447 l 751 429 l 742 424 l 735 425 q 718 391 729 417 q 697 335 707 365 q 678 278 686 304 q 671 243 671 253 l 671 236 l 690 236 q 774 243 732 236 q 857 254 815 250 l 863 257 l 867 254 q 833 228 858 233 q 774 219 807 222 q 710 204 742 215 q 658 162 679 193 q 638 68 638 131 l 638 61 l 639 63 l 656 69 q 650 20 651 44 q 649 -28 649 -4 l 649 -83 l 640 -94 q 626 -92 633 -93 q 613 -92 619 -92 q 600 -92 607 -92 q 586 -94 593 -93 q 573 -90 581 -92 q 557 -90 565 -87 q 529 -79 544 -86 l 522 -47 q 535 -25 535 -40 l 531 -17 q 546 51 538 18 q 563 118 554 85 q 569 135 567 126 q 572 151 572 143 l 581 163 l 583 174 l 578 192 l 531 193 q 510 181 531 188 q 466 167 489 174 q 436 157 443 161 q 424 149 431 154 q 408 146 417 144 l 393 147 l 388 160 l 381 156 l 356 156 l 342 144 l 343 144 l 329 131 l 326 131 l 294 106 l 296 104 q 199 22 254 65 q 81 -63 143 -22 q -44 -135 18 -104 q -162 -178 -107 -165 m 801 564 l 803 568 l 800 568 l 797 565 l 801 564 m 785 444 l 779 446 l 789 460 l 793 446 l 785 444 m 731 431 l 738 440 l 736 444 l 722 435 l 731 431 m 53 -7 l 56 1 l 60 0 l 61 -6 l 60 -7 l 53 -7 m 665 769 q 658 768 663 768 q 651 772 653 768 q 653 778 650 776 q 676 792 664 785 q 699 807 688 800 q 723 823 704 810 q 751 843 742 836 l 772 860 l 774 858 l 779 863 q 785 864 783 863 l 803 876 l 803 878 l 804 878 l 813 886 l 814 885 l 815 886 q 818 888 815 888 q 822 889 821 889 l 829 893 q 835 896 829 893 q 838 900 835 900 q 850 903 842 903 q 862 909 857 906 q 869 906 867 913 q 871 905 871 906 q 871 904 871 904 q 869 897 871 901 q 868 893 867 893 l 876 894 q 881 892 883 894 l 882 890 l 883 892 l 894 869 q 899 868 894 868 l 901 864 l 903 865 l 913 849 q 925 828 917 842 q 935 813 933 815 q 947 798 942 806 q 960 783 953 790 q 955 776 963 782 q 939 772 947 771 q 919 782 928 776 q 899 789 910 788 q 899 799 899 792 q 894 807 900 806 q 888 810 893 810 q 881 811 883 810 l 861 821 l 861 831 q 858 828 860 829 q 856 829 856 828 l 844 835 q 841 838 843 838 q 836 840 839 839 l 824 847 q 813 843 817 843 q 803 839 810 843 l 788 833 q 785 833 786 832 q 783 835 783 833 l 776 826 l 751 814 q 743 811 749 813 q 733 807 738 810 q 723 797 728 806 q 715 786 718 789 q 689 778 701 785 q 665 769 676 772 z "},"Ấ":{"ha":754,"x_min":-186,"x_max":1163,"o":"m -162 -178 q -178 -156 -176 -171 q -186 -129 -179 -140 l -171 -78 l -154 -89 l -151 -89 l -137 -76 l -126 -75 l -118 -68 q 29 -17 -42 -49 l 32 -17 q 7 -43 22 -28 q -22 -65 -8 -58 l -29 -78 l -21 -82 q 30 -61 -4 -82 q 106 -8 64 -40 q 189 59 147 24 q 263 124 231 94 q 311 168 296 153 q 274 158 293 164 q 236 150 256 153 q 221 131 229 143 q 200 118 213 118 q 169 126 186 118 q 151 151 151 133 q 169 185 151 165 q 200 204 186 204 l 203 196 q 236 194 219 194 q 269 193 253 193 l 283 197 l 296 193 q 322 204 307 203 q 350 206 336 206 q 410 265 372 228 q 488 347 447 303 q 558 431 528 390 q 599 497 589 471 l 601 501 l 603 500 q 628 558 621 526 q 646 618 635 590 l 646 617 q 650 626 647 619 q 653 636 653 633 q 640 676 653 658 q 651 697 640 685 q 676 717 663 708 q 699 726 690 726 q 706 724 706 726 l 707 689 q 694 603 710 638 q 658 524 679 568 l 658 526 q 640 493 647 511 q 624 457 633 475 q 547 353 592 401 q 461 257 503 306 l 460 257 q 436 240 449 257 q 418 213 424 222 l 414 213 l 403 206 l 403 204 q 493 212 447 207 q 585 218 539 217 l 607 254 l 606 269 l 618 283 q 640 363 626 324 q 668 442 653 403 l 668 447 q 681 481 672 456 q 697 529 689 507 q 708 551 704 551 q 715 583 711 561 q 727 625 719 606 q 746 644 735 644 q 797 626 771 633 q 846 607 822 618 l 858 588 q 849 560 854 574 q 839 532 844 546 l 831 542 l 824 535 q 793 547 811 546 q 781 537 786 544 q 772 521 775 529 q 790 519 781 519 q 808 519 799 519 l 825 519 q 814 509 824 513 q 797 503 804 506 l 788 511 l 776 497 l 768 501 q 757 481 768 486 l 743 472 l 738 457 l 756 447 l 751 429 l 742 424 l 735 425 q 718 391 729 417 q 697 335 707 365 q 678 278 686 304 q 671 243 671 253 l 671 236 l 690 236 q 774 243 732 236 q 857 254 815 250 l 863 257 l 867 254 q 833 228 858 233 q 774 219 807 222 q 710 204 742 215 q 658 162 679 193 q 638 68 638 131 l 638 61 l 639 63 l 656 69 q 650 20 651 44 q 649 -28 649 -4 l 649 -83 l 640 -94 q 626 -92 633 -93 q 613 -92 619 -92 q 600 -92 607 -92 q 586 -94 593 -93 q 573 -90 581 -92 q 557 -90 565 -87 q 529 -79 544 -86 l 522 -47 q 535 -25 535 -40 l 531 -17 q 546 51 538 18 q 563 118 554 85 q 569 135 567 126 q 572 151 572 143 l 581 163 l 583 174 l 578 192 l 531 193 q 510 181 531 188 q 466 167 489 174 q 436 157 443 161 q 424 149 431 154 q 408 146 417 144 l 393 147 l 388 160 l 381 156 l 356 156 l 342 144 l 343 144 l 329 131 l 326 131 l 294 106 l 296 104 q 199 22 254 65 q 81 -63 143 -22 q -44 -135 18 -104 q -162 -178 -107 -165 m 801 564 l 803 568 l 800 568 l 797 565 l 801 564 m 785 444 l 779 446 l 789 460 l 793 446 l 785 444 m 731 431 l 738 440 l 736 444 l 722 435 l 731 431 m 53 -7 l 56 1 l 60 0 l 61 -6 l 60 -7 l 53 -7 m 665 769 q 658 768 663 768 q 651 772 653 768 q 653 778 650 776 q 676 792 664 785 q 699 807 688 800 q 723 823 704 810 q 751 843 742 836 l 772 860 l 774 858 l 779 863 q 785 864 783 863 l 803 876 l 803 878 l 804 878 l 813 886 l 814 885 l 815 886 q 818 888 815 888 q 822 889 821 889 l 829 893 q 835 896 829 893 q 838 900 835 900 q 850 903 842 903 q 862 909 857 906 q 869 906 867 913 q 871 905 871 906 q 871 904 871 904 q 869 897 871 901 q 868 893 867 893 l 876 894 q 881 892 883 894 l 882 890 l 883 892 l 894 869 q 899 868 894 868 l 901 864 l 903 865 l 913 849 q 925 828 917 842 q 935 813 933 815 q 947 798 942 806 q 960 783 953 790 q 955 776 963 782 q 939 772 947 771 q 919 782 928 776 q 899 789 910 788 q 899 799 899 792 q 894 807 900 806 q 888 810 893 810 q 881 811 883 810 l 861 821 l 861 831 q 858 828 860 829 q 856 829 856 828 l 844 835 q 841 838 843 838 q 836 840 839 839 l 824 847 q 813 843 817 843 q 803 839 810 843 l 788 833 q 785 833 786 832 q 783 835 783 833 l 776 826 l 751 814 q 743 811 749 813 q 733 807 738 810 q 723 797 728 806 q 715 786 718 789 q 689 778 701 785 q 665 769 676 772 m 974 871 l 969 871 q 958 876 963 871 q 957 882 954 881 q 974 896 967 889 q 990 910 982 903 l 1026 944 l 1040 960 l 1042 958 l 1046 963 q 1051 964 1050 963 l 1094 1004 l 1096 1003 l 1097 1004 q 1101 1007 1097 1007 l 1110 1006 q 1111 1011 1113 1006 q 1113 1018 1110 1017 q 1118 1019 1114 1019 q 1128 1015 1124 1019 q 1139 1008 1133 1011 l 1151 999 q 1155 997 1153 997 q 1157 993 1157 996 l 1160 992 l 1163 992 l 1161 988 l 1160 976 l 1144 967 l 1132 961 l 1122 958 q 1115 954 1114 957 q 1110 947 1115 951 l 1099 942 q 1093 943 1097 940 l 1065 915 l 1043 906 q 1035 906 1038 904 q 1029 904 1032 907 q 1021 897 1024 903 q 1014 893 1018 892 q 994 883 1003 892 q 974 871 985 875 z "},"Ậ":{"ha":754,"x_min":-186,"x_max":963,"o":"m -162 -178 q -178 -156 -176 -171 q -186 -129 -179 -140 l -171 -78 l -154 -89 l -151 -89 l -137 -76 l -126 -75 l -118 -68 q 29 -17 -42 -49 l 32 -17 q 7 -43 22 -28 q -22 -65 -8 -58 l -29 -78 l -21 -82 q 30 -61 -4 -82 q 106 -8 64 -40 q 189 59 147 24 q 263 124 231 94 q 311 168 296 153 q 274 158 293 164 q 236 150 256 153 q 221 131 229 143 q 200 118 213 118 q 169 126 186 118 q 151 151 151 133 q 169 185 151 165 q 200 204 186 204 l 203 196 q 236 194 219 194 q 269 193 253 193 l 283 197 l 296 193 q 322 204 307 203 q 350 206 336 206 q 410 265 372 228 q 488 347 447 303 q 558 431 528 390 q 599 497 589 471 l 601 501 l 603 500 q 628 558 621 526 q 646 618 635 590 l 646 617 q 650 626 647 619 q 653 636 653 633 q 640 676 653 658 q 651 697 640 685 q 676 717 663 708 q 699 726 690 726 q 706 724 706 726 l 707 689 q 694 603 710 638 q 658 524 679 568 l 658 526 q 640 493 647 511 q 624 457 633 475 q 547 353 592 401 q 461 257 503 306 l 460 257 q 436 240 449 257 q 418 213 424 222 l 414 213 l 403 206 l 403 204 q 493 212 447 207 q 585 218 539 217 l 607 254 l 606 269 l 618 283 q 640 363 626 324 q 668 442 653 403 l 668 447 q 681 481 672 456 q 697 529 689 507 q 708 551 704 551 q 715 583 711 561 q 727 625 719 606 q 746 644 735 644 q 797 626 771 633 q 846 607 822 618 l 858 588 q 849 560 854 574 q 839 532 844 546 l 831 542 l 824 535 q 793 547 811 546 q 781 537 786 544 q 772 521 775 529 q 790 519 781 519 q 808 519 799 519 l 825 519 q 814 509 824 513 q 797 503 804 506 l 788 511 l 776 497 l 768 501 q 757 481 768 486 l 743 472 l 738 457 l 756 447 l 751 429 l 742 424 l 735 425 q 718 391 729 417 q 697 335 707 365 q 678 278 686 304 q 671 243 671 253 l 671 236 l 690 236 q 774 243 732 236 q 857 254 815 250 l 863 257 l 867 254 q 833 228 858 233 q 774 219 807 222 q 710 204 742 215 q 658 162 679 193 q 638 68 638 131 l 638 61 l 639 63 l 656 69 q 650 20 651 44 q 649 -28 649 -4 l 649 -83 l 640 -94 q 626 -92 633 -93 q 613 -92 619 -92 q 600 -92 607 -92 q 586 -94 593 -93 q 573 -90 581 -92 q 557 -90 565 -87 q 529 -79 544 -86 l 522 -47 q 535 -25 535 -40 l 531 -17 q 546 51 538 18 q 563 118 554 85 q 569 135 567 126 q 572 151 572 143 l 581 163 l 583 174 l 578 192 l 531 193 q 510 181 531 188 q 466 167 489 174 q 436 157 443 161 q 424 149 431 154 q 408 146 417 144 l 393 147 l 388 160 l 381 156 l 356 156 l 342 144 l 343 144 l 329 131 l 326 131 l 294 106 l 296 104 q 199 22 254 65 q 81 -63 143 -22 q -44 -135 18 -104 q -162 -178 -107 -165 m 801 564 l 803 568 l 800 568 l 797 565 l 801 564 m 785 444 l 779 446 l 789 460 l 793 446 l 785 444 m 731 431 l 738 440 l 736 444 l 722 435 l 731 431 m 53 -7 l 56 1 l 60 0 l 61 -6 l 60 -7 l 53 -7 m 289 -267 q 266 -258 281 -267 q 240 -236 251 -249 q 228 -217 228 -224 q 251 -201 228 -211 q 299 -181 274 -192 q 332 -167 324 -171 l 332 -169 q 325 -185 332 -175 q 313 -199 318 -194 l 315 -208 l 313 -225 q 305 -249 310 -231 q 289 -267 300 -267 m 665 769 q 658 768 663 768 q 651 772 653 768 q 653 778 650 776 q 676 792 664 785 q 699 807 688 800 q 723 823 704 810 q 751 843 742 836 l 772 860 l 774 858 l 779 863 q 785 864 783 863 l 803 876 l 803 878 l 804 878 l 813 886 l 814 885 l 815 886 q 818 888 815 888 q 822 889 821 889 l 829 893 q 835 896 829 893 q 838 900 835 900 q 850 903 842 903 q 862 909 857 906 q 869 906 867 913 q 871 905 871 906 q 871 904 871 904 q 869 897 871 901 q 868 893 867 893 l 876 894 q 881 892 883 894 l 882 890 l 883 892 l 894 869 q 899 868 894 868 l 901 864 l 903 865 l 913 849 q 925 828 917 842 q 935 813 933 815 q 947 798 942 806 q 960 783 953 790 q 955 776 963 782 q 939 772 947 771 q 919 782 928 776 q 899 789 910 788 q 899 799 899 792 q 894 807 900 806 q 888 810 893 810 q 881 811 883 810 l 861 821 l 861 831 q 858 828 860 829 q 856 829 856 828 l 844 835 q 841 838 843 838 q 836 840 839 839 l 824 847 q 813 843 817 843 q 803 839 810 843 l 788 833 q 785 833 786 832 q 783 835 783 833 l 776 826 l 751 814 q 743 811 749 813 q 733 807 738 810 q 723 797 728 806 q 715 786 718 789 q 689 778 701 785 q 665 769 676 772 z "},"Ầ":{"ha":754,"x_min":-186,"x_max":1021,"o":"m -162 -178 q -178 -156 -176 -171 q -186 -129 -179 -140 l -171 -78 l -154 -89 l -151 -89 l -137 -76 l -126 -75 l -118 -68 q 29 -17 -42 -49 l 32 -17 q 7 -43 22 -28 q -22 -65 -8 -58 l -29 -78 l -21 -82 q 30 -61 -4 -82 q 106 -8 64 -40 q 189 59 147 24 q 263 124 231 94 q 311 168 296 153 q 274 158 293 164 q 236 150 256 153 q 221 131 229 143 q 200 118 213 118 q 169 126 186 118 q 151 151 151 133 q 169 185 151 165 q 200 204 186 204 l 203 196 q 236 194 219 194 q 269 193 253 193 l 283 197 l 296 193 q 322 204 307 203 q 350 206 336 206 q 410 265 372 228 q 488 347 447 303 q 558 431 528 390 q 599 497 589 471 l 601 501 l 603 500 q 628 558 621 526 q 646 618 635 590 l 646 617 q 650 626 647 619 q 653 636 653 633 q 640 676 653 658 q 651 697 640 685 q 676 717 663 708 q 699 726 690 726 q 706 724 706 726 l 707 689 q 694 603 710 638 q 658 524 679 568 l 658 526 q 640 493 647 511 q 624 457 633 475 q 547 353 592 401 q 461 257 503 306 l 460 257 q 436 240 449 257 q 418 213 424 222 l 414 213 l 403 206 l 403 204 q 493 212 447 207 q 585 218 539 217 l 607 254 l 606 269 l 618 283 q 640 363 626 324 q 668 442 653 403 l 668 447 q 681 481 672 456 q 697 529 689 507 q 708 551 704 551 q 715 583 711 561 q 727 625 719 606 q 746 644 735 644 q 797 626 771 633 q 846 607 822 618 l 858 588 q 849 560 854 574 q 839 532 844 546 l 831 542 l 824 535 q 793 547 811 546 q 781 537 786 544 q 772 521 775 529 q 790 519 781 519 q 808 519 799 519 l 825 519 q 814 509 824 513 q 797 503 804 506 l 788 511 l 776 497 l 768 501 q 757 481 768 486 l 743 472 l 738 457 l 756 447 l 751 429 l 742 424 l 735 425 q 718 391 729 417 q 697 335 707 365 q 678 278 686 304 q 671 243 671 253 l 671 236 l 690 236 q 774 243 732 236 q 857 254 815 250 l 863 257 l 867 254 q 833 228 858 233 q 774 219 807 222 q 710 204 742 215 q 658 162 679 193 q 638 68 638 131 l 638 61 l 639 63 l 656 69 q 650 20 651 44 q 649 -28 649 -4 l 649 -83 l 640 -94 q 626 -92 633 -93 q 613 -92 619 -92 q 600 -92 607 -92 q 586 -94 593 -93 q 573 -90 581 -92 q 557 -90 565 -87 q 529 -79 544 -86 l 522 -47 q 535 -25 535 -40 l 531 -17 q 546 51 538 18 q 563 118 554 85 q 569 135 567 126 q 572 151 572 143 l 581 163 l 583 174 l 578 192 l 531 193 q 510 181 531 188 q 466 167 489 174 q 436 157 443 161 q 424 149 431 154 q 408 146 417 144 l 393 147 l 388 160 l 381 156 l 356 156 l 342 144 l 343 144 l 329 131 l 326 131 l 294 106 l 296 104 q 199 22 254 65 q 81 -63 143 -22 q -44 -135 18 -104 q -162 -178 -107 -165 m 801 564 l 803 568 l 800 568 l 797 565 l 801 564 m 785 444 l 779 446 l 789 460 l 793 446 l 785 444 m 731 431 l 738 440 l 736 444 l 722 435 l 731 431 m 53 -7 l 56 1 l 60 0 l 61 -6 l 60 -7 l 53 -7 m 665 769 q 658 768 663 768 q 651 772 653 768 q 653 778 650 776 q 676 792 664 785 q 699 807 688 800 q 723 823 704 810 q 751 843 742 836 l 772 860 l 774 858 l 779 863 q 785 864 783 863 l 803 876 l 803 878 l 804 878 l 813 886 l 814 885 l 815 886 q 818 888 815 888 q 822 889 821 889 l 829 893 q 835 896 829 893 q 838 900 835 900 q 850 903 842 903 q 862 909 857 906 q 869 906 867 913 q 871 905 871 906 q 871 904 871 904 q 869 897 871 901 q 868 893 867 893 l 876 894 q 881 892 883 894 l 882 890 l 883 892 l 894 869 q 899 868 894 868 l 901 864 l 903 865 l 913 849 q 925 828 917 842 q 935 813 933 815 q 947 798 942 806 q 960 783 953 790 q 955 776 963 782 q 939 772 947 771 q 919 782 928 776 q 899 789 910 788 q 899 799 899 792 q 894 807 900 806 q 888 810 893 810 q 881 811 883 810 l 861 821 l 861 831 q 858 828 860 829 q 856 829 856 828 l 844 835 q 841 838 843 838 q 836 840 839 839 l 824 847 q 813 843 817 843 q 803 839 810 843 l 788 833 q 785 833 786 832 q 783 835 783 833 l 776 826 l 751 814 q 743 811 749 813 q 733 807 738 810 q 723 797 728 806 q 715 786 718 789 q 689 778 701 785 q 665 769 676 772 m 1003 903 q 983 915 992 907 q 963 925 974 924 q 956 929 958 924 q 947 936 953 935 q 942 938 946 939 q 933 938 939 936 l 911 947 l 883 975 q 878 974 879 972 l 867 979 q 862 986 861 983 q 854 990 863 989 l 844 993 l 832 999 l 817 1008 l 815 1019 l 814 1024 l 817 1024 l 819 1025 q 822 1028 819 1028 q 825 1031 824 1029 l 838 1040 q 851 1049 844 1043 q 864 1050 858 1056 q 865 1043 867 1049 q 867 1038 864 1038 l 875 1039 q 879 1036 879 1039 l 881 1035 l 882 1036 l 925 996 q 931 994 926 994 l 935 990 l 936 992 l 950 976 l 986 942 q 1002 928 994 935 q 1019 914 1010 921 q 1021 911 1021 914 q 1015 905 1021 908 q 1003 903 1010 901 z "},"Ẩ":{"ha":754,"x_min":-186,"x_max":1111,"o":"m -162 -178 q -178 -156 -176 -171 q -186 -129 -179 -140 l -171 -78 l -154 -89 l -151 -89 l -137 -76 l -126 -75 l -118 -68 q 29 -17 -42 -49 l 32 -17 q 7 -43 22 -28 q -22 -65 -8 -58 l -29 -78 l -21 -82 q 30 -61 -4 -82 q 106 -8 64 -40 q 189 59 147 24 q 263 124 231 94 q 311 168 296 153 q 274 158 293 164 q 236 150 256 153 q 221 131 229 143 q 200 118 213 118 q 169 126 186 118 q 151 151 151 133 q 169 185 151 165 q 200 204 186 204 l 203 196 q 236 194 219 194 q 269 193 253 193 l 283 197 l 296 193 q 322 204 307 203 q 350 206 336 206 q 410 265 372 228 q 488 347 447 303 q 558 431 528 390 q 599 497 589 471 l 601 501 l 603 500 q 628 558 621 526 q 646 618 635 590 l 646 617 q 650 626 647 619 q 653 636 653 633 q 640 676 653 658 q 651 697 640 685 q 676 717 663 708 q 699 726 690 726 q 706 724 706 726 l 707 689 q 694 603 710 638 q 658 524 679 568 l 658 526 q 640 493 647 511 q 624 457 633 475 q 547 353 592 401 q 461 257 503 306 l 460 257 q 436 240 449 257 q 418 213 424 222 l 414 213 l 403 206 l 403 204 q 493 212 447 207 q 585 218 539 217 l 607 254 l 606 269 l 618 283 q 640 363 626 324 q 668 442 653 403 l 668 447 q 681 481 672 456 q 697 529 689 507 q 708 551 704 551 q 715 583 711 561 q 727 625 719 606 q 746 644 735 644 q 797 626 771 633 q 846 607 822 618 l 858 588 q 849 560 854 574 q 839 532 844 546 l 831 542 l 824 535 q 793 547 811 546 q 781 537 786 544 q 772 521 775 529 q 790 519 781 519 q 808 519 799 519 l 825 519 q 814 509 824 513 q 797 503 804 506 l 788 511 l 776 497 l 768 501 q 757 481 768 486 l 743 472 l 738 457 l 756 447 l 751 429 l 742 424 l 735 425 q 718 391 729 417 q 697 335 707 365 q 678 278 686 304 q 671 243 671 253 l 671 236 l 690 236 q 774 243 732 236 q 857 254 815 250 l 863 257 l 867 254 q 833 228 858 233 q 774 219 807 222 q 710 204 742 215 q 658 162 679 193 q 638 68 638 131 l 638 61 l 639 63 l 656 69 q 650 20 651 44 q 649 -28 649 -4 l 649 -83 l 640 -94 q 626 -92 633 -93 q 613 -92 619 -92 q 600 -92 607 -92 q 586 -94 593 -93 q 573 -90 581 -92 q 557 -90 565 -87 q 529 -79 544 -86 l 522 -47 q 535 -25 535 -40 l 531 -17 q 546 51 538 18 q 563 118 554 85 q 569 135 567 126 q 572 151 572 143 l 581 163 l 583 174 l 578 192 l 531 193 q 510 181 531 188 q 466 167 489 174 q 436 157 443 161 q 424 149 431 154 q 408 146 417 144 l 393 147 l 388 160 l 381 156 l 356 156 l 342 144 l 343 144 l 329 131 l 326 131 l 294 106 l 296 104 q 199 22 254 65 q 81 -63 143 -22 q -44 -135 18 -104 q -162 -178 -107 -165 m 801 564 l 803 568 l 800 568 l 797 565 l 801 564 m 785 444 l 779 446 l 789 460 l 793 446 l 785 444 m 731 431 l 738 440 l 736 444 l 722 435 l 731 431 m 53 -7 l 56 1 l 60 0 l 61 -6 l 60 -7 l 53 -7 m 665 769 q 658 768 663 768 q 651 772 653 768 q 653 778 650 776 q 676 792 664 785 q 699 807 688 800 q 723 823 704 810 q 751 843 742 836 l 772 860 l 774 858 l 779 863 q 785 864 783 863 l 803 876 l 803 878 l 804 878 l 813 886 l 814 885 l 815 886 q 818 888 815 888 q 822 889 821 889 l 829 893 q 835 896 829 893 q 838 900 835 900 q 850 903 842 903 q 862 909 857 906 q 869 906 867 913 q 871 905 871 906 q 871 904 871 904 q 869 897 871 901 q 868 893 867 893 l 876 894 q 881 892 883 894 l 882 890 l 883 892 l 894 869 q 899 868 894 868 l 901 864 l 903 865 l 913 849 q 925 828 917 842 q 935 813 933 815 q 947 798 942 806 q 960 783 953 790 q 955 776 963 782 q 939 772 947 771 q 919 782 928 776 q 899 789 910 788 q 899 799 899 792 q 894 807 900 806 q 888 810 893 810 q 881 811 883 810 l 861 821 l 861 831 q 858 828 860 829 q 856 829 856 828 l 844 835 q 841 838 843 838 q 836 840 839 839 l 824 847 q 813 843 817 843 q 803 839 810 843 l 788 833 q 785 833 786 832 q 783 835 783 833 l 776 826 l 751 814 q 743 811 749 813 q 733 807 738 810 q 723 797 728 806 q 715 786 718 789 q 689 778 701 785 q 665 769 676 772 m 985 844 q 978 844 981 842 q 976 850 975 846 q 983 859 979 856 q 986 867 986 863 q 985 869 983 868 q 996 883 983 871 l 1003 890 q 1009 897 1007 892 q 1017 907 1011 903 q 1037 925 1031 915 q 1046 942 1043 935 q 1049 950 1049 946 q 1049 957 1049 954 q 1026 975 1049 975 q 1010 974 1015 975 q 1006 974 1008 974 q 1001 975 1004 975 q 991 971 999 975 q 981 967 983 967 l 968 964 q 965 971 958 964 q 976 983 971 976 q 990 992 981 989 q 994 992 993 993 q 999 992 996 990 q 1007 994 1000 992 q 1015 999 1014 997 q 1044 1006 1031 1003 q 1064 1010 1058 1010 q 1078 1008 1071 1010 q 1092 1006 1086 1006 q 1103 999 1100 1006 q 1110 988 1107 992 l 1106 978 q 1107 973 1103 969 q 1110 972 1111 976 q 1101 951 1108 964 q 1094 940 1099 946 q 1083 928 1090 935 l 1074 919 q 1072 915 1072 917 q 1068 910 1071 913 q 1049 898 1060 904 q 1026 885 1038 892 q 1000 861 1008 871 q 993 853 996 858 q 985 844 990 847 z "},"Ẫ":{"ha":754,"x_min":-186,"x_max":1065,"o":"m -162 -178 q -178 -156 -176 -171 q -186 -129 -179 -140 l -171 -78 l -154 -89 l -151 -89 l -137 -76 l -126 -75 l -118 -68 q 29 -17 -42 -49 l 32 -17 q 7 -43 22 -28 q -22 -65 -8 -58 l -29 -78 l -21 -82 q 30 -61 -4 -82 q 106 -8 64 -40 q 189 59 147 24 q 263 124 231 94 q 311 168 296 153 q 274 158 293 164 q 236 150 256 153 q 221 131 229 143 q 200 118 213 118 q 169 126 186 118 q 151 151 151 133 q 169 185 151 165 q 200 204 186 204 l 203 196 q 236 194 219 194 q 269 193 253 193 l 283 197 l 296 193 q 322 204 307 203 q 350 206 336 206 q 410 265 372 228 q 488 347 447 303 q 558 431 528 390 q 599 497 589 471 l 601 501 l 603 500 q 628 558 621 526 q 646 618 635 590 l 646 617 q 650 626 647 619 q 653 636 653 633 q 640 676 653 658 q 651 697 640 685 q 676 717 663 708 q 699 726 690 726 q 706 724 706 726 l 707 689 q 694 603 710 638 q 658 524 679 568 l 658 526 q 640 493 647 511 q 624 457 633 475 q 547 353 592 401 q 461 257 503 306 l 460 257 q 436 240 449 257 q 418 213 424 222 l 414 213 l 403 206 l 403 204 q 493 212 447 207 q 585 218 539 217 l 607 254 l 606 269 l 618 283 q 640 363 626 324 q 668 442 653 403 l 668 447 q 681 481 672 456 q 697 529 689 507 q 708 551 704 551 q 715 583 711 561 q 727 625 719 606 q 746 644 735 644 q 797 626 771 633 q 846 607 822 618 l 858 588 q 849 560 854 574 q 839 532 844 546 l 831 542 l 824 535 q 793 547 811 546 q 781 537 786 544 q 772 521 775 529 q 790 519 781 519 q 808 519 799 519 l 825 519 q 814 509 824 513 q 797 503 804 506 l 788 511 l 776 497 l 768 501 q 757 481 768 486 l 743 472 l 738 457 l 756 447 l 751 429 l 742 424 l 735 425 q 718 391 729 417 q 697 335 707 365 q 678 278 686 304 q 671 243 671 253 l 671 236 l 690 236 q 774 243 732 236 q 857 254 815 250 l 863 257 l 867 254 q 833 228 858 233 q 774 219 807 222 q 710 204 742 215 q 658 162 679 193 q 638 68 638 131 l 638 61 l 639 63 l 656 69 q 650 20 651 44 q 649 -28 649 -4 l 649 -83 l 640 -94 q 626 -92 633 -93 q 613 -92 619 -92 q 600 -92 607 -92 q 586 -94 593 -93 q 573 -90 581 -92 q 557 -90 565 -87 q 529 -79 544 -86 l 522 -47 q 535 -25 535 -40 l 531 -17 q 546 51 538 18 q 563 118 554 85 q 569 135 567 126 q 572 151 572 143 l 581 163 l 583 174 l 578 192 l 531 193 q 510 181 531 188 q 466 167 489 174 q 436 157 443 161 q 424 149 431 154 q 408 146 417 144 l 393 147 l 388 160 l 381 156 l 356 156 l 342 144 l 343 144 l 329 131 l 326 131 l 294 106 l 296 104 q 199 22 254 65 q 81 -63 143 -22 q -44 -135 18 -104 q -162 -178 -107 -165 m 801 564 l 803 568 l 800 568 l 797 565 l 801 564 m 785 444 l 779 446 l 789 460 l 793 446 l 785 444 m 731 431 l 738 440 l 736 444 l 722 435 l 731 431 m 53 -7 l 56 1 l 60 0 l 61 -6 l 60 -7 l 53 -7 m 665 769 q 658 768 663 768 q 651 772 653 768 q 653 778 650 776 q 676 792 664 785 q 699 807 688 800 q 723 823 704 810 q 751 843 742 836 l 772 860 l 774 858 l 779 863 q 785 864 783 863 l 803 876 l 803 878 l 804 878 l 813 886 l 814 885 l 815 886 q 818 888 815 888 q 822 889 821 889 l 829 893 q 835 896 829 893 q 838 900 835 900 q 850 903 842 903 q 862 909 857 906 q 869 906 867 913 q 871 905 871 906 q 871 904 871 904 q 869 897 871 901 q 868 893 867 893 l 876 894 q 881 892 883 894 l 882 890 l 883 892 l 894 869 q 899 868 894 868 l 901 864 l 903 865 l 913 849 q 925 828 917 842 q 935 813 933 815 q 947 798 942 806 q 960 783 953 790 q 955 776 963 782 q 939 772 947 771 q 919 782 928 776 q 899 789 910 788 q 899 799 899 792 q 894 807 900 806 q 888 810 893 810 q 881 811 883 810 l 861 821 l 861 831 q 858 828 860 829 q 856 829 856 828 l 844 835 q 841 838 843 838 q 836 840 839 839 l 824 847 q 813 843 817 843 q 803 839 810 843 l 788 833 q 785 833 786 832 q 783 835 783 833 l 776 826 l 751 814 q 743 811 749 813 q 733 807 738 810 q 723 797 728 806 q 715 786 718 789 q 689 778 701 785 q 665 769 676 772 m 772 939 q 766 936 769 938 q 760 935 763 935 q 756 943 756 935 q 765 973 756 957 q 779 996 775 989 q 799 1010 788 1003 q 821 1021 810 1018 q 858 1026 832 1026 q 869 1026 865 1026 q 876 1025 872 1025 q 880 1021 879 1025 q 883 1018 881 1017 l 897 1019 q 913 1015 901 1019 q 926 1010 925 1011 q 947 1000 933 1008 q 968 996 961 992 q 976 999 974 999 q 988 993 983 999 q 1000 988 993 988 q 1026 994 1013 988 q 1038 1006 1032 997 q 1049 1024 1043 1014 q 1056 1028 1051 1028 q 1062 1025 1058 1028 q 1063 1015 1065 1022 q 1057 997 1060 1008 q 1051 983 1054 986 q 1038 967 1049 978 q 1028 960 1036 965 q 1014 956 1021 956 q 1010 956 1011 956 q 1003 954 1008 957 q 1001 950 1001 953 q 993 943 1001 946 q 981 939 985 940 q 972 940 976 939 q 957 942 968 940 q 940 953 950 951 l 935 953 q 921 957 926 953 q 904 964 915 961 q 899 970 901 968 q 889 965 896 972 q 885 965 889 965 q 882 968 881 964 l 883 974 q 868 979 883 981 q 861 975 867 975 q 849 978 856 975 q 835 981 842 982 l 821 979 q 813 978 817 979 q 807 983 810 978 q 806 985 807 985 q 806 985 806 985 q 802 981 804 985 q 797 975 800 978 q 788 967 789 971 l 781 951 q 778 945 779 949 q 772 939 778 942 z "},"Ȁ":{"ha":754,"x_min":-186,"x_max":867,"o":"m -162 -178 q -178 -156 -176 -171 q -186 -129 -179 -140 l -171 -78 l -154 -89 l -151 -89 l -137 -76 l -126 -75 l -118 -68 q 29 -17 -42 -49 l 32 -17 q 7 -43 22 -28 q -22 -65 -8 -58 l -29 -78 l -21 -82 q 30 -61 -4 -82 q 106 -8 64 -40 q 189 59 147 24 q 263 124 231 94 q 311 168 296 153 q 274 158 293 164 q 236 150 256 153 q 221 131 229 143 q 200 118 213 118 q 169 126 186 118 q 151 151 151 133 q 169 185 151 165 q 200 204 186 204 l 203 196 q 236 194 219 194 q 269 193 253 193 l 283 197 l 296 193 q 322 204 307 203 q 350 206 336 206 q 410 265 372 228 q 488 347 447 303 q 558 431 528 390 q 599 497 589 471 l 601 501 l 603 500 q 628 558 621 526 q 646 618 635 590 l 646 617 q 650 626 647 619 q 653 636 653 633 q 640 676 653 658 q 651 697 640 685 q 676 717 663 708 q 699 726 690 726 q 706 724 706 726 l 707 689 q 694 603 710 638 q 658 524 679 568 l 658 526 q 640 493 647 511 q 624 457 633 475 q 547 353 592 401 q 461 257 503 306 l 460 257 q 436 240 449 257 q 418 213 424 222 l 414 213 l 403 206 l 403 204 q 493 212 447 207 q 585 218 539 217 l 607 254 l 606 269 l 618 283 q 640 363 626 324 q 668 442 653 403 l 668 447 q 681 481 672 456 q 697 529 689 507 q 708 551 704 551 q 715 583 711 561 q 727 625 719 606 q 746 644 735 644 q 797 626 771 633 q 846 607 822 618 l 858 588 q 849 560 854 574 q 839 532 844 546 l 831 542 l 824 535 q 793 547 811 546 q 781 537 786 544 q 772 521 775 529 q 790 519 781 519 q 808 519 799 519 l 825 519 q 814 509 824 513 q 797 503 804 506 l 788 511 l 776 497 l 768 501 q 757 481 768 486 l 743 472 l 738 457 l 756 447 l 751 429 l 742 424 l 735 425 q 718 391 729 417 q 697 335 707 365 q 678 278 686 304 q 671 243 671 253 l 671 236 l 690 236 q 774 243 732 236 q 857 254 815 250 l 863 257 l 867 254 q 833 228 858 233 q 774 219 807 222 q 710 204 742 215 q 658 162 679 193 q 638 68 638 131 l 638 61 l 639 63 l 656 69 q 650 20 651 44 q 649 -28 649 -4 l 649 -83 l 640 -94 q 626 -92 633 -93 q 613 -92 619 -92 q 600 -92 607 -92 q 586 -94 593 -93 q 573 -90 581 -92 q 557 -90 565 -87 q 529 -79 544 -86 l 522 -47 q 535 -25 535 -40 l 531 -17 q 546 51 538 18 q 563 118 554 85 q 569 135 567 126 q 572 151 572 143 l 581 163 l 583 174 l 578 192 l 531 193 q 510 181 531 188 q 466 167 489 174 q 436 157 443 161 q 424 149 431 154 q 408 146 417 144 l 393 147 l 388 160 l 381 156 l 356 156 l 342 144 l 343 144 l 329 131 l 326 131 l 294 106 l 296 104 q 199 22 254 65 q 81 -63 143 -22 q -44 -135 18 -104 q -162 -178 -107 -165 m 801 564 l 803 568 l 800 568 l 797 565 l 801 564 m 785 444 l 779 446 l 789 460 l 793 446 l 785 444 m 731 431 l 738 440 l 736 444 l 722 435 l 731 431 m 53 -7 l 56 1 l 60 0 l 61 -6 l 60 -7 l 53 -7 m 818 796 q 800 810 808 801 q 781 822 792 818 q 778 831 779 825 q 771 839 776 838 q 766 841 769 842 q 757 842 763 840 l 736 854 l 735 863 q 729 863 731 861 l 718 868 q 715 876 714 874 q 707 881 715 878 l 697 885 l 686 892 l 672 903 l 671 914 l 671 918 l 674 918 l 676 919 q 678 922 676 922 q 682 924 681 922 l 696 932 q 708 938 703 935 q 718 935 713 940 q 719 928 721 933 q 719 921 717 922 l 728 922 q 732 919 732 922 l 733 917 l 735 918 l 750 896 q 756 894 751 894 l 760 889 l 761 890 l 774 874 q 791 853 779 867 q 806 836 803 839 q 819 819 813 828 q 836 804 826 811 q 838 801 838 804 q 831 796 836 799 q 818 796 825 793 m 728 790 q 707 801 717 794 q 686 810 697 808 q 682 819 685 813 q 674 826 679 825 q 669 827 672 829 q 660 826 665 825 l 638 835 l 633 843 q 628 840 629 840 l 617 846 q 612 852 611 850 q 603 856 613 854 l 593 858 l 581 863 l 565 871 l 563 882 l 561 886 l 564 886 l 567 888 q 569 892 567 890 q 571 894 571 893 l 583 904 q 594 912 590 908 q 606 910 599 915 q 607 903 608 910 q 608 899 606 897 l 617 900 q 621 897 621 900 l 622 896 l 624 897 l 643 878 q 646 877 644 876 q 649 878 647 878 l 654 874 l 656 875 l 669 861 q 691 842 676 854 q 708 828 706 831 q 725 816 717 822 q 743 803 733 810 q 744 800 744 803 q 740 793 746 797 q 728 790 735 789 z "},"Ä":{"ha":754,"x_min":-186,"x_max":958,"o":"m -162 -178 q -178 -156 -176 -171 q -186 -129 -179 -140 l -171 -78 l -154 -89 l -151 -89 l -137 -76 l -126 -75 l -118 -68 q 29 -17 -42 -49 l 32 -17 q 7 -43 22 -28 q -22 -65 -8 -58 l -29 -78 l -21 -82 q 30 -61 -4 -82 q 106 -8 64 -40 q 189 59 147 24 q 263 124 231 94 q 311 168 296 153 q 274 158 293 164 q 236 150 256 153 q 221 131 229 143 q 200 118 213 118 q 169 126 186 118 q 151 151 151 133 q 169 185 151 165 q 200 204 186 204 l 203 196 q 236 194 219 194 q 269 193 253 193 l 283 197 l 296 193 q 322 204 307 203 q 350 206 336 206 q 410 265 372 228 q 488 347 447 303 q 558 431 528 390 q 599 497 589 471 l 601 501 l 603 500 q 628 558 621 526 q 646 618 635 590 l 646 617 q 650 626 647 619 q 653 636 653 633 q 640 676 653 658 q 651 697 640 685 q 676 717 663 708 q 699 726 690 726 q 706 724 706 726 l 707 689 q 694 603 710 638 q 658 524 679 568 l 658 526 q 640 493 647 511 q 624 457 633 475 q 547 353 592 401 q 461 257 503 306 l 460 257 q 436 240 449 257 q 418 213 424 222 l 414 213 l 403 206 l 403 204 q 493 212 447 207 q 585 218 539 217 l 607 254 l 606 269 l 618 283 q 640 363 626 324 q 668 442 653 403 l 668 447 q 681 481 672 456 q 697 529 689 507 q 708 551 704 551 q 715 583 711 561 q 727 625 719 606 q 746 644 735 644 q 797 626 771 633 q 846 607 822 618 l 858 588 q 849 560 854 574 q 839 532 844 546 l 831 542 l 824 535 q 793 547 811 546 q 781 537 786 544 q 772 521 775 529 q 790 519 781 519 q 808 519 799 519 l 825 519 q 814 509 824 513 q 797 503 804 506 l 788 511 l 776 497 l 768 501 q 757 481 768 486 l 743 472 l 738 457 l 756 447 l 751 429 l 742 424 l 735 425 q 718 391 729 417 q 697 335 707 365 q 678 278 686 304 q 671 243 671 253 l 671 236 l 690 236 q 774 243 732 236 q 857 254 815 250 l 863 257 l 867 254 q 833 228 858 233 q 774 219 807 222 q 710 204 742 215 q 658 162 679 193 q 638 68 638 131 l 638 61 l 639 63 l 656 69 q 650 20 651 44 q 649 -28 649 -4 l 649 -83 l 640 -94 q 626 -92 633 -93 q 613 -92 619 -92 q 600 -92 607 -92 q 586 -94 593 -93 q 573 -90 581 -92 q 557 -90 565 -87 q 529 -79 544 -86 l 522 -47 q 535 -25 535 -40 l 531 -17 q 546 51 538 18 q 563 118 554 85 q 569 135 567 126 q 572 151 572 143 l 581 163 l 583 174 l 578 192 l 531 193 q 510 181 531 188 q 466 167 489 174 q 436 157 443 161 q 424 149 431 154 q 408 146 417 144 l 393 147 l 388 160 l 381 156 l 356 156 l 342 144 l 343 144 l 329 131 l 326 131 l 294 106 l 296 104 q 199 22 254 65 q 81 -63 143 -22 q -44 -135 18 -104 q -162 -178 -107 -165 m 801 564 l 803 568 l 800 568 l 797 565 l 801 564 m 785 444 l 779 446 l 789 460 l 793 446 l 785 444 m 731 431 l 738 440 l 736 444 l 722 435 l 731 431 m 53 -7 l 56 1 l 60 0 l 61 -6 l 60 -7 l 53 -7 m 749 775 q 726 784 740 775 q 699 806 711 793 q 688 825 688 818 q 710 840 688 831 q 758 860 733 850 q 792 875 783 871 l 792 872 q 785 857 792 867 q 772 843 778 847 l 775 833 l 772 817 q 765 793 769 811 q 749 775 760 775 m 917 775 q 894 784 910 775 q 867 806 879 793 q 856 825 856 818 q 878 840 856 831 q 926 860 900 850 q 958 875 951 871 l 958 872 q 951 857 958 867 q 942 843 944 847 l 943 833 l 943 817 q 933 793 938 811 q 917 775 929 775 z "},"Ạ":{"ha":754,"x_min":-186,"x_max":867,"o":"m -162 -178 q -178 -156 -176 -171 q -186 -129 -179 -140 l -171 -78 l -154 -89 l -151 -89 l -137 -76 l -126 -75 l -118 -68 q 29 -17 -42 -49 l 32 -17 q 7 -43 22 -28 q -22 -65 -8 -58 l -29 -78 l -21 -82 q 30 -61 -4 -82 q 106 -8 64 -40 q 189 59 147 24 q 263 124 231 94 q 311 168 296 153 q 274 158 293 164 q 236 150 256 153 q 221 131 229 143 q 200 118 213 118 q 169 126 186 118 q 151 151 151 133 q 169 185 151 165 q 200 204 186 204 l 203 196 q 236 194 219 194 q 269 193 253 193 l 283 197 l 296 193 q 322 204 307 203 q 350 206 336 206 q 410 265 372 228 q 488 347 447 303 q 558 431 528 390 q 599 497 589 471 l 601 501 l 603 500 q 628 558 621 526 q 646 618 635 590 l 646 617 q 650 626 647 619 q 653 636 653 633 q 640 676 653 658 q 651 697 640 685 q 676 717 663 708 q 699 726 690 726 q 706 724 706 726 l 707 689 q 694 603 710 638 q 658 524 679 568 l 658 526 q 640 493 647 511 q 624 457 633 475 q 547 353 592 401 q 461 257 503 306 l 460 257 q 436 240 449 257 q 418 213 424 222 l 414 213 l 403 206 l 403 204 q 493 212 447 207 q 585 218 539 217 l 607 254 l 606 269 l 618 283 q 640 363 626 324 q 668 442 653 403 l 668 447 q 681 481 672 456 q 697 529 689 507 q 708 551 704 551 q 715 583 711 561 q 727 625 719 606 q 746 644 735 644 q 797 626 771 633 q 846 607 822 618 l 858 588 q 849 560 854 574 q 839 532 844 546 l 831 542 l 824 535 q 793 547 811 546 q 781 537 786 544 q 772 521 775 529 q 790 519 781 519 q 808 519 799 519 l 825 519 q 814 509 824 513 q 797 503 804 506 l 788 511 l 776 497 l 768 501 q 757 481 768 486 l 743 472 l 738 457 l 756 447 l 751 429 l 742 424 l 735 425 q 718 391 729 417 q 697 335 707 365 q 678 278 686 304 q 671 243 671 253 l 671 236 l 690 236 q 774 243 732 236 q 857 254 815 250 l 863 257 l 867 254 q 833 228 858 233 q 774 219 807 222 q 710 204 742 215 q 658 162 679 193 q 638 68 638 131 l 638 61 l 639 63 l 656 69 q 650 20 651 44 q 649 -28 649 -4 l 649 -83 l 640 -94 q 626 -92 633 -93 q 613 -92 619 -92 q 600 -92 607 -92 q 586 -94 593 -93 q 573 -90 581 -92 q 557 -90 565 -87 q 529 -79 544 -86 l 522 -47 q 535 -25 535 -40 l 531 -17 q 546 51 538 18 q 563 118 554 85 q 569 135 567 126 q 572 151 572 143 l 581 163 l 583 174 l 578 192 l 531 193 q 510 181 531 188 q 466 167 489 174 q 436 157 443 161 q 424 149 431 154 q 408 146 417 144 l 393 147 l 388 160 l 381 156 l 356 156 l 342 144 l 343 144 l 329 131 l 326 131 l 294 106 l 296 104 q 199 22 254 65 q 81 -63 143 -22 q -44 -135 18 -104 q -162 -178 -107 -165 m 801 564 l 803 568 l 800 568 l 797 565 l 801 564 m 785 444 l 779 446 l 789 460 l 793 446 l 785 444 m 731 431 l 738 440 l 736 444 l 722 435 l 731 431 m 53 -7 l 56 1 l 60 0 l 61 -6 l 60 -7 l 53 -7 m 289 -267 q 266 -258 281 -267 q 240 -236 251 -249 q 228 -217 228 -224 q 251 -201 228 -211 q 299 -181 274 -192 q 332 -167 324 -171 l 332 -169 q 325 -185 332 -175 q 313 -199 318 -194 l 315 -208 l 313 -225 q 305 -249 310 -231 q 289 -267 300 -267 z "},"À":{"ha":754,"x_min":-186,"x_max":867,"o":"m -162 -178 q -178 -156 -176 -171 q -186 -129 -179 -140 l -171 -78 l -154 -89 l -151 -89 l -137 -76 l -126 -75 l -118 -68 q 29 -17 -42 -49 l 32 -17 q 7 -43 22 -28 q -22 -65 -8 -58 l -29 -78 l -21 -82 q 30 -61 -4 -82 q 106 -8 64 -40 q 189 59 147 24 q 263 124 231 94 q 311 168 296 153 q 274 158 293 164 q 236 150 256 153 q 221 131 229 143 q 200 118 213 118 q 169 126 186 118 q 151 151 151 133 q 169 185 151 165 q 200 204 186 204 l 203 196 q 236 194 219 194 q 269 193 253 193 l 283 197 l 296 193 q 322 204 307 203 q 350 206 336 206 q 410 265 372 228 q 488 347 447 303 q 558 431 528 390 q 599 497 589 471 l 601 501 l 603 500 q 628 558 621 526 q 646 618 635 590 l 646 617 q 650 626 647 619 q 653 636 653 633 q 640 676 653 658 q 651 697 640 685 q 676 717 663 708 q 699 726 690 726 q 706 724 706 726 l 707 689 q 694 603 710 638 q 658 524 679 568 l 658 526 q 640 493 647 511 q 624 457 633 475 q 547 353 592 401 q 461 257 503 306 l 460 257 q 436 240 449 257 q 418 213 424 222 l 414 213 l 403 206 l 403 204 q 493 212 447 207 q 585 218 539 217 l 607 254 l 606 269 l 618 283 q 640 363 626 324 q 668 442 653 403 l 668 447 q 681 481 672 456 q 697 529 689 507 q 708 551 704 551 q 715 583 711 561 q 727 625 719 606 q 746 644 735 644 q 797 626 771 633 q 846 607 822 618 l 858 588 q 849 560 854 574 q 839 532 844 546 l 831 542 l 824 535 q 793 547 811 546 q 781 537 786 544 q 772 521 775 529 q 790 519 781 519 q 808 519 799 519 l 825 519 q 814 509 824 513 q 797 503 804 506 l 788 511 l 776 497 l 768 501 q 757 481 768 486 l 743 472 l 738 457 l 756 447 l 751 429 l 742 424 l 735 425 q 718 391 729 417 q 697 335 707 365 q 678 278 686 304 q 671 243 671 253 l 671 236 l 690 236 q 774 243 732 236 q 857 254 815 250 l 863 257 l 867 254 q 833 228 858 233 q 774 219 807 222 q 710 204 742 215 q 658 162 679 193 q 638 68 638 131 l 638 61 l 639 63 l 656 69 q 650 20 651 44 q 649 -28 649 -4 l 649 -83 l 640 -94 q 626 -92 633 -93 q 613 -92 619 -92 q 600 -92 607 -92 q 586 -94 593 -93 q 573 -90 581 -92 q 557 -90 565 -87 q 529 -79 544 -86 l 522 -47 q 535 -25 535 -40 l 531 -17 q 546 51 538 18 q 563 118 554 85 q 569 135 567 126 q 572 151 572 143 l 581 163 l 583 174 l 578 192 l 531 193 q 510 181 531 188 q 466 167 489 174 q 436 157 443 161 q 424 149 431 154 q 408 146 417 144 l 393 147 l 388 160 l 381 156 l 356 156 l 342 144 l 343 144 l 329 131 l 326 131 l 294 106 l 296 104 q 199 22 254 65 q 81 -63 143 -22 q -44 -135 18 -104 q -162 -178 -107 -165 m 801 564 l 803 568 l 800 568 l 797 565 l 801 564 m 785 444 l 779 446 l 789 460 l 793 446 l 785 444 m 731 431 l 738 440 l 736 444 l 722 435 l 731 431 m 53 -7 l 56 1 l 60 0 l 61 -6 l 60 -7 l 53 -7 m 804 775 q 784 788 793 779 q 764 797 775 796 q 757 801 760 796 q 749 808 754 807 q 744 810 747 811 q 735 810 740 808 l 713 819 l 685 847 q 679 846 681 844 l 668 851 q 663 858 663 856 q 656 863 664 861 l 646 865 l 633 871 l 618 881 l 617 892 l 615 896 l 618 896 l 621 897 q 623 901 621 900 q 626 903 625 901 l 639 913 q 653 922 646 915 q 665 922 660 928 q 667 915 668 921 q 668 910 665 910 l 676 911 q 681 908 681 911 l 682 907 l 683 908 l 726 868 q 732 867 728 867 l 736 863 l 738 864 l 751 849 l 788 814 q 803 800 796 807 q 821 786 811 793 q 822 783 822 786 q 817 777 822 781 q 804 775 811 774 z "},"Ả":{"ha":754,"x_min":-186,"x_max":938,"o":"m -162 -178 q -178 -156 -176 -171 q -186 -129 -179 -140 l -171 -78 l -154 -89 l -151 -89 l -137 -76 l -126 -75 l -118 -68 q 29 -17 -42 -49 l 32 -17 q 7 -43 22 -28 q -22 -65 -8 -58 l -29 -78 l -21 -82 q 30 -61 -4 -82 q 106 -8 64 -40 q 189 59 147 24 q 263 124 231 94 q 311 168 296 153 q 274 158 293 164 q 236 150 256 153 q 221 131 229 143 q 200 118 213 118 q 169 126 186 118 q 151 151 151 133 q 169 185 151 165 q 200 204 186 204 l 203 196 q 236 194 219 194 q 269 193 253 193 l 283 197 l 296 193 q 322 204 307 203 q 350 206 336 206 q 410 265 372 228 q 488 347 447 303 q 558 431 528 390 q 599 497 589 471 l 601 501 l 603 500 q 628 558 621 526 q 646 618 635 590 l 646 617 q 650 626 647 619 q 653 636 653 633 q 640 676 653 658 q 651 697 640 685 q 676 717 663 708 q 699 726 690 726 q 706 724 706 726 l 707 689 q 694 603 710 638 q 658 524 679 568 l 658 526 q 640 493 647 511 q 624 457 633 475 q 547 353 592 401 q 461 257 503 306 l 460 257 q 436 240 449 257 q 418 213 424 222 l 414 213 l 403 206 l 403 204 q 493 212 447 207 q 585 218 539 217 l 607 254 l 606 269 l 618 283 q 640 363 626 324 q 668 442 653 403 l 668 447 q 681 481 672 456 q 697 529 689 507 q 708 551 704 551 q 715 583 711 561 q 727 625 719 606 q 746 644 735 644 q 797 626 771 633 q 846 607 822 618 l 858 588 q 849 560 854 574 q 839 532 844 546 l 831 542 l 824 535 q 793 547 811 546 q 781 537 786 544 q 772 521 775 529 q 790 519 781 519 q 808 519 799 519 l 825 519 q 814 509 824 513 q 797 503 804 506 l 788 511 l 776 497 l 768 501 q 757 481 768 486 l 743 472 l 738 457 l 756 447 l 751 429 l 742 424 l 735 425 q 718 391 729 417 q 697 335 707 365 q 678 278 686 304 q 671 243 671 253 l 671 236 l 690 236 q 774 243 732 236 q 857 254 815 250 l 863 257 l 867 254 q 833 228 858 233 q 774 219 807 222 q 710 204 742 215 q 658 162 679 193 q 638 68 638 131 l 638 61 l 639 63 l 656 69 q 650 20 651 44 q 649 -28 649 -4 l 649 -83 l 640 -94 q 626 -92 633 -93 q 613 -92 619 -92 q 600 -92 607 -92 q 586 -94 593 -93 q 573 -90 581 -92 q 557 -90 565 -87 q 529 -79 544 -86 l 522 -47 q 535 -25 535 -40 l 531 -17 q 546 51 538 18 q 563 118 554 85 q 569 135 567 126 q 572 151 572 143 l 581 163 l 583 174 l 578 192 l 531 193 q 510 181 531 188 q 466 167 489 174 q 436 157 443 161 q 424 149 431 154 q 408 146 417 144 l 393 147 l 388 160 l 381 156 l 356 156 l 342 144 l 343 144 l 329 131 l 326 131 l 294 106 l 296 104 q 199 22 254 65 q 81 -63 143 -22 q -44 -135 18 -104 q -162 -178 -107 -165 m 801 564 l 803 568 l 800 568 l 797 565 l 801 564 m 785 444 l 779 446 l 789 460 l 793 446 l 785 444 m 731 431 l 738 440 l 736 444 l 722 435 l 731 431 m 53 -7 l 56 1 l 60 0 l 61 -6 l 60 -7 l 53 -7 m 811 776 q 804 776 807 774 q 803 782 801 778 q 809 791 806 788 q 813 799 813 794 q 811 801 810 800 q 822 815 810 803 l 829 822 q 835 829 833 824 q 843 839 838 835 q 863 857 857 847 q 872 874 869 867 q 875 882 875 878 q 875 889 875 886 q 853 907 875 907 q 836 906 842 907 q 833 906 835 906 q 828 907 831 907 q 817 903 825 907 q 807 899 810 899 l 794 896 q 792 903 785 896 q 802 915 797 908 q 817 924 807 921 q 821 924 819 925 q 825 924 822 922 q 833 926 826 924 q 842 931 840 929 q 871 938 857 935 q 890 942 885 942 q 905 940 897 942 q 918 938 913 938 q 930 931 926 938 q 936 919 933 924 l 932 910 q 933 905 929 901 q 936 904 938 908 q 928 883 935 896 q 921 872 925 878 q 910 860 917 867 l 900 851 q 898 847 899 849 q 894 842 897 844 q 875 830 886 836 q 853 817 864 824 q 826 793 835 803 q 819 785 822 790 q 811 776 817 779 z "},"Ȃ":{"ha":754,"x_min":-186,"x_max":958,"o":"m 913 917 q 915 916 914 915 q 917 915 915 917 q 919 914 918 915 q 922 913 921 913 l 931 908 l 935 904 q 938 904 936 903 q 940 904 939 906 l 944 896 q 956 871 953 888 q 958 858 957 865 q 958 840 958 850 q 957 821 958 831 q 953 804 956 811 q 949 797 953 801 q 922 788 940 788 q 901 792 910 788 q 893 797 892 796 q 895 803 896 800 q 894 814 894 807 q 900 822 894 819 q 906 828 906 825 q 904 833 907 832 q 899 835 901 833 q 898 840 897 838 q 899 844 899 843 q 876 878 899 865 q 838 889 853 890 q 826 888 835 889 q 814 882 817 886 q 811 883 813 881 q 807 883 810 885 q 799 884 799 885 q 794 882 799 883 q 792 883 793 882 q 789 882 792 883 q 788 878 788 882 q 774 871 789 874 q 752 856 763 864 q 731 836 742 849 l 726 833 q 723 828 725 832 q 718 822 721 825 q 694 802 704 807 q 683 799 683 797 q 685 808 686 806 q 686 811 685 810 q 691 819 689 817 q 696 826 693 822 q 706 843 704 838 q 719 860 708 849 l 732 872 q 744 883 736 876 q 754 890 753 889 l 760 894 q 764 897 763 896 q 767 899 765 897 q 772 901 769 901 q 776 903 774 900 q 780 905 778 904 q 783 907 782 906 q 788 908 785 908 q 825 919 806 915 q 865 924 844 924 q 890 922 878 924 q 913 917 901 919 m -162 -178 q -178 -156 -176 -171 q -186 -129 -179 -140 l -171 -78 l -154 -89 l -151 -89 l -137 -76 l -126 -75 l -118 -68 q 29 -17 -42 -49 l 32 -17 q 7 -43 22 -28 q -22 -65 -8 -58 l -29 -78 l -21 -82 q 30 -61 -4 -82 q 106 -8 64 -40 q 189 59 147 24 q 263 124 231 94 q 311 168 296 153 q 274 158 293 164 q 236 150 256 153 q 221 131 229 143 q 200 118 213 118 q 169 126 186 118 q 151 151 151 133 q 169 185 151 165 q 200 204 186 204 l 203 196 q 236 194 219 194 q 269 193 253 193 l 283 197 l 296 193 q 322 204 307 203 q 350 206 336 206 q 410 265 372 228 q 488 347 447 303 q 558 431 528 390 q 599 497 589 471 l 601 501 l 603 500 q 628 558 621 526 q 646 618 635 590 l 646 617 q 650 626 647 619 q 653 636 653 633 q 640 676 653 658 q 651 697 640 685 q 676 717 663 708 q 699 726 690 726 q 706 724 706 726 l 707 689 q 694 603 710 638 q 658 524 679 568 l 658 526 q 640 493 647 511 q 624 457 633 475 q 547 353 592 401 q 461 257 503 306 l 460 257 q 436 240 449 257 q 418 213 424 222 l 414 213 l 403 206 l 403 204 q 493 212 447 207 q 585 218 539 217 l 607 254 l 606 269 l 618 283 q 640 363 626 324 q 668 442 653 403 l 668 447 q 681 481 672 456 q 697 529 689 507 q 708 551 704 551 q 715 583 711 561 q 727 625 719 606 q 746 644 735 644 q 797 626 771 633 q 846 607 822 618 l 858 588 q 849 560 854 574 q 839 532 844 546 l 831 542 l 824 535 q 793 547 811 546 q 781 537 786 544 q 772 521 775 529 q 790 519 781 519 q 808 519 799 519 l 825 519 q 814 509 824 513 q 797 503 804 506 l 788 511 l 776 497 l 768 501 q 757 481 768 486 l 743 472 l 738 457 l 756 447 l 751 429 l 742 424 l 735 425 q 718 391 729 417 q 697 335 707 365 q 678 278 686 304 q 671 243 671 253 l 671 236 l 690 236 q 774 243 732 236 q 857 254 815 250 l 863 257 l 867 254 q 833 228 858 233 q 774 219 807 222 q 710 204 742 215 q 658 162 679 193 q 638 68 638 131 l 638 61 l 639 63 l 656 69 q 650 20 651 44 q 649 -28 649 -4 l 649 -83 l 640 -94 q 626 -92 633 -93 q 613 -92 619 -92 q 600 -92 607 -92 q 586 -94 593 -93 q 573 -90 581 -92 q 557 -90 565 -87 q 529 -79 544 -86 l 522 -47 q 535 -25 535 -40 l 531 -17 q 546 51 538 18 q 563 118 554 85 q 569 135 567 126 q 572 151 572 143 l 581 163 l 583 174 l 578 192 l 531 193 q 510 181 531 188 q 466 167 489 174 q 436 157 443 161 q 424 149 431 154 q 408 146 417 144 l 393 147 l 388 160 l 381 156 l 356 156 l 342 144 l 343 144 l 329 131 l 326 131 l 294 106 l 296 104 q 199 22 254 65 q 81 -63 143 -22 q -44 -135 18 -104 q -162 -178 -107 -165 m 801 564 l 803 568 l 800 568 l 797 565 l 801 564 m 785 444 l 779 446 l 789 460 l 793 446 l 785 444 m 731 431 l 738 440 l 736 444 l 722 435 l 731 431 m 53 -7 l 56 1 l 60 0 l 61 -6 l 60 -7 l 53 -7 z "},"Ā":{"ha":754,"x_min":-186,"x_max":983,"o":"m -162 -178 q -178 -156 -176 -171 q -186 -129 -179 -140 l -171 -78 l -154 -89 l -151 -89 l -137 -76 l -126 -75 l -118 -68 q 29 -17 -42 -49 l 32 -17 q 7 -43 22 -28 q -22 -65 -8 -58 l -29 -78 l -21 -82 q 30 -61 -4 -82 q 106 -8 64 -40 q 189 59 147 24 q 263 124 231 94 q 311 168 296 153 q 274 158 293 164 q 236 150 256 153 q 221 131 229 143 q 200 118 213 118 q 169 126 186 118 q 151 151 151 133 q 169 185 151 165 q 200 204 186 204 l 203 196 q 236 194 219 194 q 269 193 253 193 l 283 197 l 296 193 q 322 204 307 203 q 350 206 336 206 q 410 265 372 228 q 488 347 447 303 q 558 431 528 390 q 599 497 589 471 l 601 501 l 603 500 q 628 558 621 526 q 646 618 635 590 l 646 617 q 650 626 647 619 q 653 636 653 633 q 640 676 653 658 q 651 697 640 685 q 676 717 663 708 q 699 726 690 726 q 706 724 706 726 l 707 689 q 694 603 710 638 q 658 524 679 568 l 658 526 q 640 493 647 511 q 624 457 633 475 q 547 353 592 401 q 461 257 503 306 l 460 257 q 436 240 449 257 q 418 213 424 222 l 414 213 l 403 206 l 403 204 q 493 212 447 207 q 585 218 539 217 l 607 254 l 606 269 l 618 283 q 640 363 626 324 q 668 442 653 403 l 668 447 q 681 481 672 456 q 697 529 689 507 q 708 551 704 551 q 715 583 711 561 q 727 625 719 606 q 746 644 735 644 q 797 626 771 633 q 846 607 822 618 l 858 588 q 849 560 854 574 q 839 532 844 546 l 831 542 l 824 535 q 793 547 811 546 q 781 537 786 544 q 772 521 775 529 q 790 519 781 519 q 808 519 799 519 l 825 519 q 814 509 824 513 q 797 503 804 506 l 788 511 l 776 497 l 768 501 q 757 481 768 486 l 743 472 l 738 457 l 756 447 l 751 429 l 742 424 l 735 425 q 718 391 729 417 q 697 335 707 365 q 678 278 686 304 q 671 243 671 253 l 671 236 l 690 236 q 774 243 732 236 q 857 254 815 250 l 863 257 l 867 254 q 833 228 858 233 q 774 219 807 222 q 710 204 742 215 q 658 162 679 193 q 638 68 638 131 l 638 61 l 639 63 l 656 69 q 650 20 651 44 q 649 -28 649 -4 l 649 -83 l 640 -94 q 626 -92 633 -93 q 613 -92 619 -92 q 600 -92 607 -92 q 586 -94 593 -93 q 573 -90 581 -92 q 557 -90 565 -87 q 529 -79 544 -86 l 522 -47 q 535 -25 535 -40 l 531 -17 q 546 51 538 18 q 563 118 554 85 q 569 135 567 126 q 572 151 572 143 l 581 163 l 583 174 l 578 192 l 531 193 q 510 181 531 188 q 466 167 489 174 q 436 157 443 161 q 424 149 431 154 q 408 146 417 144 l 393 147 l 388 160 l 381 156 l 356 156 l 342 144 l 343 144 l 329 131 l 326 131 l 294 106 l 296 104 q 199 22 254 65 q 81 -63 143 -22 q -44 -135 18 -104 q -162 -178 -107 -165 m 801 564 l 803 568 l 800 568 l 797 565 l 801 564 m 785 444 l 779 446 l 789 460 l 793 446 l 785 444 m 731 431 l 738 440 l 736 444 l 722 435 l 731 431 m 53 -7 l 56 1 l 60 0 l 61 -6 l 60 -7 l 53 -7 m 701 768 q 681 789 692 778 q 669 814 669 800 l 669 828 l 672 824 q 729 827 700 825 q 785 829 758 829 l 869 828 l 878 824 q 917 828 889 828 q 960 829 946 828 l 963 822 q 943 813 953 817 q 929 797 933 808 l 922 804 q 904 800 915 799 q 883 794 893 801 l 863 792 l 849 797 q 792 788 828 793 q 732 785 756 783 l 721 779 l 717 782 l 701 768 m 974 822 l 974 829 l 983 828 l 981 822 l 974 822 z "},"Ą":{"ha":754,"x_min":-186,"x_max":867,"o":"m -162 -178 q -178 -156 -176 -171 q -186 -129 -179 -140 l -171 -78 l -154 -89 l -151 -89 l -137 -76 l -126 -75 l -118 -68 q 29 -17 -42 -49 l 32 -17 q 7 -43 22 -28 q -22 -65 -8 -58 l -29 -78 l -21 -82 q 30 -61 -4 -82 q 106 -8 64 -40 q 189 59 147 24 q 263 124 231 94 q 311 168 296 153 q 274 158 293 164 q 236 150 256 153 q 221 131 229 143 q 200 118 213 118 q 169 126 186 118 q 151 151 151 133 q 169 185 151 165 q 200 204 186 204 l 203 196 q 236 194 219 194 q 269 193 253 193 l 283 197 l 296 193 q 322 204 307 203 q 350 206 336 206 q 410 265 372 228 q 488 347 447 303 q 558 431 528 390 q 599 497 589 471 l 601 501 l 603 500 q 628 558 621 526 q 646 618 635 590 l 646 617 q 650 626 647 619 q 653 636 653 633 q 640 676 653 658 q 651 697 640 685 q 676 717 663 708 q 699 726 690 726 q 706 724 706 726 l 707 689 q 694 603 710 638 q 658 524 679 568 l 658 526 q 640 493 647 511 q 624 457 633 475 q 547 353 592 401 q 461 257 503 306 l 460 257 q 436 240 449 257 q 418 213 424 222 l 414 213 l 403 206 l 403 204 q 493 212 447 207 q 585 218 539 217 l 607 254 l 606 269 l 618 283 q 640 363 626 324 q 668 442 653 403 l 668 447 q 681 481 672 456 q 697 529 689 507 q 708 551 704 551 q 715 583 711 561 q 727 625 719 606 q 746 644 735 644 q 797 626 771 633 q 846 607 822 618 l 858 588 q 849 560 854 574 q 839 532 844 546 l 831 542 l 824 535 q 793 547 811 546 q 781 537 786 544 q 772 521 775 529 q 790 519 781 519 q 808 519 799 519 l 825 519 q 814 509 824 513 q 797 503 804 506 l 788 511 l 776 497 l 768 501 q 757 481 768 486 l 743 472 l 738 457 l 756 447 l 751 429 l 742 424 l 735 425 q 718 391 729 417 q 697 335 707 365 q 678 278 686 304 q 671 243 671 253 l 671 236 l 690 236 q 774 243 732 236 q 857 254 815 250 l 863 257 l 867 254 q 833 228 858 233 q 774 219 807 222 q 710 204 742 215 q 658 162 679 193 q 638 68 638 131 l 638 61 l 639 63 l 656 69 q 650 20 651 44 q 649 -28 649 -4 l 649 -83 l 640 -94 q 626 -92 633 -93 q 613 -92 619 -92 q 600 -92 607 -92 q 586 -94 593 -93 q 573 -90 581 -92 q 557 -90 565 -87 q 529 -79 544 -86 l 522 -47 q 535 -25 535 -40 l 531 -17 q 546 51 538 18 q 563 118 554 85 q 569 135 567 126 q 572 151 572 143 l 581 163 l 583 174 l 578 192 l 531 193 q 510 181 531 188 q 466 167 489 174 q 436 157 443 161 q 424 149 431 154 q 408 146 417 144 l 393 147 l 388 160 l 381 156 l 356 156 l 342 144 l 343 144 l 329 131 l 326 131 l 294 106 l 296 104 q 199 22 254 65 q 81 -63 143 -22 q -44 -135 18 -104 q -162 -178 -107 -165 m 801 564 l 803 568 l 800 568 l 797 565 l 801 564 m 785 444 l 779 446 l 789 460 l 793 446 l 785 444 m 731 431 l 738 440 l 736 444 l 722 435 l 731 431 m 53 -7 l 56 1 l 60 0 l 61 -6 l 60 -7 l 53 -7 m 561 -297 q 540 -293 547 -297 q 535 -294 539 -293 q 529 -293 532 -294 q 525 -289 529 -293 q 519 -287 524 -287 q 513 -285 515 -286 q 510 -279 513 -285 q 508 -276 508 -278 q 504 -274 507 -275 q 497 -265 500 -269 q 492 -260 493 -261 q 488 -246 490 -253 q 485 -231 485 -239 q 490 -204 485 -215 q 501 -181 496 -193 l 511 -164 q 516 -155 514 -158 q 522 -150 518 -151 q 528 -140 528 -147 q 532 -137 529 -137 q 535 -135 535 -136 q 540 -126 538 -131 q 544 -118 542 -121 q 551 -112 547 -114 q 558 -107 554 -111 q 567 -94 563 -103 q 581 -81 569 -90 q 599 -68 593 -71 q 617 -65 610 -65 q 622 -72 631 -65 l 611 -82 l 606 -82 q 610 -88 611 -85 q 606 -93 608 -92 l 603 -93 q 603 -98 601 -94 q 603 -104 606 -101 q 599 -105 601 -106 q 593 -106 596 -104 q 588 -110 589 -106 q 588 -116 586 -115 q 592 -119 590 -117 q 585 -124 592 -121 q 575 -135 578 -126 q 570 -142 569 -136 q 568 -154 571 -149 q 554 -169 558 -160 q 549 -183 549 -175 q 546 -199 550 -192 q 547 -210 547 -201 l 547 -229 q 549 -240 547 -235 q 558 -250 551 -244 q 572 -256 564 -256 q 628 -240 600 -256 q 644 -230 633 -239 q 663 -212 654 -221 q 674 -201 672 -203 q 681 -199 678 -196 q 689 -201 685 -201 q 690 -204 690 -201 q 690 -208 690 -206 q 689 -214 690 -211 q 678 -231 683 -221 q 664 -249 674 -240 q 638 -272 654 -262 q 613 -286 622 -281 q 561 -297 596 -297 z "},"Å":{"ha":754,"x_min":-186,"x_max":957,"o":"m -162 -178 q -178 -156 -176 -171 q -186 -129 -179 -140 l -171 -78 l -154 -89 l -151 -89 l -137 -76 l -126 -75 l -118 -68 q 29 -17 -42 -49 l 32 -17 q 7 -43 22 -28 q -22 -65 -8 -58 l -29 -78 l -21 -82 q 30 -61 -4 -82 q 106 -8 64 -40 q 189 59 147 24 q 263 124 231 94 q 311 168 296 153 q 274 158 293 164 q 236 150 256 153 q 221 131 229 143 q 200 118 213 118 q 169 126 186 118 q 151 151 151 133 q 169 185 151 165 q 200 204 186 204 l 203 196 q 236 194 219 194 q 269 193 253 193 l 283 197 l 296 193 q 322 204 307 203 q 350 206 336 206 q 410 265 372 228 q 488 347 447 303 q 558 431 528 390 q 599 497 589 471 l 601 501 l 603 500 q 628 558 621 526 q 646 618 635 590 l 646 617 q 650 626 647 619 q 653 636 653 633 q 640 676 653 658 q 651 697 640 685 q 676 717 663 708 q 699 726 690 726 q 706 724 706 726 l 707 689 q 694 603 710 638 q 658 524 679 568 l 658 526 q 640 493 647 511 q 624 457 633 475 q 547 353 592 401 q 461 257 503 306 l 460 257 q 436 240 449 257 q 418 213 424 222 l 414 213 l 403 206 l 403 204 q 493 212 447 207 q 585 218 539 217 l 607 254 l 606 269 l 618 283 q 640 363 626 324 q 668 442 653 403 l 668 447 q 681 481 672 456 q 697 529 689 507 q 708 551 704 551 q 715 583 711 561 q 727 625 719 606 q 746 644 735 644 q 797 626 771 633 q 846 607 822 618 l 858 588 q 849 560 854 574 q 839 532 844 546 l 831 542 l 824 535 q 793 547 811 546 q 781 537 786 544 q 772 521 775 529 q 790 519 781 519 q 808 519 799 519 l 825 519 q 814 509 824 513 q 797 503 804 506 l 788 511 l 776 497 l 768 501 q 757 481 768 486 l 743 472 l 738 457 l 756 447 l 751 429 l 742 424 l 735 425 q 718 391 729 417 q 697 335 707 365 q 678 278 686 304 q 671 243 671 253 l 671 236 l 690 236 q 774 243 732 236 q 857 254 815 250 l 863 257 l 867 254 q 833 228 858 233 q 774 219 807 222 q 710 204 742 215 q 658 162 679 193 q 638 68 638 131 l 638 61 l 639 63 l 656 69 q 650 20 651 44 q 649 -28 649 -4 l 649 -83 l 640 -94 q 626 -92 633 -93 q 613 -92 619 -92 q 600 -92 607 -92 q 586 -94 593 -93 q 573 -90 581 -92 q 557 -90 565 -87 q 529 -79 544 -86 l 522 -47 q 535 -25 535 -40 l 531 -17 q 546 51 538 18 q 563 118 554 85 q 569 135 567 126 q 572 151 572 143 l 581 163 l 583 174 l 578 192 l 531 193 q 510 181 531 188 q 466 167 489 174 q 436 157 443 161 q 424 149 431 154 q 408 146 417 144 l 393 147 l 388 160 l 381 156 l 356 156 l 342 144 l 343 144 l 329 131 l 326 131 l 294 106 l 296 104 q 199 22 254 65 q 81 -63 143 -22 q -44 -135 18 -104 q -162 -178 -107 -165 m 801 564 l 803 568 l 800 568 l 797 565 l 801 564 m 785 444 l 779 446 l 789 460 l 793 446 l 785 444 m 731 431 l 738 440 l 736 444 l 722 435 l 731 431 m 53 -7 l 56 1 l 60 0 l 61 -6 l 60 -7 l 53 -7 m 804 765 l 804 768 l 789 769 q 776 775 788 772 q 761 779 765 778 q 740 800 751 786 q 728 828 728 814 l 728 835 l 729 840 q 731 856 732 847 q 733 871 731 865 q 748 900 733 883 q 771 926 763 917 l 774 926 q 778 932 774 928 q 783 938 782 936 l 785 936 q 806 949 792 942 q 828 957 821 957 l 829 957 q 863 964 847 964 q 880 963 871 964 q 896 958 889 961 l 914 944 q 919 942 917 943 q 919 943 921 942 q 939 924 925 939 q 953 904 953 908 l 954 904 l 953 903 l 956 894 l 957 889 q 951 870 957 879 q 947 851 946 861 q 942 842 942 846 q 932 825 940 833 q 919 814 922 818 q 908 807 917 810 q 903 799 907 803 q 897 793 900 796 l 890 792 q 873 780 885 786 q 854 774 861 774 l 850 771 q 848 772 849 771 q 844 772 847 772 q 823 770 835 772 q 804 765 811 768 m 824 793 q 868 828 849 794 q 874 836 871 832 q 882 843 878 840 q 886 849 885 846 q 893 862 889 856 q 899 874 897 868 l 899 878 q 894 894 899 886 q 891 901 893 897 q 885 906 889 904 q 879 920 882 908 q 872 932 876 932 l 871 933 q 860 938 865 933 q 851 935 858 938 q 840 935 843 933 l 839 933 l 838 933 q 833 932 836 932 q 828 931 831 932 q 826 928 828 928 q 824 926 825 928 q 817 912 824 921 q 803 894 811 903 l 801 894 l 799 889 l 799 890 q 792 877 796 885 q 786 863 789 869 l 783 851 l 785 842 l 786 842 l 786 840 l 793 817 l 793 815 q 806 799 793 808 q 824 793 819 790 z "},"Ǻ":{"ha":754,"x_min":-186,"x_max":1006,"o":"m -162 -178 q -178 -156 -176 -171 q -186 -129 -179 -140 l -171 -78 l -154 -89 l -151 -89 l -137 -76 l -126 -75 l -118 -68 q 29 -17 -42 -49 l 32 -17 q 7 -43 22 -28 q -22 -65 -8 -58 l -29 -78 l -21 -82 q 30 -61 -4 -82 q 106 -8 64 -40 q 189 59 147 24 q 263 124 231 94 q 311 168 296 153 q 274 158 293 164 q 236 150 256 153 q 221 131 229 143 q 200 118 213 118 q 169 126 186 118 q 151 151 151 133 q 169 185 151 165 q 200 204 186 204 l 203 196 q 236 194 219 194 q 269 193 253 193 l 283 197 l 296 193 q 322 204 307 203 q 350 206 336 206 q 410 265 372 228 q 488 347 447 303 q 558 431 528 390 q 599 497 589 471 l 601 501 l 603 500 q 628 558 621 526 q 646 618 635 590 l 646 617 q 650 626 647 619 q 653 636 653 633 q 640 676 653 658 q 651 697 640 685 q 676 717 663 708 q 699 726 690 726 q 706 724 706 726 l 707 689 q 694 603 710 638 q 658 524 679 568 l 658 526 q 640 493 647 511 q 624 457 633 475 q 547 353 592 401 q 461 257 503 306 l 460 257 q 436 240 449 257 q 418 213 424 222 l 414 213 l 403 206 l 403 204 q 493 212 447 207 q 585 218 539 217 l 607 254 l 606 269 l 618 283 q 640 363 626 324 q 668 442 653 403 l 668 447 q 681 481 672 456 q 697 529 689 507 q 708 551 704 551 q 715 583 711 561 q 727 625 719 606 q 746 644 735 644 q 797 626 771 633 q 846 607 822 618 l 858 588 q 849 560 854 574 q 839 532 844 546 l 831 542 l 824 535 q 793 547 811 546 q 781 537 786 544 q 772 521 775 529 q 790 519 781 519 q 808 519 799 519 l 825 519 q 814 509 824 513 q 797 503 804 506 l 788 511 l 776 497 l 768 501 q 757 481 768 486 l 743 472 l 738 457 l 756 447 l 751 429 l 742 424 l 735 425 q 718 391 729 417 q 697 335 707 365 q 678 278 686 304 q 671 243 671 253 l 671 236 l 690 236 q 774 243 732 236 q 857 254 815 250 l 863 257 l 867 254 q 833 228 858 233 q 774 219 807 222 q 710 204 742 215 q 658 162 679 193 q 638 68 638 131 l 638 61 l 639 63 l 656 69 q 650 20 651 44 q 649 -28 649 -4 l 649 -83 l 640 -94 q 626 -92 633 -93 q 613 -92 619 -92 q 600 -92 607 -92 q 586 -94 593 -93 q 573 -90 581 -92 q 557 -90 565 -87 q 529 -79 544 -86 l 522 -47 q 535 -25 535 -40 l 531 -17 q 546 51 538 18 q 563 118 554 85 q 569 135 567 126 q 572 151 572 143 l 581 163 l 583 174 l 578 192 l 531 193 q 510 181 531 188 q 466 167 489 174 q 436 157 443 161 q 424 149 431 154 q 408 146 417 144 l 393 147 l 388 160 l 381 156 l 356 156 l 342 144 l 343 144 l 329 131 l 326 131 l 294 106 l 296 104 q 199 22 254 65 q 81 -63 143 -22 q -44 -135 18 -104 q -162 -178 -107 -165 m 801 564 l 803 568 l 800 568 l 797 565 l 801 564 m 785 444 l 779 446 l 789 460 l 793 446 l 785 444 m 731 431 l 738 440 l 736 444 l 722 435 l 731 431 m 53 -7 l 56 1 l 60 0 l 61 -6 l 60 -7 l 53 -7 m 804 765 l 804 768 l 789 769 q 776 775 788 772 q 761 779 765 778 q 740 800 751 786 q 728 828 728 814 l 728 835 l 729 840 q 731 856 732 847 q 733 871 731 865 q 748 900 733 883 q 771 926 763 917 l 774 926 q 778 932 774 928 q 783 938 782 936 l 785 936 q 806 949 792 942 q 828 957 821 957 l 829 957 q 863 964 847 964 q 880 963 871 964 q 896 958 889 961 l 914 944 q 919 942 917 943 q 919 943 921 942 q 939 924 925 939 q 953 904 953 908 l 954 904 l 953 903 l 956 894 l 957 889 q 951 870 957 879 q 947 851 946 861 q 942 842 942 846 q 932 825 940 833 q 919 814 922 818 q 908 807 917 810 q 903 799 907 803 q 897 793 900 796 l 890 792 q 873 780 885 786 q 854 774 861 774 l 850 771 q 848 772 849 771 q 844 772 847 772 q 823 770 835 772 q 804 765 811 768 m 824 793 q 868 828 849 794 q 874 836 871 832 q 882 843 878 840 q 886 849 885 846 q 893 862 889 856 q 899 874 897 868 l 899 878 q 894 894 899 886 q 891 901 893 897 q 885 906 889 904 q 879 920 882 908 q 872 932 876 932 l 871 933 q 860 938 865 933 q 851 935 858 938 q 840 935 843 933 l 839 933 l 838 933 q 833 932 836 932 q 828 931 831 932 q 826 928 828 928 q 824 926 825 928 q 817 912 824 921 q 803 894 811 903 l 801 894 l 799 889 l 799 890 q 792 877 796 885 q 786 863 789 869 l 783 851 l 785 842 l 786 842 l 786 840 l 793 817 l 793 815 q 806 799 793 808 q 824 793 819 790 m 817 993 l 813 993 q 801 998 806 993 q 800 1004 797 1003 q 817 1018 810 1011 q 833 1032 825 1025 l 869 1067 l 883 1082 l 885 1081 l 889 1085 q 894 1086 893 1085 l 938 1126 l 939 1125 l 940 1126 q 944 1129 940 1129 l 953 1128 q 954 1133 956 1128 q 956 1140 953 1139 q 961 1142 957 1142 q 972 1138 967 1142 q 982 1131 976 1133 l 994 1121 q 998 1119 996 1119 q 1000 1115 1000 1118 l 1003 1114 l 1006 1114 l 1004 1110 l 1003 1099 l 988 1089 l 975 1083 l 965 1081 q 958 1076 957 1079 q 953 1069 958 1074 l 942 1064 q 936 1065 940 1063 l 908 1038 l 886 1028 q 878 1028 881 1026 q 872 1026 875 1029 q 864 1019 867 1025 q 857 1015 861 1014 q 837 1006 846 1014 q 817 993 828 997 z "},"Ã":{"ha":754,"x_min":-186,"x_max":964,"o":"m -162 -178 q -178 -156 -176 -171 q -186 -129 -179 -140 l -171 -78 l -154 -89 l -151 -89 l -137 -76 l -126 -75 l -118 -68 q 29 -17 -42 -49 l 32 -17 q 7 -43 22 -28 q -22 -65 -8 -58 l -29 -78 l -21 -82 q 30 -61 -4 -82 q 106 -8 64 -40 q 189 59 147 24 q 263 124 231 94 q 311 168 296 153 q 274 158 293 164 q 236 150 256 153 q 221 131 229 143 q 200 118 213 118 q 169 126 186 118 q 151 151 151 133 q 169 185 151 165 q 200 204 186 204 l 203 196 q 236 194 219 194 q 269 193 253 193 l 283 197 l 296 193 q 322 204 307 203 q 350 206 336 206 q 410 265 372 228 q 488 347 447 303 q 558 431 528 390 q 599 497 589 471 l 601 501 l 603 500 q 628 558 621 526 q 646 618 635 590 l 646 617 q 650 626 647 619 q 653 636 653 633 q 640 676 653 658 q 651 697 640 685 q 676 717 663 708 q 699 726 690 726 q 706 724 706 726 l 707 689 q 694 603 710 638 q 658 524 679 568 l 658 526 q 640 493 647 511 q 624 457 633 475 q 547 353 592 401 q 461 257 503 306 l 460 257 q 436 240 449 257 q 418 213 424 222 l 414 213 l 403 206 l 403 204 q 493 212 447 207 q 585 218 539 217 l 607 254 l 606 269 l 618 283 q 640 363 626 324 q 668 442 653 403 l 668 447 q 681 481 672 456 q 697 529 689 507 q 708 551 704 551 q 715 583 711 561 q 727 625 719 606 q 746 644 735 644 q 797 626 771 633 q 846 607 822 618 l 858 588 q 849 560 854 574 q 839 532 844 546 l 831 542 l 824 535 q 793 547 811 546 q 781 537 786 544 q 772 521 775 529 q 790 519 781 519 q 808 519 799 519 l 825 519 q 814 509 824 513 q 797 503 804 506 l 788 511 l 776 497 l 768 501 q 757 481 768 486 l 743 472 l 738 457 l 756 447 l 751 429 l 742 424 l 735 425 q 718 391 729 417 q 697 335 707 365 q 678 278 686 304 q 671 243 671 253 l 671 236 l 690 236 q 774 243 732 236 q 857 254 815 250 l 863 257 l 867 254 q 833 228 858 233 q 774 219 807 222 q 710 204 742 215 q 658 162 679 193 q 638 68 638 131 l 638 61 l 639 63 l 656 69 q 650 20 651 44 q 649 -28 649 -4 l 649 -83 l 640 -94 q 626 -92 633 -93 q 613 -92 619 -92 q 600 -92 607 -92 q 586 -94 593 -93 q 573 -90 581 -92 q 557 -90 565 -87 q 529 -79 544 -86 l 522 -47 q 535 -25 535 -40 l 531 -17 q 546 51 538 18 q 563 118 554 85 q 569 135 567 126 q 572 151 572 143 l 581 163 l 583 174 l 578 192 l 531 193 q 510 181 531 188 q 466 167 489 174 q 436 157 443 161 q 424 149 431 154 q 408 146 417 144 l 393 147 l 388 160 l 381 156 l 356 156 l 342 144 l 343 144 l 329 131 l 326 131 l 294 106 l 296 104 q 199 22 254 65 q 81 -63 143 -22 q -44 -135 18 -104 q -162 -178 -107 -165 m 801 564 l 803 568 l 800 568 l 797 565 l 801 564 m 785 444 l 779 446 l 789 460 l 793 446 l 785 444 m 731 431 l 738 440 l 736 444 l 722 435 l 731 431 m 53 -7 l 56 1 l 60 0 l 61 -6 l 60 -7 l 53 -7 m 671 772 q 665 769 668 771 q 658 768 661 768 q 654 776 654 768 q 664 806 654 790 q 678 829 674 822 q 697 844 686 836 q 719 854 708 851 q 757 860 731 860 q 767 859 764 860 q 775 858 771 858 q 778 854 778 858 q 782 851 779 850 l 796 853 q 812 849 800 853 q 825 843 824 844 q 846 833 832 842 q 867 829 860 825 q 875 832 872 832 q 887 826 882 832 q 899 821 892 821 q 925 828 911 821 q 936 839 931 831 q 947 857 942 847 q 954 861 950 861 q 960 858 957 861 q 961 849 964 856 q 956 831 958 842 q 950 817 953 819 q 936 800 947 811 q 927 794 935 799 q 913 789 919 789 q 908 790 910 789 q 901 788 907 790 q 900 783 900 786 q 892 776 900 779 q 879 772 883 774 q 871 773 875 772 q 856 775 867 774 q 839 786 849 785 l 833 786 q 819 790 825 786 q 803 797 814 794 q 797 803 800 801 q 788 799 794 806 q 783 798 788 799 q 781 801 779 797 l 782 807 q 767 813 782 814 q 760 808 765 808 q 747 812 754 808 q 733 814 740 815 l 719 813 q 712 812 715 813 q 706 817 708 811 q 705 818 706 818 q 704 818 704 818 q 701 815 703 818 q 696 808 699 811 q 686 800 688 804 l 679 785 q 677 778 678 782 q 671 772 676 775 z "},"B":{"ha":821,"x_min":4,"x_max":1006,"o":"m 454 -72 l 449 -69 q 439 -35 439 -53 q 463 25 439 -3 q 521 77 486 53 q 590 123 556 101 q 649 163 625 144 q 672 199 672 182 q 653 221 672 214 q 622 232 635 228 l 617 242 l 617 244 l 611 244 l 613 243 l 613 242 q 582 238 599 238 l 568 243 l 565 243 l 565 236 l 558 238 l 553 243 l 549 238 l 549 236 l 547 238 q 536 239 544 239 q 523 238 531 239 q 508 236 515 236 l 510 244 l 506 243 l 492 246 l 493 240 l 492 240 l 492 242 l 485 244 l 482 242 l 469 258 l 471 258 l 469 261 q 463 264 468 261 q 454 267 457 267 q 441 262 447 267 q 431 254 435 257 l 429 243 l 421 240 q 417 225 419 233 q 413 208 414 217 q 394 168 401 199 q 381 101 386 138 q 373 31 375 64 q 371 -19 371 -3 l 379 -39 l 381 -39 l 390 -51 l 390 -53 l 388 -56 l 356 -51 q 324 -14 339 -40 q 306 31 310 13 l 301 33 l 301 42 q 289 76 289 60 l 303 114 l 293 128 l 306 151 l 306 156 l 296 156 l 289 151 l 289 153 l 293 161 q 301 201 290 179 q 323 247 311 224 q 335 288 335 269 q 351 312 346 299 q 363 339 357 325 q 430 449 390 397 q 508 551 469 500 l 508 556 q 453 549 494 556 q 360 531 413 542 q 259 505 308 519 q 176 474 210 490 q 142 443 143 458 l 151 439 q 172 445 161 444 q 193 446 183 446 l 213 453 l 211 450 q 156 406 181 429 q 107 356 131 382 l 97 353 l 93 343 l 76 340 l 75 338 l 76 313 l 31 336 q 15 364 25 351 q 4 393 4 376 q 84 465 39 436 q 178 517 129 494 q 275 561 228 539 l 275 558 q 292 556 283 556 q 313 560 303 556 q 335 568 324 565 l 335 565 q 361 572 349 568 q 386 581 374 575 l 386 578 l 407 585 l 407 586 l 415 585 l 413 586 q 415 588 413 589 q 418 585 418 586 l 425 586 l 429 593 l 436 590 l 433 593 l 436 592 l 438 590 l 458 590 l 469 594 l 471 599 l 508 597 l 510 599 l 522 604 q 541 605 532 604 q 560 606 550 606 q 578 632 571 617 q 604 647 586 647 q 638 639 622 647 q 671 631 653 631 q 694 615 675 622 q 738 602 713 607 q 785 595 763 597 q 815 593 807 593 l 815 593 l 817 593 l 815 593 l 875 575 l 881 576 q 915 560 893 576 q 959 524 938 543 q 990 494 981 504 q 996 474 993 485 q 1006 453 999 463 q 985 374 1000 400 q 944 338 971 349 q 871 314 917 326 l 853 315 l 853 308 l 850 308 l 844 314 l 789 297 l 789 306 q 751 288 764 288 q 708 285 738 288 l 708 288 l 699 288 l 683 281 l 672 285 l 658 283 l 657 276 q 704 249 686 261 q 731 219 722 238 q 740 164 740 200 q 733 143 740 153 q 722 122 725 133 l 692 92 l 689 93 q 635 72 663 78 q 581 63 608 67 l 576 71 q 530 47 556 64 q 485 8 504 31 q 467 -40 467 -14 q 457 -55 460 -46 q 454 -72 454 -64 m 464 286 q 505 294 481 286 q 546 308 529 303 l 547 313 l 585 321 l 585 322 l 590 322 l 594 328 q 633 335 614 331 q 671 339 653 339 q 729 351 699 351 q 762 362 744 358 q 794 369 779 365 l 797 372 q 838 387 818 379 q 878 404 858 394 l 875 406 l 919 450 l 921 475 q 906 502 915 488 q 881 518 897 517 l 882 517 q 829 542 856 526 q 772 560 803 558 l 772 558 l 768 558 q 754 563 760 563 q 743 561 749 563 q 731 560 738 560 l 718 568 l 701 568 q 672 569 686 568 q 642 571 657 569 q 597 524 624 554 q 545 463 569 494 q 510 408 521 432 l 510 394 q 480 358 490 386 q 456 314 469 331 l 454 304 l 457 297 l 456 296 l 464 286 m 236 456 l 240 465 l 243 463 l 244 457 l 243 456 l 236 456 z "},"C":{"ha":701,"x_min":76,"x_max":965,"o":"m 340 -50 l 326 -40 l 314 -39 l 301 -33 l 283 -39 q 247 -18 272 -15 q 165 40 204 4 q 101 120 126 75 q 76 217 76 165 q 81 252 76 228 q 94 297 85 276 q 118 318 104 318 q 149 356 129 331 q 192 403 169 382 q 231 424 214 424 q 244 434 244 424 q 247 454 243 444 q 276 464 251 464 q 295 472 288 464 q 304 490 303 481 l 315 497 l 321 493 q 345 502 335 493 q 361 522 356 511 l 375 517 q 438 549 410 526 q 501 576 467 571 l 513 586 q 563 599 538 593 q 614 601 588 604 q 644 613 629 607 q 675 618 658 618 q 734 607 706 618 q 793 596 763 596 q 808 607 806 596 q 811 626 811 618 q 810 648 811 638 q 803 668 810 658 l 810 672 q 842 666 818 672 q 893 651 865 660 q 942 634 921 643 q 965 618 963 625 l 960 593 l 928 581 l 915 586 q 902 570 903 583 q 901 546 901 557 q 889 535 900 535 q 884 535 888 535 q 876 538 881 536 l 875 535 l 888 513 l 885 507 l 888 500 l 885 496 l 872 501 l 867 499 l 868 492 q 860 459 863 481 q 839 438 858 438 q 798 393 819 419 q 746 364 776 367 l 746 365 l 751 400 l 746 410 q 765 463 757 438 q 775 518 772 489 l 789 533 q 792 545 789 538 q 794 556 794 553 q 793 569 794 563 q 790 581 792 575 q 768 593 782 590 q 740 596 754 596 q 606 569 681 596 q 458 494 532 542 q 321 388 383 447 q 221 261 258 328 q 183 129 183 194 q 222 50 183 71 q 313 29 261 29 q 422 42 368 29 q 528 75 476 56 q 554 78 542 75 q 576 88 567 82 l 576 90 l 603 96 l 610 92 l 614 96 l 614 101 l 633 106 l 651 119 l 661 101 l 653 106 l 646 92 l 647 89 q 560 25 613 56 q 452 -24 508 -6 q 346 -40 396 -42 l 347 -44 l 340 -50 m 726 333 l 731 356 l 739 349 l 726 333 m 729 146 l 724 151 l 724 154 q 749 163 735 161 q 729 146 740 153 m 671 104 l 664 110 q 669 124 664 118 q 682 126 674 129 l 676 129 q 704 142 694 132 l 718 142 l 693 114 l 693 113 l 688 114 l 681 106 l 671 104 z "},"Ć":{"ha":701,"x_min":76,"x_max":965,"o":"m 340 -50 l 326 -40 l 314 -39 l 301 -33 l 283 -39 q 247 -18 272 -15 q 165 40 204 4 q 101 120 126 75 q 76 217 76 165 q 81 252 76 228 q 94 297 85 276 q 118 318 104 318 q 149 356 129 331 q 192 403 169 382 q 231 424 214 424 q 244 434 244 424 q 247 454 243 444 q 276 464 251 464 q 295 472 288 464 q 304 490 303 481 l 315 497 l 321 493 q 345 502 335 493 q 361 522 356 511 l 375 517 q 438 549 410 526 q 501 576 467 571 l 513 586 q 563 599 538 593 q 614 601 588 604 q 644 613 629 607 q 675 618 658 618 q 734 607 706 618 q 793 596 763 596 q 808 607 806 596 q 811 626 811 618 q 810 648 811 638 q 803 668 810 658 l 810 672 q 842 666 818 672 q 893 651 865 660 q 942 634 921 643 q 965 618 963 625 l 960 593 l 928 581 l 915 586 q 902 570 903 583 q 901 546 901 557 q 889 535 900 535 q 884 535 888 535 q 876 538 881 536 l 875 535 l 888 513 l 885 507 l 888 500 l 885 496 l 872 501 l 867 499 l 868 492 q 860 459 863 481 q 839 438 858 438 q 798 393 819 419 q 746 364 776 367 l 746 365 l 751 400 l 746 410 q 765 463 757 438 q 775 518 772 489 l 789 533 q 792 545 789 538 q 794 556 794 553 q 793 569 794 563 q 790 581 792 575 q 768 593 782 590 q 740 596 754 596 q 606 569 681 596 q 458 494 532 542 q 321 388 383 447 q 221 261 258 328 q 183 129 183 194 q 222 50 183 71 q 313 29 261 29 q 422 42 368 29 q 528 75 476 56 q 554 78 542 75 q 576 88 567 82 l 576 90 l 603 96 l 610 92 l 614 96 l 614 101 l 633 106 l 651 119 l 661 101 l 653 106 l 646 92 l 647 89 q 560 25 613 56 q 452 -24 508 -6 q 346 -40 396 -42 l 347 -44 l 340 -50 m 726 333 l 731 356 l 739 349 l 726 333 m 729 146 l 724 151 l 724 154 q 749 163 735 161 q 729 146 740 153 m 671 104 l 664 110 q 669 124 664 118 q 682 126 674 129 l 676 129 q 704 142 694 132 l 718 142 l 693 114 l 693 113 l 688 114 l 681 106 l 671 104 m 711 736 l 707 736 q 696 741 700 736 q 694 747 692 746 q 712 761 704 754 q 728 775 719 768 l 764 810 l 778 825 l 779 824 l 783 828 q 789 829 788 828 l 832 869 l 833 868 l 835 869 q 839 872 835 872 l 847 871 q 849 876 850 871 q 850 883 847 882 q 856 885 851 885 q 866 881 861 885 q 876 874 871 876 l 889 864 q 892 862 890 863 q 894 858 894 861 l 897 857 l 900 857 l 899 853 l 897 842 l 882 832 l 869 826 l 860 824 q 852 819 851 822 q 847 813 853 817 l 836 807 q 831 808 835 806 l 803 781 l 781 771 q 772 771 775 769 q 767 769 769 772 q 758 763 761 768 q 751 758 756 757 q 731 749 740 757 q 711 736 722 740 z "},"Č":{"ha":701,"x_min":76,"x_max":999,"o":"m 983 906 q 990 907 986 907 q 998 903 997 907 q 996 897 999 900 q 973 883 985 892 q 950 868 961 875 q 926 852 944 865 q 897 832 907 839 l 876 815 l 875 817 l 869 813 q 864 811 865 813 l 846 799 l 846 797 l 844 797 l 836 789 l 835 790 l 833 789 q 831 787 833 788 q 826 786 828 786 l 819 782 q 814 779 819 782 q 811 775 814 775 q 799 772 807 772 q 788 767 793 769 q 779 769 782 764 q 778 770 778 769 q 778 771 778 771 q 781 778 778 774 q 781 782 783 782 l 772 781 q 768 783 765 781 l 767 785 l 765 783 l 754 806 q 750 807 754 807 l 747 811 l 746 810 l 736 826 q 724 847 732 833 q 714 863 715 860 q 701 878 707 869 q 689 892 696 886 q 694 900 688 894 q 710 903 701 906 q 730 894 721 899 q 750 886 739 889 q 749 876 750 883 q 754 868 749 869 q 761 865 756 865 q 768 864 767 865 l 788 854 l 788 844 q 791 847 789 846 q 793 846 793 847 l 804 840 q 809 837 807 838 q 813 835 811 836 l 825 828 q 836 832 832 832 q 846 836 840 832 l 861 842 q 864 842 863 843 q 865 840 865 842 l 872 849 l 897 861 q 906 865 900 864 q 915 868 911 865 q 927 878 922 869 q 933 889 932 886 q 960 897 947 892 q 983 906 972 903 m 340 -50 l 326 -40 l 314 -39 l 301 -33 l 283 -39 q 247 -18 272 -15 q 165 40 204 4 q 101 120 126 75 q 76 217 76 165 q 81 252 76 228 q 94 297 85 276 q 118 318 104 318 q 149 356 129 331 q 192 403 169 382 q 231 424 214 424 q 244 434 244 424 q 247 454 243 444 q 276 464 251 464 q 295 472 288 464 q 304 490 303 481 l 315 497 l 321 493 q 345 502 335 493 q 361 522 356 511 l 375 517 q 438 549 410 526 q 501 576 467 571 l 513 586 q 563 599 538 593 q 614 601 588 604 q 644 613 629 607 q 675 618 658 618 q 734 607 706 618 q 793 596 763 596 q 808 607 806 596 q 811 626 811 618 q 810 648 811 638 q 803 668 810 658 l 810 672 q 842 666 818 672 q 893 651 865 660 q 942 634 921 643 q 965 618 963 625 l 960 593 l 928 581 l 915 586 q 902 570 903 583 q 901 546 901 557 q 889 535 900 535 q 884 535 888 535 q 876 538 881 536 l 875 535 l 888 513 l 885 507 l 888 500 l 885 496 l 872 501 l 867 499 l 868 492 q 860 459 863 481 q 839 438 858 438 q 798 393 819 419 q 746 364 776 367 l 746 365 l 751 400 l 746 410 q 765 463 757 438 q 775 518 772 489 l 789 533 q 792 545 789 538 q 794 556 794 553 q 793 569 794 563 q 790 581 792 575 q 768 593 782 590 q 740 596 754 596 q 606 569 681 596 q 458 494 532 542 q 321 388 383 447 q 221 261 258 328 q 183 129 183 194 q 222 50 183 71 q 313 29 261 29 q 422 42 368 29 q 528 75 476 56 q 554 78 542 75 q 576 88 567 82 l 576 90 l 603 96 l 610 92 l 614 96 l 614 101 l 633 106 l 651 119 l 661 101 l 653 106 l 646 92 l 647 89 q 560 25 613 56 q 452 -24 508 -6 q 346 -40 396 -42 l 347 -44 l 340 -50 m 726 333 l 731 356 l 739 349 l 726 333 m 729 146 l 724 151 l 724 154 q 749 163 735 161 q 729 146 740 153 m 671 104 l 664 110 q 669 124 664 118 q 682 126 674 129 l 676 129 q 704 142 694 132 l 718 142 l 693 114 l 693 113 l 688 114 l 681 106 l 671 104 z "},"Ç":{"ha":701,"x_min":76,"x_max":965,"o":"m 340 -50 l 326 -40 l 314 -39 l 301 -33 l 283 -39 q 247 -18 272 -15 q 165 40 204 4 q 101 120 126 75 q 76 217 76 165 q 81 252 76 228 q 94 297 85 276 q 118 318 104 318 q 149 356 129 331 q 192 403 169 382 q 231 424 214 424 q 244 434 244 424 q 247 454 243 444 q 276 464 251 464 q 295 472 288 464 q 304 490 303 481 l 315 497 l 321 493 q 345 502 335 493 q 361 522 356 511 l 375 517 q 438 549 410 526 q 501 576 467 571 l 513 586 q 563 599 538 593 q 614 601 588 604 q 644 613 629 607 q 675 618 658 618 q 734 607 706 618 q 793 596 763 596 q 808 607 806 596 q 811 626 811 618 q 810 648 811 638 q 803 668 810 658 l 810 672 q 842 666 818 672 q 893 651 865 660 q 942 634 921 643 q 965 618 963 625 l 960 593 l 928 581 l 915 586 q 902 570 903 583 q 901 546 901 557 q 889 535 900 535 q 884 535 888 535 q 876 538 881 536 l 875 535 l 888 513 l 885 507 l 888 500 l 885 496 l 872 501 l 867 499 l 868 492 q 860 459 863 481 q 839 438 858 438 q 798 393 819 419 q 746 364 776 367 l 746 365 l 751 400 l 746 410 q 765 463 757 438 q 775 518 772 489 l 789 533 q 792 545 789 538 q 794 556 794 553 q 793 569 794 563 q 790 581 792 575 q 768 593 782 590 q 740 596 754 596 q 606 569 681 596 q 458 494 532 542 q 321 388 383 447 q 221 261 258 328 q 183 129 183 194 q 222 50 183 71 q 313 29 261 29 q 422 42 368 29 q 528 75 476 56 q 554 78 542 75 q 576 88 567 82 l 576 90 l 603 96 l 610 92 l 614 96 l 614 101 l 633 106 l 651 119 l 661 101 l 653 106 l 646 92 l 647 89 q 560 25 613 56 q 452 -24 508 -6 q 346 -40 396 -42 l 347 -44 l 340 -50 m 726 333 l 731 356 l 739 349 l 726 333 m 729 146 l 724 151 l 724 154 q 749 163 735 161 q 729 146 740 153 m 671 104 l 664 110 q 669 124 664 118 q 682 126 674 129 l 676 129 q 704 142 694 132 l 718 142 l 693 114 l 693 113 l 688 114 l 681 106 l 671 104 m 157 -281 q 131 -265 143 -275 q 118 -253 118 -254 l 119 -246 l 119 -243 q 123 -235 119 -240 q 128 -226 126 -229 q 136 -222 133 -222 q 139 -221 139 -221 l 140 -221 l 138 -235 q 136 -239 136 -236 q 144 -249 138 -244 q 157 -254 151 -254 q 168 -256 164 -256 q 176 -256 172 -256 l 203 -256 q 212 -251 208 -256 q 218 -246 215 -247 q 234 -240 226 -242 q 244 -236 242 -237 q 254 -231 247 -231 q 271 -211 254 -228 q 276 -209 272 -211 q 281 -204 279 -207 q 281 -202 282 -203 q 281 -199 279 -201 q 295 -174 289 -187 q 299 -146 301 -160 q 291 -132 293 -136 q 281 -125 289 -128 q 270 -119 276 -122 q 260 -115 264 -115 l 257 -115 q 244 -117 251 -115 q 229 -119 236 -119 q 218 -124 224 -119 q 207 -128 213 -128 q 199 -126 201 -126 q 196 -115 197 -125 q 208 -98 200 -111 q 224 -72 215 -85 q 238 -56 232 -58 q 242 -50 240 -54 q 246 -46 244 -46 q 252 -40 253 -42 q 260 -35 251 -39 q 263 -26 265 -31 q 267 -21 261 -22 q 277 -18 271 -18 q 286 -18 283 -18 q 308 -21 307 -18 q 311 -26 311 -26 q 306 -31 310 -28 q 300 -36 303 -33 l 292 -46 q 284 -51 288 -49 q 278 -60 281 -53 q 274 -61 278 -61 q 268 -64 271 -61 q 267 -67 267 -65 q 267 -71 268 -69 q 261 -74 265 -72 q 257 -76 257 -76 q 249 -90 256 -83 q 235 -101 242 -96 q 256 -97 247 -99 q 274 -96 265 -96 q 290 -97 282 -96 q 303 -100 297 -99 q 308 -103 306 -100 q 311 -110 310 -107 l 321 -110 q 345 -120 340 -110 q 351 -137 350 -131 q 353 -149 353 -140 q 346 -185 353 -161 q 343 -191 344 -186 q 339 -199 342 -196 q 334 -207 338 -201 q 325 -218 331 -212 q 317 -222 322 -219 q 310 -229 313 -224 q 306 -233 306 -233 q 303 -234 304 -233 q 296 -246 303 -235 q 291 -248 293 -246 q 286 -253 289 -250 q 276 -256 276 -258 q 267 -261 276 -254 l 239 -274 q 230 -276 232 -276 q 221 -278 228 -275 q 191 -281 215 -279 q 157 -281 167 -282 z "},"Ĉ":{"ha":701,"x_min":76,"x_max":965,"o":"m 340 -50 l 326 -40 l 314 -39 l 301 -33 l 283 -39 q 247 -18 272 -15 q 165 40 204 4 q 101 120 126 75 q 76 217 76 165 q 81 252 76 228 q 94 297 85 276 q 118 318 104 318 q 149 356 129 331 q 192 403 169 382 q 231 424 214 424 q 244 434 244 424 q 247 454 243 444 q 276 464 251 464 q 295 472 288 464 q 304 490 303 481 l 315 497 l 321 493 q 345 502 335 493 q 361 522 356 511 l 375 517 q 438 549 410 526 q 501 576 467 571 l 513 586 q 563 599 538 593 q 614 601 588 604 q 644 613 629 607 q 675 618 658 618 q 734 607 706 618 q 793 596 763 596 q 808 607 806 596 q 811 626 811 618 q 810 648 811 638 q 803 668 810 658 l 810 672 q 842 666 818 672 q 893 651 865 660 q 942 634 921 643 q 965 618 963 625 l 960 593 l 928 581 l 915 586 q 902 570 903 583 q 901 546 901 557 q 889 535 900 535 q 884 535 888 535 q 876 538 881 536 l 875 535 l 888 513 l 885 507 l 888 500 l 885 496 l 872 501 l 867 499 l 868 492 q 860 459 863 481 q 839 438 858 438 q 798 393 819 419 q 746 364 776 367 l 746 365 l 751 400 l 746 410 q 765 463 757 438 q 775 518 772 489 l 789 533 q 792 545 789 538 q 794 556 794 553 q 793 569 794 563 q 790 581 792 575 q 768 593 782 590 q 740 596 754 596 q 606 569 681 596 q 458 494 532 542 q 321 388 383 447 q 221 261 258 328 q 183 129 183 194 q 222 50 183 71 q 313 29 261 29 q 422 42 368 29 q 528 75 476 56 q 554 78 542 75 q 576 88 567 82 l 576 90 l 603 96 l 610 92 l 614 96 l 614 101 l 633 106 l 651 119 l 661 101 l 653 106 l 646 92 l 647 89 q 560 25 613 56 q 452 -24 508 -6 q 346 -40 396 -42 l 347 -44 l 340 -50 m 726 333 l 731 356 l 739 349 l 726 333 m 729 146 l 724 151 l 724 154 q 749 163 735 161 q 729 146 740 153 m 671 104 l 664 110 q 669 124 664 118 q 682 126 674 129 l 676 129 q 704 142 694 132 l 718 142 l 693 114 l 693 113 l 688 114 l 681 106 l 671 104 m 651 731 q 644 729 649 729 q 638 733 639 729 q 639 739 636 738 q 662 753 650 746 q 685 768 674 761 q 709 784 690 771 q 738 804 728 797 l 758 821 l 760 819 l 765 824 q 771 825 769 824 l 789 838 l 789 839 l 790 839 l 799 847 l 800 846 l 801 847 q 804 849 801 849 q 808 850 807 850 l 815 854 q 821 857 815 854 q 824 861 821 861 q 836 864 828 864 q 848 870 843 867 q 856 867 853 874 q 857 866 857 867 q 857 865 857 865 q 855 858 857 863 q 854 854 853 854 l 863 856 q 867 853 869 856 l 868 851 l 869 853 l 881 831 q 885 829 881 829 l 888 825 l 889 826 l 899 810 q 911 790 903 803 q 921 774 919 776 q 933 759 928 767 q 946 744 939 751 q 941 738 949 743 q 925 733 933 732 q 905 743 914 738 q 885 750 896 749 q 885 760 885 753 q 881 768 886 767 q 874 771 879 771 q 867 772 869 771 l 847 782 l 847 792 q 844 790 846 790 q 842 790 842 789 l 831 796 q 827 799 829 799 q 822 801 825 800 l 810 808 q 799 804 803 804 q 789 800 796 804 l 774 794 q 771 794 772 793 q 769 796 769 794 l 763 788 l 738 775 q 729 772 735 774 q 719 768 724 771 q 709 758 714 767 q 701 747 704 750 q 675 740 688 746 q 651 731 663 733 z "},"Ċ":{"ha":701,"x_min":76,"x_max":965,"o":"m 340 -50 l 326 -40 l 314 -39 l 301 -33 l 283 -39 q 247 -18 272 -15 q 165 40 204 4 q 101 120 126 75 q 76 217 76 165 q 81 252 76 228 q 94 297 85 276 q 118 318 104 318 q 149 356 129 331 q 192 403 169 382 q 231 424 214 424 q 244 434 244 424 q 247 454 243 444 q 276 464 251 464 q 295 472 288 464 q 304 490 303 481 l 315 497 l 321 493 q 345 502 335 493 q 361 522 356 511 l 375 517 q 438 549 410 526 q 501 576 467 571 l 513 586 q 563 599 538 593 q 614 601 588 604 q 644 613 629 607 q 675 618 658 618 q 734 607 706 618 q 793 596 763 596 q 808 607 806 596 q 811 626 811 618 q 810 648 811 638 q 803 668 810 658 l 810 672 q 842 666 818 672 q 893 651 865 660 q 942 634 921 643 q 965 618 963 625 l 960 593 l 928 581 l 915 586 q 902 570 903 583 q 901 546 901 557 q 889 535 900 535 q 884 535 888 535 q 876 538 881 536 l 875 535 l 888 513 l 885 507 l 888 500 l 885 496 l 872 501 l 867 499 l 868 492 q 860 459 863 481 q 839 438 858 438 q 798 393 819 419 q 746 364 776 367 l 746 365 l 751 400 l 746 410 q 765 463 757 438 q 775 518 772 489 l 789 533 q 792 545 789 538 q 794 556 794 553 q 793 569 794 563 q 790 581 792 575 q 768 593 782 590 q 740 596 754 596 q 606 569 681 596 q 458 494 532 542 q 321 388 383 447 q 221 261 258 328 q 183 129 183 194 q 222 50 183 71 q 313 29 261 29 q 422 42 368 29 q 528 75 476 56 q 554 78 542 75 q 576 88 567 82 l 576 90 l 603 96 l 610 92 l 614 96 l 614 101 l 633 106 l 651 119 l 661 101 l 653 106 l 646 92 l 647 89 q 560 25 613 56 q 452 -24 508 -6 q 346 -40 396 -42 l 347 -44 l 340 -50 m 726 333 l 731 356 l 739 349 l 726 333 m 729 146 l 724 151 l 724 154 q 749 163 735 161 q 729 146 740 153 m 671 104 l 664 110 q 669 124 664 118 q 682 126 674 129 l 676 129 q 704 142 694 132 l 718 142 l 693 114 l 693 113 l 688 114 l 681 106 l 671 104 m 810 736 q 787 745 801 736 q 760 767 772 754 q 749 786 749 779 q 772 801 749 792 q 819 822 794 811 q 853 836 844 832 l 853 833 q 846 818 853 828 q 833 804 839 808 l 836 794 l 833 778 q 826 754 831 772 q 810 736 821 736 z "},"D":{"ha":921,"x_min":10,"x_max":1050,"o":"m 364 -94 l 331 -90 q 305 -62 314 -79 q 289 -28 296 -44 l 282 -28 q 252 -37 258 -28 q 240 -55 246 -46 q 213 -64 235 -64 q 181 -60 197 -64 q 147 -57 164 -57 q 130 -60 138 -57 q 113 -62 122 -62 q 68 -56 92 -62 q 27 -33 44 -49 q 10 6 10 -18 q 37 59 10 39 q 93 83 64 79 l 90 81 q 54 56 75 71 q 33 19 33 42 q 58 -11 33 0 q 99 -22 82 -22 l 106 -19 q 144 -24 122 -24 q 215 -18 178 -24 q 276 -7 251 -12 l 276 3 q 264 38 264 21 l 279 75 l 269 89 l 282 113 l 282 117 l 271 118 l 264 113 l 264 114 l 269 122 q 276 163 265 140 q 298 208 286 185 q 310 249 310 231 q 335 287 321 258 q 364 346 350 315 q 386 392 378 376 q 446 494 413 444 q 517 590 479 543 q 490 582 503 586 q 461 578 476 578 q 421 563 451 571 q 356 545 390 554 q 297 527 322 536 q 272 510 272 518 l 276 503 l 299 518 l 304 515 l 313 522 l 314 517 q 306 488 314 500 l 300 500 l 288 492 l 290 482 l 282 479 q 294 468 289 475 q 303 454 299 461 q 242 433 271 453 q 182 408 214 413 q 164 396 175 399 q 142 393 153 393 q 121 406 135 393 q 97 435 107 419 q 86 458 86 451 q 104 490 86 474 q 132 515 122 507 l 117 488 q 164 511 133 499 q 227 535 194 524 q 286 559 260 547 q 322 579 313 571 q 433 608 376 594 q 544 626 489 621 q 567 652 551 635 q 600 684 583 669 q 628 699 617 699 q 672 697 653 699 q 701 668 692 694 q 690 641 701 653 q 667 622 678 629 l 681 619 q 699 633 692 624 l 707 635 l 710 635 q 724 631 718 635 q 736 621 731 626 l 751 628 q 836 610 786 628 q 935 564 886 593 q 1017 498 985 535 q 1050 421 1050 461 q 1047 385 1050 403 q 1042 351 1044 368 l 1033 354 l 1026 349 l 1026 346 l 1038 333 q 1008 276 1028 303 q 964 228 988 249 q 919 199 942 222 q 874 164 897 175 q 842 139 858 146 q 810 108 825 132 l 797 121 l 794 117 l 796 108 q 775 97 796 97 q 765 98 769 97 q 757 99 760 99 l 750 92 l 751 81 q 738 71 750 79 q 726 69 726 63 l 724 69 q 681 43 700 56 l 671 50 l 664 38 q 658 47 663 40 q 649 54 654 53 l 633 38 l 632 38 l 615 46 l 600 35 l 593 40 l 569 29 l 571 28 l 581 28 l 589 19 l 589 18 l 585 18 l 563 24 l 547 18 l 539 19 q 571 39 553 31 l 563 43 l 544 29 l 532 35 l 532 29 q 514 18 519 26 l 514 6 l 508 4 l 493 11 q 480 6 486 8 q 468 -1 474 3 q 414 -16 440 -4 q 358 -28 388 -28 l 347 -22 l 346 -57 l 356 -78 l 357 -78 l 365 -90 l 365 -92 l 364 -94 m 349 14 q 565 95 460 47 q 771 199 669 143 l 778 197 l 785 199 l 783 204 l 788 210 l 794 204 l 811 217 l 810 219 l 801 222 q 836 251 806 233 q 903 292 867 268 q 968 349 940 317 q 996 425 996 382 q 969 503 996 472 q 901 554 943 535 q 810 583 860 574 q 715 597 761 593 q 636 601 669 601 q 616 573 622 588 q 600 549 610 558 q 567 539 590 539 l 556 529 l 556 515 q 525 478 535 506 q 501 433 515 451 l 499 422 l 503 418 l 476 374 l 474 363 l 468 367 q 457 333 468 358 q 431 276 446 307 q 403 215 415 244 q 389 171 392 186 q 371 128 379 161 q 357 63 363 96 q 349 14 351 29 m 588 46 q 608 60 599 50 l 603 63 q 592 58 597 61 q 582 51 588 54 l 588 46 z "},"Ǆ":{"ha":1643,"x_min":10,"x_max":1754,"o":"m 1713 906 q 1719 907 1715 907 q 1727 903 1726 907 q 1725 897 1728 900 q 1702 883 1714 892 q 1679 868 1690 875 q 1655 852 1674 865 q 1626 832 1636 839 l 1606 815 l 1604 817 l 1599 813 q 1593 811 1594 813 l 1575 799 l 1575 797 l 1574 797 l 1565 789 l 1564 790 l 1563 789 q 1560 787 1563 788 q 1556 786 1557 786 l 1549 782 q 1543 779 1549 782 q 1540 775 1543 775 q 1528 772 1536 772 q 1517 767 1522 769 q 1508 769 1511 764 q 1507 770 1507 769 q 1507 771 1507 771 q 1510 778 1507 774 q 1510 782 1513 782 l 1501 781 q 1497 783 1494 781 l 1496 785 l 1494 783 l 1483 806 q 1479 807 1483 807 l 1476 811 l 1475 810 l 1465 826 q 1453 847 1461 833 q 1443 863 1444 860 q 1431 878 1436 869 q 1418 892 1425 886 q 1424 900 1417 894 q 1439 903 1431 906 q 1459 894 1450 899 q 1479 886 1468 889 q 1478 876 1479 883 q 1483 868 1478 869 q 1490 865 1485 865 q 1497 864 1496 865 l 1517 854 l 1517 844 q 1520 847 1518 846 q 1522 846 1522 847 l 1533 840 q 1538 837 1536 838 q 1542 835 1540 836 l 1554 828 q 1565 832 1561 832 q 1575 836 1569 832 l 1590 842 q 1593 842 1592 843 q 1594 840 1594 842 l 1601 849 l 1626 861 q 1635 865 1629 864 q 1644 868 1640 865 q 1656 878 1651 869 q 1663 889 1661 886 q 1689 897 1676 892 q 1713 906 1701 903 m 364 -94 l 331 -90 q 305 -62 314 -79 q 289 -28 296 -44 l 282 -28 q 252 -37 258 -28 q 240 -55 246 -46 q 213 -64 235 -64 q 181 -60 197 -64 q 147 -57 164 -57 q 130 -60 138 -57 q 113 -62 122 -62 q 68 -56 92 -62 q 27 -33 44 -49 q 10 6 10 -18 q 37 59 10 39 q 93 83 64 79 l 90 81 q 54 56 75 71 q 33 19 33 42 q 58 -11 33 0 q 99 -22 82 -22 l 106 -19 q 144 -24 122 -24 q 215 -18 178 -24 q 276 -7 251 -12 l 276 3 q 264 38 264 21 l 279 75 l 269 89 l 282 113 l 282 117 l 271 118 l 264 113 l 264 114 l 269 122 q 276 163 265 140 q 298 208 286 185 q 310 249 310 231 q 335 287 321 258 q 364 346 350 315 q 386 392 378 376 q 446 494 413 444 q 517 590 479 543 q 490 582 503 586 q 461 578 476 578 q 421 563 451 571 q 356 545 390 554 q 297 527 322 536 q 272 510 272 518 l 276 503 l 299 518 l 304 515 l 313 522 l 314 517 q 306 488 314 500 l 300 500 l 288 492 l 290 482 l 282 479 q 294 468 289 475 q 303 454 299 461 q 242 433 271 453 q 182 408 214 413 q 164 396 175 399 q 142 393 153 393 q 121 406 135 393 q 97 435 107 419 q 86 458 86 451 q 104 490 86 474 q 132 515 122 507 l 117 488 q 164 511 133 499 q 227 535 194 524 q 286 559 260 547 q 322 579 313 571 q 433 608 376 594 q 544 626 489 621 q 567 652 551 635 q 600 684 583 669 q 628 699 617 699 q 672 697 653 699 q 701 668 692 694 q 690 641 701 653 q 667 622 678 629 l 681 619 q 699 633 692 624 l 707 635 l 710 635 q 724 631 718 635 q 736 621 731 626 l 751 628 q 836 610 786 628 q 935 564 886 593 q 1017 498 985 535 q 1050 421 1050 461 q 1047 385 1050 403 q 1042 351 1044 368 l 1033 354 l 1026 349 l 1026 346 l 1038 333 q 1008 276 1028 303 q 964 228 988 249 q 919 199 942 222 q 874 164 897 175 q 842 139 858 146 q 810 108 825 132 l 797 121 l 794 117 l 796 108 q 775 97 796 97 q 765 98 769 97 q 757 99 760 99 l 750 92 l 751 81 q 738 71 750 79 q 726 69 726 63 l 724 69 q 681 43 700 56 l 671 50 l 664 38 q 658 47 663 40 q 649 54 654 53 l 633 38 l 632 38 l 615 46 l 600 35 l 593 40 l 569 29 l 571 28 l 581 28 l 589 19 l 589 18 l 585 18 l 563 24 l 547 18 l 539 19 q 571 39 553 31 l 563 43 l 544 29 l 532 35 l 532 29 q 514 18 519 26 l 514 6 l 508 4 l 493 11 q 480 6 486 8 q 468 -1 474 3 q 414 -16 440 -4 q 358 -28 388 -28 l 347 -22 l 346 -57 l 356 -78 l 357 -78 l 365 -90 l 365 -92 l 364 -94 m 1700 -107 q 1681 -83 1689 -96 q 1665 -56 1672 -69 q 1612 -18 1642 -31 q 1554 13 1582 -6 q 1446 20 1500 15 q 1338 25 1392 25 q 1221 15 1279 25 q 1104 -6 1163 4 q 988 -17 1046 -17 q 940 1 968 -17 q 913 40 913 18 q 933 63 913 54 q 982 74 953 71 q 1037 79 1011 78 q 1072 81 1063 81 q 1176 172 1121 131 q 1288 253 1232 213 q 1392 343 1343 294 l 1393 344 q 1382 354 1390 353 q 1371 364 1374 356 l 1376 369 l 1396 365 l 1401 369 l 1404 389 q 1428 403 1414 403 q 1443 399 1438 403 l 1439 407 l 1439 411 l 1454 414 l 1454 408 l 1469 413 l 1471 425 q 1494 441 1485 431 q 1511 464 1504 451 q 1574 487 1553 478 q 1612 513 1594 496 q 1657 563 1629 529 l 1653 572 q 1574 602 1615 594 q 1489 610 1532 610 q 1425 599 1456 610 q 1365 578 1394 589 q 1301 567 1335 567 q 1289 561 1293 567 q 1282 549 1285 556 q 1260 545 1278 546 q 1220 538 1243 544 q 1176 515 1197 532 q 1139 465 1154 499 q 1134 460 1138 464 q 1128 456 1131 457 l 1126 461 q 1130 485 1126 474 q 1139 506 1133 496 q 1207 584 1165 556 q 1299 626 1249 613 q 1403 642 1350 639 q 1507 646 1457 646 q 1565 644 1525 646 q 1648 635 1604 642 q 1723 615 1692 629 q 1754 576 1754 601 q 1730 513 1754 543 q 1670 455 1706 482 q 1599 406 1635 428 q 1540 365 1564 383 q 1508 347 1522 360 q 1475 335 1494 335 l 1439 307 l 1417 306 l 1411 294 l 1422 292 l 1422 285 q 1399 267 1415 279 q 1367 244 1383 254 q 1340 235 1350 235 q 1224 163 1283 196 q 1114 81 1164 129 l 1158 81 q 1233 85 1196 81 q 1308 86 1271 89 q 1339 90 1324 90 q 1393 81 1369 90 l 1386 72 l 1392 71 q 1410 75 1401 71 q 1428 79 1418 79 l 1436 67 l 1457 67 q 1481 65 1468 67 q 1501 53 1494 64 l 1517 53 q 1538 43 1529 53 q 1557 25 1546 33 q 1590 19 1568 17 l 1600 24 q 1642 8 1618 24 q 1686 -28 1667 -7 q 1706 -68 1706 -50 q 1703 -87 1706 -78 q 1700 -107 1701 -97 m 349 14 q 565 95 460 47 q 771 199 669 143 l 778 197 l 785 199 l 783 204 l 788 210 l 794 204 l 811 217 l 810 219 l 801 222 q 836 251 806 233 q 903 292 867 268 q 968 349 940 317 q 996 425 996 382 q 969 503 996 472 q 901 554 943 535 q 810 583 860 574 q 715 597 761 593 q 636 601 669 601 q 616 573 622 588 q 600 549 610 558 q 567 539 590 539 l 556 529 l 556 515 q 525 478 535 506 q 501 433 515 451 l 499 422 l 503 418 l 476 374 l 474 363 l 468 367 q 457 333 468 358 q 431 276 446 307 q 403 215 415 244 q 389 171 392 186 q 371 128 379 161 q 357 63 363 96 q 349 14 351 29 m 588 46 q 608 60 599 50 l 603 63 q 592 58 597 61 q 582 51 588 54 l 588 46 z "},"Ď":{"ha":921,"x_min":10,"x_max":1101,"o":"m 1086 906 q 1093 907 1089 907 q 1101 903 1100 907 q 1099 897 1101 900 q 1076 883 1088 892 q 1053 868 1064 875 q 1028 852 1047 865 q 1000 832 1010 839 l 979 815 l 978 817 l 972 813 q 967 811 968 813 l 949 799 l 949 797 l 947 797 l 939 789 l 938 790 l 936 789 q 933 787 936 788 q 929 786 931 786 l 922 782 q 917 779 922 782 q 914 775 917 775 q 901 772 910 772 q 890 767 896 769 q 882 769 885 764 q 881 770 881 769 q 881 771 881 771 q 883 778 881 774 q 883 782 886 782 l 875 781 q 871 783 868 781 l 869 785 l 868 783 l 857 806 q 853 807 857 807 l 850 811 l 849 810 l 839 826 q 826 847 835 833 q 817 863 818 860 q 804 878 810 869 q 792 892 799 886 q 797 900 790 894 q 813 903 804 906 q 833 894 824 899 q 853 886 842 889 q 852 876 853 883 q 857 868 851 869 q 864 865 858 865 q 871 864 869 865 l 890 854 l 890 844 q 894 847 892 846 q 896 846 896 847 l 907 840 q 912 837 910 838 q 915 835 914 836 l 928 828 q 939 832 935 832 q 949 836 943 832 l 964 842 q 967 842 965 843 q 968 840 968 842 l 975 849 l 1000 861 q 1008 865 1003 864 q 1018 868 1014 865 q 1030 878 1025 869 q 1036 889 1035 886 q 1063 897 1050 892 q 1086 906 1075 903 m 364 -94 l 331 -90 q 305 -62 314 -79 q 289 -28 296 -44 l 282 -28 q 252 -37 258 -28 q 240 -55 246 -46 q 213 -64 235 -64 q 181 -60 197 -64 q 147 -57 164 -57 q 130 -60 138 -57 q 113 -62 122 -62 q 68 -56 92 -62 q 27 -33 44 -49 q 10 6 10 -18 q 37 59 10 39 q 93 83 64 79 l 90 81 q 54 56 75 71 q 33 19 33 42 q 58 -11 33 0 q 99 -22 82 -22 l 106 -19 q 144 -24 122 -24 q 215 -18 178 -24 q 276 -7 251 -12 l 276 3 q 264 38 264 21 l 279 75 l 269 89 l 282 113 l 282 117 l 271 118 l 264 113 l 264 114 l 269 122 q 276 163 265 140 q 298 208 286 185 q 310 249 310 231 q 335 287 321 258 q 364 346 350 315 q 386 392 378 376 q 446 494 413 444 q 517 590 479 543 q 490 582 503 586 q 461 578 476 578 q 421 563 451 571 q 356 545 390 554 q 297 527 322 536 q 272 510 272 518 l 276 503 l 299 518 l 304 515 l 313 522 l 314 517 q 306 488 314 500 l 300 500 l 288 492 l 290 482 l 282 479 q 294 468 289 475 q 303 454 299 461 q 242 433 271 453 q 182 408 214 413 q 164 396 175 399 q 142 393 153 393 q 121 406 135 393 q 97 435 107 419 q 86 458 86 451 q 104 490 86 474 q 132 515 122 507 l 117 488 q 164 511 133 499 q 227 535 194 524 q 286 559 260 547 q 322 579 313 571 q 433 608 376 594 q 544 626 489 621 q 567 652 551 635 q 600 684 583 669 q 628 699 617 699 q 672 697 653 699 q 701 668 692 694 q 690 641 701 653 q 667 622 678 629 l 681 619 q 699 633 692 624 l 707 635 l 710 635 q 724 631 718 635 q 736 621 731 626 l 751 628 q 836 610 786 628 q 935 564 886 593 q 1017 498 985 535 q 1050 421 1050 461 q 1047 385 1050 403 q 1042 351 1044 368 l 1033 354 l 1026 349 l 1026 346 l 1038 333 q 1008 276 1028 303 q 964 228 988 249 q 919 199 942 222 q 874 164 897 175 q 842 139 858 146 q 810 108 825 132 l 797 121 l 794 117 l 796 108 q 775 97 796 97 q 765 98 769 97 q 757 99 760 99 l 750 92 l 751 81 q 738 71 750 79 q 726 69 726 63 l 724 69 q 681 43 700 56 l 671 50 l 664 38 q 658 47 663 40 q 649 54 654 53 l 633 38 l 632 38 l 615 46 l 600 35 l 593 40 l 569 29 l 571 28 l 581 28 l 589 19 l 589 18 l 585 18 l 563 24 l 547 18 l 539 19 q 571 39 553 31 l 563 43 l 544 29 l 532 35 l 532 29 q 514 18 519 26 l 514 6 l 508 4 l 493 11 q 480 6 486 8 q 468 -1 474 3 q 414 -16 440 -4 q 358 -28 388 -28 l 347 -22 l 346 -57 l 356 -78 l 357 -78 l 365 -90 l 365 -92 l 364 -94 m 349 14 q 565 95 460 47 q 771 199 669 143 l 778 197 l 785 199 l 783 204 l 788 210 l 794 204 l 811 217 l 810 219 l 801 222 q 836 251 806 233 q 903 292 867 268 q 968 349 940 317 q 996 425 996 382 q 969 503 996 472 q 901 554 943 535 q 810 583 860 574 q 715 597 761 593 q 636 601 669 601 q 616 573 622 588 q 600 549 610 558 q 567 539 590 539 l 556 529 l 556 515 q 525 478 535 506 q 501 433 515 451 l 499 422 l 503 418 l 476 374 l 474 363 l 468 367 q 457 333 468 358 q 431 276 446 307 q 403 215 415 244 q 389 171 392 186 q 371 128 379 161 q 357 63 363 96 q 349 14 351 29 m 588 46 q 608 60 599 50 l 603 63 q 592 58 597 61 q 582 51 588 54 l 588 46 z "},"Đ":{"ha":958,"x_min":-94,"x_max":981,"o":"m 21 -68 q -35 -56 -17 -68 q -65 -32 -53 -44 q -94 -17 -76 -19 l -75 25 l -71 19 l -53 33 q -34 28 -43 29 q -15 26 -25 26 q 17 28 0 26 q 47 31 33 31 q 66 29 57 31 q 82 21 75 28 q 98 35 90 28 q 111 49 106 42 l 106 53 q 110 72 108 63 q 114 92 113 82 q 175 146 149 115 l 168 153 l 156 139 l 158 156 l 154 168 q 174 188 161 181 q 193 244 178 218 q 226 293 208 269 l 211 301 q 235 331 221 317 l 218 338 q 179 328 199 338 q 143 308 160 319 l 140 308 q 117 331 121 308 q 113 371 113 354 q 113 389 113 379 q 114 407 113 399 q 163 408 138 406 q 213 411 189 410 l 214 406 q 258 417 236 413 q 303 421 281 421 q 329 442 317 429 q 343 472 342 454 q 361 492 354 483 q 368 513 368 500 q 367 520 368 517 q 365 529 367 524 l 386 536 q 397 579 403 553 l 417 589 q 421 608 418 597 q 433 619 424 618 l 442 618 q 449 636 444 628 q 458 651 454 644 l 453 654 l 443 650 q 456 669 450 658 q 468 689 463 679 q 455 699 463 694 q 439 704 447 704 q 417 693 425 704 l 393 686 l 389 693 q 367 681 379 685 q 343 674 354 676 q 328 657 336 664 q 307 650 321 650 q 292 638 300 644 q 278 625 285 632 q 224 603 251 615 q 220 617 222 610 q 218 631 218 624 q 240 696 218 669 l 243 696 q 358 724 300 718 q 476 731 417 731 q 490 744 483 738 q 507 751 497 750 l 513 749 l 518 750 q 501 771 514 764 q 522 781 511 778 l 618 768 q 627 756 622 761 q 632 743 632 751 l 658 729 q 656 717 657 724 q 654 706 656 711 l 639 701 l 631 706 l 625 697 l 615 699 q 598 693 606 699 q 583 681 590 688 l 579 693 q 553 658 569 679 q 533 621 536 638 l 511 617 l 510 614 l 521 600 l 493 574 q 463 562 481 572 q 450 536 444 551 q 430 499 439 518 q 415 461 421 481 q 404 458 410 460 q 393 454 399 457 l 388 431 l 403 431 q 466 438 435 431 q 529 444 497 444 q 544 444 536 444 q 558 443 551 443 l 571 429 q 547 417 558 424 q 524 399 535 410 q 488 384 504 394 q 456 358 471 374 q 443 361 450 361 q 422 356 432 361 q 406 343 413 350 q 392 344 399 343 q 378 344 385 344 q 313 334 332 344 q 288 308 294 324 q 275 276 282 292 q 247 250 268 261 l 249 243 q 246 226 249 235 l 238 231 q 217 196 228 213 q 193 164 206 179 q 181 122 188 146 q 156 86 174 97 l 150 50 l 186 61 l 182 50 l 185 43 l 208 64 l 203 53 l 204 47 l 199 38 l 204 31 q 223 44 211 36 q 231 64 235 53 q 251 33 244 51 q 263 44 256 40 q 275 53 269 49 l 256 63 l 290 61 q 325 65 308 60 q 357 81 342 71 l 343 92 l 350 99 l 372 81 q 389 92 381 88 q 406 101 397 96 l 410 101 l 400 118 q 442 106 419 108 l 447 118 q 501 145 475 131 q 556 169 528 160 q 575 192 561 182 l 588 188 q 624 211 606 196 l 618 208 l 617 210 l 629 228 l 629 231 q 609 223 619 226 q 588 218 599 219 l 589 224 l 588 229 l 599 222 q 640 243 618 235 l 644 235 q 668 254 661 242 l 664 257 q 696 265 679 265 l 743 310 l 739 319 q 711 299 722 313 l 718 324 q 758 338 733 325 q 790 367 783 351 l 806 361 l 826 392 q 860 408 851 392 q 874 444 869 424 l 858 431 q 870 456 861 449 q 890 468 879 463 q 906 485 900 474 q 915 529 908 508 q 929 569 921 550 q 928 587 929 578 q 926 604 928 596 q 915 629 915 611 q 877 646 897 638 q 863 681 857 654 l 850 667 l 835 683 l 817 675 q 793 693 801 675 l 779 685 l 775 706 q 746 694 761 694 l 725 696 l 728 715 q 698 702 714 706 q 667 697 682 699 l 665 715 l 678 731 q 751 720 715 729 q 825 711 788 711 l 907 678 q 927 651 910 663 q 956 631 944 640 q 959 614 956 621 q 974 606 963 607 q 978 571 976 588 q 981 536 981 554 q 969 494 981 519 q 943 445 957 469 q 922 403 929 421 q 891 377 911 393 q 853 344 871 361 q 831 314 836 328 q 795 288 813 300 q 760 265 778 276 l 768 281 l 767 285 l 736 261 l 746 244 q 715 238 735 243 q 693 218 696 233 l 694 214 q 708 223 701 218 q 721 231 714 228 l 722 221 q 553 94 644 143 q 532 85 547 92 q 503 70 517 78 q 489 56 489 63 l 450 56 l 426 31 q 392 35 410 35 l 393 43 l 392 51 l 365 36 l 381 29 q 230 -30 307 -3 q 71 -57 153 -57 q 47 -62 58 -57 q 21 -68 35 -68 m 926 531 l 943 539 l 944 546 q 934 540 939 544 q 926 531 929 536 m 876 410 l 899 424 l 885 435 l 876 410 m 881 385 l 894 406 l 881 406 l 867 390 l 881 385 m 764 315 l 774 317 q 776 324 775 319 q 778 331 778 328 l 778 342 q 760 333 769 338 q 749 318 751 328 q 756 316 753 317 q 764 315 760 315 m 681 226 l 699 236 l 697 240 q 686 235 692 238 q 676 228 681 232 l 681 226 m 571 140 l 585 144 l 583 151 l 572 146 l 571 140 z "},"Δ":{"ha":721,"x_min":-19,"x_max":718,"o":"m 14 -14 q -19 31 -12 -1 l -12 39 l -12 49 q -6 65 -12 63 q 7 64 3 65 q 49 108 26 90 q 72 148 54 119 q 114 212 90 176 q 161 281 138 247 q 203 335 185 314 q 228 357 221 357 l 232 364 l 228 376 q 263 422 246 399 q 304 460 281 444 l 308 458 l 307 467 l 363 518 l 364 536 q 410 594 383 558 q 464 664 436 629 q 460 685 463 679 q 440 726 449 704 q 424 769 431 747 q 440 789 431 781 q 461 799 450 797 q 510 776 481 783 q 513 747 507 760 q 519 725 518 735 l 529 706 q 534 692 532 696 q 533 678 536 689 q 536 670 535 674 q 539 663 538 667 q 546 654 546 660 q 544 648 546 651 q 543 639 542 644 l 543 625 q 558 588 554 614 q 574 544 561 563 l 576 547 q 588 498 583 531 q 597 436 592 465 q 610 399 601 407 l 614 400 q 622 369 618 385 q 628 338 625 353 l 618 347 l 636 279 q 653 242 647 268 q 662 187 658 215 q 669 139 665 158 l 675 113 l 697 36 l 701 22 q 710 11 703 17 q 707 3 718 6 l 688 3 q 672 6 676 3 q 666 9 671 8 q 658 11 661 10 q 651 8 654 8 q 642 6 647 8 q 631 10 639 10 q 618 14 622 10 q 616 13 617 14 q 615 13 615 13 q 607 18 610 13 q 597 21 604 24 l 586 14 q 578 12 582 13 q 572 11 575 11 q 559 13 565 11 q 544 15 553 15 q 531 9 539 8 q 517 7 524 10 q 499 11 510 10 q 476 13 488 13 q 442 11 458 13 q 415 10 425 10 q 410 10 418 10 l 415 10 q 385 10 413 10 q 324 10 358 10 q 260 8 289 10 q 225 4 232 7 q 167 5 197 6 q 106 4 138 4 l 86 10 l 82 10 q 78 1 81 6 q 76 -7 76 -3 q 44 -7 60 -6 q 14 -14 29 -8 m 650 42 q 635 122 633 85 q 625 190 638 158 q 615 211 622 196 q 600 242 607 226 q 589 263 593 258 q 585 285 588 274 q 579 307 582 296 l 582 315 l 578 314 q 556 358 564 333 q 538 407 547 383 l 544 417 l 543 424 q 525 455 536 425 q 501 528 514 485 q 478 608 489 571 q 472 615 475 610 q 465 613 468 619 q 440 567 453 596 q 412 511 426 538 q 381 475 397 485 l 338 410 l 353 417 q 335 386 344 401 q 317 356 326 371 l 313 358 q 285 324 300 354 q 255 261 269 294 q 226 211 240 228 l 224 217 q 191 176 204 201 q 163 140 178 150 l 171 131 l 146 103 l 139 104 q 133 83 138 93 q 124 64 129 74 l 185 64 l 194 49 l 201 63 l 222 63 q 247 57 231 58 q 283 56 264 56 q 333 57 308 56 q 371 58 357 58 q 396 53 385 57 q 419 47 407 49 q 451 51 435 47 q 483 56 468 54 l 504 46 q 525 53 514 53 q 546 56 536 54 q 585 50 565 50 q 624 47 606 50 l 631 43 l 650 42 m 567 519 l 574 529 l 556 538 l 554 531 l 567 519 m 585 444 q 568 499 586 476 l 565 499 q 574 470 568 483 q 585 444 579 457 m 346 446 l 351 451 l 346 457 l 346 446 m 232 267 q 256 288 249 275 q 269 318 264 300 q 247 296 258 308 q 229 268 236 283 l 232 267 m 613 306 l 618 307 l 615 315 l 613 306 m 206 229 l 229 231 l 225 244 l 206 238 l 206 229 z "},"ǅ":{"ha":1188,"x_min":10,"x_max":1369,"o":"m 364 -94 l 331 -90 q 305 -62 314 -79 q 289 -28 296 -44 l 282 -28 q 252 -37 258 -28 q 240 -55 246 -46 q 213 -64 235 -64 q 181 -60 197 -64 q 147 -57 164 -57 q 130 -60 138 -57 q 113 -62 122 -62 q 68 -56 92 -62 q 27 -33 44 -49 q 10 6 10 -18 q 37 59 10 39 q 93 83 64 79 l 90 81 q 54 56 75 71 q 33 19 33 42 q 58 -11 33 0 q 99 -22 82 -22 l 106 -19 q 144 -24 122 -24 q 215 -18 178 -24 q 276 -7 251 -12 l 276 3 q 264 38 264 21 l 279 75 l 269 89 l 282 113 l 282 117 l 271 118 l 264 113 l 264 114 l 269 122 q 276 163 265 140 q 298 208 286 185 q 310 249 310 231 q 335 287 321 258 q 364 346 350 315 q 386 392 378 376 q 446 494 413 444 q 517 590 479 543 q 490 582 503 586 q 461 578 476 578 q 421 563 451 571 q 356 545 390 554 q 297 527 322 536 q 272 510 272 518 l 276 503 l 299 518 l 304 515 l 313 522 l 314 517 q 306 488 314 500 l 300 500 l 288 492 l 290 482 l 282 479 q 294 468 289 475 q 303 454 299 461 q 242 433 271 453 q 182 408 214 413 q 164 396 175 399 q 142 393 153 393 q 121 406 135 393 q 97 435 107 419 q 86 458 86 451 q 104 490 86 474 q 132 515 122 507 l 117 488 q 164 511 133 499 q 227 535 194 524 q 286 559 260 547 q 322 579 313 571 q 433 608 376 594 q 544 626 489 621 q 567 652 551 635 q 600 684 583 669 q 628 699 617 699 q 672 697 653 699 q 701 668 692 694 q 690 641 701 653 q 667 622 678 629 l 681 619 q 699 633 692 624 l 707 635 l 710 635 q 724 631 718 635 q 736 621 731 626 l 751 628 q 836 610 786 628 q 935 564 886 593 q 1017 498 985 535 q 1050 421 1050 461 q 1047 385 1050 403 q 1042 351 1044 368 l 1033 354 l 1026 349 l 1026 346 l 1038 333 q 1008 276 1028 303 q 964 228 988 249 q 919 199 942 222 q 874 164 897 175 q 842 139 858 146 q 810 108 825 132 l 797 121 l 794 117 l 796 108 q 775 97 796 97 q 765 98 769 97 q 757 99 760 99 l 750 92 l 751 81 q 738 71 750 79 q 726 69 726 63 l 724 69 q 681 43 700 56 l 671 50 l 664 38 q 658 47 663 40 q 649 54 654 53 l 633 38 l 632 38 l 615 46 l 600 35 l 593 40 l 569 29 l 571 28 l 581 28 l 589 19 l 589 18 l 585 18 l 563 24 l 547 18 l 539 19 q 571 39 553 31 l 563 43 l 544 29 l 532 35 l 532 29 q 514 18 519 26 l 514 6 l 508 4 l 493 11 q 480 6 486 8 q 468 -1 474 3 q 414 -16 440 -4 q 358 -28 388 -28 l 347 -22 l 346 -57 l 356 -78 l 357 -78 l 365 -90 l 365 -92 l 364 -94 m 349 14 q 565 95 460 47 q 771 199 669 143 l 778 197 l 785 199 l 783 204 l 788 210 l 794 204 l 811 217 l 810 219 l 801 222 q 836 251 806 233 q 903 292 867 268 q 968 349 940 317 q 996 425 996 382 q 969 503 996 472 q 901 554 943 535 q 810 583 860 574 q 715 597 761 593 q 636 601 669 601 q 616 573 622 588 q 600 549 610 558 q 567 539 590 539 l 556 529 l 556 515 q 525 478 535 506 q 501 433 515 451 l 499 422 l 503 418 l 476 374 l 474 363 l 468 367 q 457 333 468 358 q 431 276 446 307 q 403 215 415 244 q 389 171 392 186 q 371 128 379 161 q 357 63 363 96 q 349 14 351 29 m 1356 486 q 1367 485 1364 489 q 1365 479 1369 481 q 1347 468 1356 474 q 1329 456 1339 463 q 1310 444 1326 454 q 1288 428 1294 435 l 1272 415 l 1271 415 l 1267 413 q 1263 411 1264 413 l 1249 401 l 1249 400 l 1247 400 l 1240 394 l 1239 396 l 1238 394 q 1233 392 1238 392 l 1228 389 q 1224 386 1226 389 q 1221 382 1224 382 q 1211 381 1217 381 q 1196 378 1199 372 q 1197 384 1193 379 q 1197 389 1200 389 l 1190 388 q 1188 388 1189 388 q 1188 389 1186 389 l 1186 390 l 1185 389 l 1176 407 q 1172 408 1176 408 l 1171 411 l 1169 410 l 1163 422 q 1153 439 1160 429 q 1144 451 1146 449 q 1135 463 1139 458 q 1125 474 1132 468 l 1125 475 q 1131 482 1125 478 q 1142 483 1136 486 q 1176 472 1161 476 q 1176 465 1176 471 q 1181 458 1176 460 q 1186 457 1182 457 q 1192 456 1190 457 l 1207 447 l 1207 440 q 1211 442 1211 444 l 1219 436 q 1223 434 1221 435 q 1226 432 1225 433 l 1236 426 q 1246 433 1239 429 l 1257 438 q 1260 436 1260 440 l 1268 440 l 1282 456 q 1290 459 1285 458 q 1297 461 1294 460 q 1308 466 1301 463 q 1317 472 1315 469 q 1338 478 1328 474 q 1356 486 1347 483 m 957 -12 l 957 -11 l 965 4 l 961 15 q 982 55 961 43 q 1025 68 1003 67 q 1056 103 1032 78 q 1108 159 1079 129 q 1161 213 1136 189 q 1194 243 1186 238 q 1149 231 1168 235 q 1100 226 1129 226 q 1047 241 1063 226 q 1032 294 1032 256 q 1033 303 1032 299 q 1035 311 1033 307 q 1060 284 1038 290 q 1108 278 1083 278 q 1133 278 1121 278 q 1151 279 1144 279 q 1186 276 1169 279 q 1219 272 1203 272 l 1229 272 q 1267 307 1249 288 q 1308 341 1286 326 q 1357 356 1331 356 l 1361 354 q 1206 215 1282 286 q 1054 74 1129 144 l 1076 74 q 1118 60 1097 74 l 1136 56 l 1138 54 l 1156 53 q 1179 36 1168 44 q 1200 17 1190 28 l 1204 -11 l 1201 -11 q 1186 7 1188 0 q 1161 14 1185 14 q 1125 13 1143 14 q 1088 11 1107 11 q 1057 5 1079 7 q 1012 2 1035 3 q 976 1 989 1 l 957 -12 m 588 46 q 608 60 599 50 l 603 63 q 592 58 597 61 q 582 51 588 54 l 588 46 z "},"E":{"ha":675,"x_min":32,"x_max":921,"o":"m 296 -50 l 282 -40 l 269 -39 l 257 -33 l 239 -39 q 203 -18 228 -15 q 121 40 160 4 q 57 120 82 75 q 32 217 32 165 q 37 252 32 228 q 51 297 42 276 q 74 318 60 318 q 105 356 85 331 q 147 403 125 382 q 186 424 169 424 q 199 434 200 424 q 203 454 199 444 q 232 464 207 464 q 251 472 243 464 q 260 490 258 481 l 271 497 l 276 493 q 301 502 290 493 q 317 522 311 511 l 331 517 q 393 548 364 525 q 457 576 422 571 l 468 586 q 518 599 493 593 q 569 601 543 604 q 599 613 585 607 q 631 618 614 618 q 690 607 661 618 q 749 596 718 596 q 764 607 761 596 q 767 626 767 618 q 766 648 767 638 q 758 668 765 658 l 765 672 q 797 667 774 672 q 849 652 821 661 q 897 634 876 643 q 921 618 918 625 l 915 593 l 883 581 l 871 586 q 858 570 858 583 q 856 546 857 557 q 844 535 856 535 q 840 535 843 535 q 832 538 836 536 l 831 535 l 843 513 l 840 507 l 843 500 l 840 496 l 828 501 l 822 499 l 824 492 q 818 472 819 485 q 812 448 817 458 q 794 438 807 438 q 753 393 775 419 q 701 364 732 367 l 701 365 l 707 400 l 701 410 q 717 463 704 436 q 731 518 729 490 l 744 533 q 747 545 744 538 q 750 556 750 553 q 749 569 750 563 q 746 581 747 575 q 724 593 738 590 q 696 596 710 596 q 599 578 654 596 q 483 529 543 560 q 368 461 424 499 q 269 384 313 424 q 201 308 225 344 q 256 308 229 310 q 310 307 283 307 q 412 313 361 307 q 514 318 463 318 q 640 314 576 318 l 649 307 l 631 301 q 619 296 625 299 q 608 293 614 293 q 589 297 599 293 q 569 301 579 301 q 545 294 556 301 q 521 288 535 288 q 496 291 508 288 q 469 296 483 294 l 458 290 l 460 282 l 456 279 l 432 285 l 414 274 l 407 283 l 399 283 q 343 273 369 283 q 290 251 317 263 q 235 240 264 240 l 231 240 l 213 247 q 199 238 203 247 q 194 219 194 228 l 179 236 l 168 221 l 160 222 q 145 176 151 200 q 139 129 139 153 q 178 50 139 71 q 268 29 217 29 q 378 42 324 29 q 483 75 432 56 q 510 78 497 75 q 532 88 522 82 l 532 90 q 558 96 542 96 l 565 92 l 569 96 l 569 101 l 589 106 l 607 119 l 617 101 l 608 106 l 601 92 l 603 89 q 516 25 568 56 q 408 -24 464 -6 q 301 -40 351 -42 l 303 -44 l 296 -50 m 660 304 l 657 306 l 658 311 l 669 306 l 660 304 m 685 146 l 679 151 l 679 154 q 704 163 690 161 q 685 146 696 153 m 626 104 l 619 110 q 624 124 619 118 q 638 126 629 129 l 632 129 q 660 142 650 132 l 674 142 l 649 114 l 649 113 l 643 114 l 636 106 l 626 104 z "},"É":{"ha":675,"x_min":32,"x_max":921,"o":"m 296 -50 l 282 -40 l 269 -39 l 257 -33 l 239 -39 q 203 -18 228 -15 q 121 40 160 4 q 57 120 82 75 q 32 217 32 165 q 37 252 32 228 q 51 297 42 276 q 74 318 60 318 q 105 356 85 331 q 147 403 125 382 q 186 424 169 424 q 199 434 200 424 q 203 454 199 444 q 232 464 207 464 q 251 472 243 464 q 260 490 258 481 l 271 497 l 276 493 q 301 502 290 493 q 317 522 311 511 l 331 517 q 393 548 364 525 q 457 576 422 571 l 468 586 q 518 599 493 593 q 569 601 543 604 q 599 613 585 607 q 631 618 614 618 q 690 607 661 618 q 749 596 718 596 q 764 607 761 596 q 767 626 767 618 q 766 648 767 638 q 758 668 765 658 l 765 672 q 797 667 774 672 q 849 652 821 661 q 897 634 876 643 q 921 618 918 625 l 915 593 l 883 581 l 871 586 q 858 570 858 583 q 856 546 857 557 q 844 535 856 535 q 840 535 843 535 q 832 538 836 536 l 831 535 l 843 513 l 840 507 l 843 500 l 840 496 l 828 501 l 822 499 l 824 492 q 818 472 819 485 q 812 448 817 458 q 794 438 807 438 q 753 393 775 419 q 701 364 732 367 l 701 365 l 707 400 l 701 410 q 717 463 704 436 q 731 518 729 490 l 744 533 q 747 545 744 538 q 750 556 750 553 q 749 569 750 563 q 746 581 747 575 q 724 593 738 590 q 696 596 710 596 q 599 578 654 596 q 483 529 543 560 q 368 461 424 499 q 269 384 313 424 q 201 308 225 344 q 256 308 229 310 q 310 307 283 307 q 412 313 361 307 q 514 318 463 318 q 640 314 576 318 l 649 307 l 631 301 q 619 296 625 299 q 608 293 614 293 q 589 297 599 293 q 569 301 579 301 q 545 294 556 301 q 521 288 535 288 q 496 291 508 288 q 469 296 483 294 l 458 290 l 460 282 l 456 279 l 432 285 l 414 274 l 407 283 l 399 283 q 343 273 369 283 q 290 251 317 263 q 235 240 264 240 l 231 240 l 213 247 q 199 238 203 247 q 194 219 194 228 l 179 236 l 168 221 l 160 222 q 145 176 151 200 q 139 129 139 153 q 178 50 139 71 q 268 29 217 29 q 378 42 324 29 q 483 75 432 56 q 510 78 497 75 q 532 88 522 82 l 532 90 q 558 96 542 96 l 565 92 l 569 96 l 569 101 l 589 106 l 607 119 l 617 101 l 608 106 l 601 92 l 603 89 q 516 25 568 56 q 408 -24 464 -6 q 301 -40 351 -42 l 303 -44 l 296 -50 m 660 304 l 657 306 l 658 311 l 669 306 l 660 304 m 685 146 l 679 151 l 679 154 q 704 163 690 161 q 685 146 696 153 m 626 104 l 619 110 q 624 124 619 118 q 638 126 629 129 l 632 129 q 660 142 650 132 l 674 142 l 649 114 l 649 113 l 643 114 l 636 106 l 626 104 m 635 736 l 631 736 q 619 741 624 736 q 618 747 615 746 q 635 761 628 754 q 651 775 643 768 l 688 810 l 701 825 l 703 824 l 707 828 q 713 829 711 828 l 756 869 l 757 868 l 758 869 q 763 872 758 872 l 771 871 q 772 876 774 871 q 774 883 771 882 q 779 885 775 885 q 790 881 785 885 q 800 874 794 876 l 813 864 q 816 862 814 863 q 818 858 818 861 l 821 857 l 824 857 l 822 853 l 821 842 l 806 832 l 793 826 l 783 824 q 776 819 775 822 q 771 813 776 817 l 760 807 q 754 808 758 806 l 726 781 l 704 771 q 696 771 699 769 q 690 769 693 772 q 682 763 685 768 q 675 758 679 757 q 655 749 664 757 q 635 736 646 740 z "},"Ĕ":{"ha":675,"x_min":32,"x_max":921,"o":"m 296 -50 l 282 -40 l 269 -39 l 257 -33 l 239 -39 q 203 -18 228 -15 q 121 40 160 4 q 57 120 82 75 q 32 217 32 165 q 37 252 32 228 q 51 297 42 276 q 74 318 60 318 q 105 356 85 331 q 147 403 125 382 q 186 424 169 424 q 199 434 200 424 q 203 454 199 444 q 232 464 207 464 q 251 472 243 464 q 260 490 258 481 l 271 497 l 276 493 q 301 502 290 493 q 317 522 311 511 l 331 517 q 393 548 364 525 q 457 576 422 571 l 468 586 q 518 599 493 593 q 569 601 543 604 q 599 613 585 607 q 631 618 614 618 q 690 607 661 618 q 749 596 718 596 q 764 607 761 596 q 767 626 767 618 q 766 648 767 638 q 758 668 765 658 l 765 672 q 797 667 774 672 q 849 652 821 661 q 897 634 876 643 q 921 618 918 625 l 915 593 l 883 581 l 871 586 q 858 570 858 583 q 856 546 857 557 q 844 535 856 535 q 840 535 843 535 q 832 538 836 536 l 831 535 l 843 513 l 840 507 l 843 500 l 840 496 l 828 501 l 822 499 l 824 492 q 818 472 819 485 q 812 448 817 458 q 794 438 807 438 q 753 393 775 419 q 701 364 732 367 l 701 365 l 707 400 l 701 410 q 717 463 704 436 q 731 518 729 490 l 744 533 q 747 545 744 538 q 750 556 750 553 q 749 569 750 563 q 746 581 747 575 q 724 593 738 590 q 696 596 710 596 q 599 578 654 596 q 483 529 543 560 q 368 461 424 499 q 269 384 313 424 q 201 308 225 344 q 256 308 229 310 q 310 307 283 307 q 412 313 361 307 q 514 318 463 318 q 640 314 576 318 l 649 307 l 631 301 q 619 296 625 299 q 608 293 614 293 q 589 297 599 293 q 569 301 579 301 q 545 294 556 301 q 521 288 535 288 q 496 291 508 288 q 469 296 483 294 l 458 290 l 460 282 l 456 279 l 432 285 l 414 274 l 407 283 l 399 283 q 343 273 369 283 q 290 251 317 263 q 235 240 264 240 l 231 240 l 213 247 q 199 238 203 247 q 194 219 194 228 l 179 236 l 168 221 l 160 222 q 145 176 151 200 q 139 129 139 153 q 178 50 139 71 q 268 29 217 29 q 378 42 324 29 q 483 75 432 56 q 510 78 497 75 q 532 88 522 82 l 532 90 q 558 96 542 96 l 565 92 l 569 96 l 569 101 l 589 106 l 607 119 l 617 101 l 608 106 l 601 92 l 603 89 q 516 25 568 56 q 408 -24 464 -6 q 301 -40 351 -42 l 303 -44 l 296 -50 m 660 304 l 657 306 l 658 311 l 669 306 l 660 304 m 685 146 l 679 151 l 679 154 q 704 163 690 161 q 685 146 696 153 m 626 104 l 619 110 q 624 124 619 118 q 638 126 629 129 l 632 129 q 660 142 650 132 l 674 142 l 649 114 l 649 113 l 643 114 l 636 106 l 626 104 m 668 743 q 666 744 667 744 q 664 744 665 743 q 661 746 663 744 q 658 747 660 747 l 650 751 l 646 756 q 644 756 644 757 q 640 756 643 754 l 636 764 q 625 789 628 772 q 623 802 624 794 q 622 819 622 810 q 624 839 622 829 q 628 856 625 849 q 632 863 628 858 q 658 872 640 872 q 681 869 671 872 q 688 863 690 865 q 686 856 686 860 q 686 846 686 853 q 681 838 686 840 q 675 832 675 835 q 677 828 674 828 q 682 825 681 828 q 683 821 683 824 q 682 815 682 818 q 706 782 682 794 q 743 771 729 769 q 755 772 746 771 q 767 778 764 774 q 771 778 769 781 q 774 776 772 775 q 782 776 782 775 q 786 778 782 776 q 790 777 789 778 q 792 778 790 776 q 793 782 793 779 q 807 789 792 786 q 828 803 818 796 q 850 824 839 811 l 854 826 q 858 833 856 829 q 863 838 860 836 q 887 858 876 853 q 897 861 897 864 q 896 853 896 856 q 894 849 896 850 q 890 840 893 843 q 885 833 888 838 q 874 817 876 824 q 861 800 872 811 l 849 788 q 836 777 844 783 q 826 769 828 771 l 821 765 q 817 764 819 764 q 814 761 815 764 q 810 759 813 758 q 804 757 807 760 q 801 756 803 756 q 797 753 800 756 q 793 751 796 751 q 756 741 775 746 q 715 736 736 736 q 691 738 703 736 q 668 743 679 740 z "},"Ě":{"ha":675,"x_min":32,"x_max":922,"o":"m 907 906 q 914 907 910 907 q 922 903 921 907 q 919 897 922 900 q 897 883 908 892 q 874 868 885 875 q 849 852 868 865 q 821 832 831 839 l 800 815 l 799 817 l 793 813 q 788 811 789 813 l 769 799 l 769 797 l 768 797 l 760 789 l 758 790 l 757 789 q 754 787 757 788 q 750 786 751 786 l 743 782 q 738 779 743 782 q 735 775 738 775 q 722 772 731 772 q 711 767 717 769 q 703 769 706 764 q 701 770 701 769 q 701 771 701 771 q 704 778 701 774 q 704 782 707 782 l 696 781 q 692 783 689 781 l 690 785 l 689 783 l 678 806 q 674 807 678 807 l 671 811 l 669 810 l 660 826 q 647 847 656 833 q 638 863 639 860 q 625 878 631 869 q 613 892 619 886 q 618 900 611 894 q 633 903 625 906 q 653 894 644 899 q 674 886 663 889 q 673 876 674 883 q 678 868 672 869 q 685 865 679 865 q 692 864 690 865 l 711 854 l 711 844 q 715 847 713 846 q 717 846 717 847 l 728 840 q 733 837 731 838 q 736 835 735 836 l 749 828 q 760 832 756 832 q 769 836 764 832 l 785 842 q 788 842 786 843 q 789 840 789 842 l 796 849 l 821 861 q 829 865 824 864 q 839 868 835 865 q 851 878 846 869 q 857 889 856 886 q 883 897 871 892 q 907 906 896 903 m 296 -50 l 282 -40 l 269 -39 l 257 -33 l 239 -39 q 203 -18 228 -15 q 121 40 160 4 q 57 120 82 75 q 32 217 32 165 q 37 252 32 228 q 51 297 42 276 q 74 318 60 318 q 105 356 85 331 q 147 403 125 382 q 186 424 169 424 q 199 434 200 424 q 203 454 199 444 q 232 464 207 464 q 251 472 243 464 q 260 490 258 481 l 271 497 l 276 493 q 301 502 290 493 q 317 522 311 511 l 331 517 q 393 548 364 525 q 457 576 422 571 l 468 586 q 518 599 493 593 q 569 601 543 604 q 599 613 585 607 q 631 618 614 618 q 690 607 661 618 q 749 596 718 596 q 764 607 761 596 q 767 626 767 618 q 766 648 767 638 q 758 668 765 658 l 765 672 q 797 667 774 672 q 849 652 821 661 q 897 634 876 643 q 921 618 918 625 l 915 593 l 883 581 l 871 586 q 858 570 858 583 q 856 546 857 557 q 844 535 856 535 q 840 535 843 535 q 832 538 836 536 l 831 535 l 843 513 l 840 507 l 843 500 l 840 496 l 828 501 l 822 499 l 824 492 q 818 472 819 485 q 812 448 817 458 q 794 438 807 438 q 753 393 775 419 q 701 364 732 367 l 701 365 l 707 400 l 701 410 q 717 463 704 436 q 731 518 729 490 l 744 533 q 747 545 744 538 q 750 556 750 553 q 749 569 750 563 q 746 581 747 575 q 724 593 738 590 q 696 596 710 596 q 599 578 654 596 q 483 529 543 560 q 368 461 424 499 q 269 384 313 424 q 201 308 225 344 q 256 308 229 310 q 310 307 283 307 q 412 313 361 307 q 514 318 463 318 q 640 314 576 318 l 649 307 l 631 301 q 619 296 625 299 q 608 293 614 293 q 589 297 599 293 q 569 301 579 301 q 545 294 556 301 q 521 288 535 288 q 496 291 508 288 q 469 296 483 294 l 458 290 l 460 282 l 456 279 l 432 285 l 414 274 l 407 283 l 399 283 q 343 273 369 283 q 290 251 317 263 q 235 240 264 240 l 231 240 l 213 247 q 199 238 203 247 q 194 219 194 228 l 179 236 l 168 221 l 160 222 q 145 176 151 200 q 139 129 139 153 q 178 50 139 71 q 268 29 217 29 q 378 42 324 29 q 483 75 432 56 q 510 78 497 75 q 532 88 522 82 l 532 90 q 558 96 542 96 l 565 92 l 569 96 l 569 101 l 589 106 l 607 119 l 617 101 l 608 106 l 601 92 l 603 89 q 516 25 568 56 q 408 -24 464 -6 q 301 -40 351 -42 l 303 -44 l 296 -50 m 660 304 l 657 306 l 658 311 l 669 306 l 660 304 m 685 146 l 679 151 l 679 154 q 704 163 690 161 q 685 146 696 153 m 626 104 l 619 110 q 624 124 619 118 q 638 126 629 129 l 632 129 q 660 142 650 132 l 674 142 l 649 114 l 649 113 l 643 114 l 636 106 l 626 104 z "},"Ê":{"ha":675,"x_min":32,"x_max":921,"o":"m 296 -50 l 282 -40 l 269 -39 l 257 -33 l 239 -39 q 203 -18 228 -15 q 121 40 160 4 q 57 120 82 75 q 32 217 32 165 q 37 252 32 228 q 51 297 42 276 q 74 318 60 318 q 105 356 85 331 q 147 403 125 382 q 186 424 169 424 q 199 434 200 424 q 203 454 199 444 q 232 464 207 464 q 251 472 243 464 q 260 490 258 481 l 271 497 l 276 493 q 301 502 290 493 q 317 522 311 511 l 331 517 q 393 548 364 525 q 457 576 422 571 l 468 586 q 518 599 493 593 q 569 601 543 604 q 599 613 585 607 q 631 618 614 618 q 690 607 661 618 q 749 596 718 596 q 764 607 761 596 q 767 626 767 618 q 766 648 767 638 q 758 668 765 658 l 765 672 q 797 667 774 672 q 849 652 821 661 q 897 634 876 643 q 921 618 918 625 l 915 593 l 883 581 l 871 586 q 858 570 858 583 q 856 546 857 557 q 844 535 856 535 q 840 535 843 535 q 832 538 836 536 l 831 535 l 843 513 l 840 507 l 843 500 l 840 496 l 828 501 l 822 499 l 824 492 q 818 472 819 485 q 812 448 817 458 q 794 438 807 438 q 753 393 775 419 q 701 364 732 367 l 701 365 l 707 400 l 701 410 q 717 463 704 436 q 731 518 729 490 l 744 533 q 747 545 744 538 q 750 556 750 553 q 749 569 750 563 q 746 581 747 575 q 724 593 738 590 q 696 596 710 596 q 599 578 654 596 q 483 529 543 560 q 368 461 424 499 q 269 384 313 424 q 201 308 225 344 q 256 308 229 310 q 310 307 283 307 q 412 313 361 307 q 514 318 463 318 q 640 314 576 318 l 649 307 l 631 301 q 619 296 625 299 q 608 293 614 293 q 589 297 599 293 q 569 301 579 301 q 545 294 556 301 q 521 288 535 288 q 496 291 508 288 q 469 296 483 294 l 458 290 l 460 282 l 456 279 l 432 285 l 414 274 l 407 283 l 399 283 q 343 273 369 283 q 290 251 317 263 q 235 240 264 240 l 231 240 l 213 247 q 199 238 203 247 q 194 219 194 228 l 179 236 l 168 221 l 160 222 q 145 176 151 200 q 139 129 139 153 q 178 50 139 71 q 268 29 217 29 q 378 42 324 29 q 483 75 432 56 q 510 78 497 75 q 532 88 522 82 l 532 90 q 558 96 542 96 l 565 92 l 569 96 l 569 101 l 589 106 l 607 119 l 617 101 l 608 106 l 601 92 l 603 89 q 516 25 568 56 q 408 -24 464 -6 q 301 -40 351 -42 l 303 -44 l 296 -50 m 660 304 l 657 306 l 658 311 l 669 306 l 660 304 m 685 146 l 679 151 l 679 154 q 704 163 690 161 q 685 146 696 153 m 626 104 l 619 110 q 624 124 619 118 q 638 126 629 129 l 632 129 q 660 142 650 132 l 674 142 l 649 114 l 649 113 l 643 114 l 636 106 l 626 104 m 575 731 q 568 729 572 729 q 561 733 563 729 q 563 739 560 738 q 585 753 574 746 q 608 768 597 761 q 633 784 614 771 q 661 804 651 797 l 682 821 l 683 819 l 689 824 q 694 825 693 824 l 713 838 l 713 839 l 714 839 l 722 847 l 724 846 l 725 847 q 728 849 725 849 q 732 850 731 850 l 739 854 q 744 857 739 854 q 747 861 744 861 q 760 864 751 864 q 772 870 767 867 q 779 867 776 874 q 781 866 781 867 q 781 865 781 865 q 778 858 781 863 q 778 854 776 854 l 786 856 q 790 853 793 856 l 792 851 l 793 853 l 804 831 q 808 829 804 829 l 811 825 l 813 826 l 822 810 q 835 790 826 803 q 844 774 843 776 q 857 759 851 767 q 869 744 863 751 q 865 738 872 743 q 849 733 857 732 q 828 743 838 738 q 808 750 819 749 q 809 760 808 753 q 804 768 810 767 q 798 771 803 771 q 790 772 793 771 l 771 782 l 771 792 q 767 790 769 790 q 765 790 765 789 l 754 796 q 751 799 753 799 q 746 801 749 800 l 733 808 q 723 804 726 804 q 713 800 719 804 l 697 794 q 694 794 696 793 q 693 796 693 794 l 686 788 l 661 775 q 653 772 658 774 q 643 768 647 771 q 633 758 638 767 q 625 747 628 750 q 599 740 611 746 q 575 731 586 733 z "}}}
